<?xml version="1.0" encoding="utf-8"?>
<!-- Generator: Adobe Illustrator 26.5.0, SVG Export Plug-In . SVG Version: 6.00 Build 0)  -->
<svg version="1.1" xmlns="http://www.w3.org/2000/svg" xmlns:xlink="http://www.w3.org/1999/xlink" x="0px" y="0px"
	 viewBox="0 0 512 512" style="enable-background:new 0 0 512 512;" xml:space="preserve">
<style type="text/css">
	.st0{filter:url(#Adobe_OpacityMaskFilter);}
	.st1{fill:url(#SVGID_00000043430416618678207080000017186845026150440091_);}
	.st2{mask:url(#SVGID_1_);}
	.st3{fill:#BA68C8;}
	.st4{fill:#FFFFFF;}
</style>
<g id="Layer_2">
</g>
<g id="Layer_1">
	<defs>
		<filter id="Adobe_OpacityMaskFilter" filterUnits="userSpaceOnUse" x="48.3" y="28" width="386.4" height="453.9">
			<feFlood  style="flood-color:white;flood-opacity:1" result="back"/>
			<feBlend  in="SourceGraphic" in2="back" mode="normal"/>
		</filter>
	</defs>
	<mask maskUnits="userSpaceOnUse" x="48.3" y="28" width="386.4" height="453.9" id="SVGID_1_">
		<g class="st0">
			
				<linearGradient id="SVGID_00000087403309727183272890000014193814415314090906_" gradientUnits="userSpaceOnUse" x1="1754.7885" y1="480.998" x2="1754.7885" y2="-62.4992">
				<stop  offset="4.848480e-02" style="stop-color:#FFFFFF"/>
				<stop  offset="0.497" style="stop-color:#4F4F4F"/>
				<stop  offset="0.5818" style="stop-color:#999999"/>
				<stop  offset="0.8909" style="stop-color:#262626"/>
				<stop  offset="1" style="stop-color:#9E9E9E"/>
			</linearGradient>
			
				<rect x="-90.9" y="-69.2" style="fill:url(#SVGID_00000087403309727183272890000014193814415314090906_);" width="3691.4" height="553.5"/>
		</g>
	</mask>
	<g class="st2">
		<path class="st3" d="M422.8,36.9l3.8,141.5h-7.3c-2.3-6.1-4.1-10.8-5.4-13.9c-7.4-20.3-13.4-35.3-18-45.3
			c-8.2-17.7-20.2-34-35.8-48.7c-11.8-11.2-24.1-19.3-36.7-24.4c-12.7-5.1-26.9-7.6-42.7-7.6c-23.8,0-44.5,5.2-62,15.5
			c-15.4,9.1-29.8,22.1-43,39.1c-13.3,17-24.2,36.4-32.6,58.1c-12,30.6-18,65.4-18,104.5c0,33.1,4.1,63,12.3,89.6
			s20.3,48.9,36.1,66.8c29.1,33.3,67.7,50,115.8,50c24.1,0,45.7-4.2,64.9-12.5c19.2-8.3,34.1-20.1,44.6-35.3
			c12.2-17.5,21.1-41.1,26.6-70.9l7.3,1.3c-4,33.3-13.1,59.8-27.2,79.4c-13.5,18.8-32.1,33.1-55.9,43c-23.7,9.9-51.2,14.9-82.5,14.9
			c-29.1,0-57-4.3-83.6-13c-42.4-13.9-75.5-39.1-99.4-75.5C60.3,357,48.3,313.6,48.3,263.2c0-38.6,7-74.2,20.9-106.8
			c13.9-32.6,33.3-58.8,58.2-78.7c19.2-15.2,42.1-27.3,68.8-36.2c26.7-9,53.4-13.5,80.2-13.5c25.5,0,52.5,4.9,81,14.6l26,8.5
			c5.1,1.9,9.5,2.8,13.3,2.8c5.3,0,9.6-2.2,13-6.6c1.5-2.1,3.3-5.6,5.4-10.4H422.8z"/>
		<path class="st4" d="M324.3,200c-4.6-9.4-11-17-19.2-22.8c-8.6-6.1-19.1-9.6-31.5-10.6c-2.9-0.2-9.8-0.4-20.5-0.4h-48.4v2
			c5.6,0.3,9.8,1.6,12.7,4c2.3,1.9,3.8,4.4,4.6,7.4c0.8,3,1.2,7.7,1.2,14.2v64.8c0,6-0.3,10.4-1,13.3c-0.7,2.9-1.9,5.3-3.7,7.2
			c-1.6,1.7-3.5,2.9-5.5,3.7c-2.1,0.8-4.8,1.2-8.2,1.4v2h65c7.6,0,15-0.7,22.2-2c9.7-1.8,17.8-6.1,24.4-12.7
			c4.6-4.7,8.3-10.7,10.9-17.9c2.6-7.2,3.9-14.8,3.9-22.9C331.2,219.6,328.9,209.4,324.3,200z M306.8,251.2
			c-2.1,6.7-5.1,12.6-9.1,17.7c-4,5.3-8.6,9.2-13.8,11.6c-5.1,2.4-11.3,3.6-18.5,3.6c-8.4,0-14.5-2.3-18.3-6.9
			c-1.8-2.1-3-4.7-3.6-7.6c-0.6-3-1-7.4-1-13.1V169h10.6c7.6,0,13.9,0.7,18.8,2c9,2.5,16.8,7.7,23.3,15.5
			c4.7,5.6,8.3,12.2,10.8,19.7c2.5,7.5,3.8,15.4,3.8,23.7C309.9,237.4,308.9,244.5,306.8,251.2z"/>
		<path class="st4" d="M367,223.8c2.1-3.7,4.5-6.5,7.1-8.3c4.9-3.5,10.4-5.2,16.6-5.2c3.8,0,6.7,0.9,8.7,2.5
			c1.8,1.5,2.7,3.4,2.7,5.6c0,1.6-0.5,3-1.6,4c-1.1,1.1-2.5,1.6-4.2,1.6c-2,0-3.7-0.8-5.2-2.5l-2.7-3c-2.2-2.3-4.7-3.4-7.6-3.4
			c-4,0-7.1,2.6-9.3,7.7c-2.2,5.2-3.3,12.3-3.3,21.5v16.4l0.1,6.7c0,4,0.2,6.9,0.7,8.7c0.5,1.8,1.4,3.4,2.7,4.6
			c1.6,1.6,4.7,2.8,9.1,3.6v1.8h-38.9v-1.8c3.5-0.5,6-1.1,7.6-2c1.5-0.8,2.8-2.3,3.7-4.3c0.6-1.3,1.1-3.4,1.4-6.1
			c0.3-2.7,0.4-6.6,0.4-11.8v-21.6c0-6-0.1-10.2-0.4-12.6c-0.3-2.4-0.9-4.4-1.9-5.9c-1-1.6-2.2-2.8-3.6-3.5
			c-1.4-0.7-3.4-1.2-6.1-1.4v-1.8l22.7-3.2C366.5,215.5,367,220,367,223.8z"/>
		<path class="st4" d="M424.1,266.5c2.9,0,5.4,1,7.5,3.1c2.1,2.1,3.1,4.6,3.1,7.6c0,2.9-1,5.4-3.1,7.5c-2.1,2.1-4.6,3.1-7.5,3.1
			c-2.9,0-5.4-1-7.5-3.1c-2.1-2.1-3.1-4.6-3.1-7.5c0-3,1-5.5,3.1-7.6C418.7,267.6,421.2,266.5,424.1,266.5z"/>
	</g>
</g>
</svg>
