<?xml version="1.0" encoding="utf-8"?>
<!-- Generator: Adobe Illustrator 26.5.0, SVG Export Plug-In . SVG Version: 6.00 Build 0)  -->
<svg version="1.1" xmlns="http://www.w3.org/2000/svg" xmlns:xlink="http://www.w3.org/1999/xlink" x="0px" y="0px"
	 viewBox="0 0 166.9 26.5" style="enable-background:new 0 0 166.9 26.5;" xml:space="preserve">
<style type="text/css">
	.st0{display:none;}
	.st1{display:inline;fill:url(#SVGID_1_);}
	.st2{filter:url(#Adobe_OpacityMaskFilter);}
	.st3{fill:url(#SVGID_00000062175057332769025590000007632329275758736273_);}
	.st4{mask:url(#SVGID_00000101806897949185343210000010469733235176950665_);}
	.st5{fill:#471F61;}
	.st6{fill:#5D5D5D;}
</style>
<g id="Layer_5" class="st0">
	<linearGradient id="SVGID_1_" gradientUnits="userSpaceOnUse" x1="128.9786" y1="-32.9774" x2="128.9786" y2="135.5121">
		<stop  offset="0" style="stop-color:#E1D7E5"/>
		<stop  offset="0.4485" style="stop-color:#EEE8EF"/>
		<stop  offset="1" style="stop-color:#9E78AC"/>
	</linearGradient>
	<rect x="-15.2" y="-33.6" class="st1" width="288.4" height="170"/>
</g>
<g id="Layer_7">
	<defs>
		<filter id="Adobe_OpacityMaskFilter" filterUnits="userSpaceOnUse" x="1" y="1.3" width="165.2" height="24.9">
			<feFlood  style="flood-color:white;flood-opacity:1" result="back"/>
			<feBlend  in="SourceGraphic" in2="back" mode="normal"/>
		</filter>
	</defs>
	
		<mask maskUnits="userSpaceOnUse" x="1" y="1.3" width="165.2" height="24.9" id="SVGID_00000046328338212919472840000012209887546471649722_">
		<g class="st2">
			
				<linearGradient id="SVGID_00000142162763868759495420000010139027260680359827_" gradientUnits="userSpaceOnUse" x1="94.4382" y1="26.0912" x2="94.4382" y2="-3.682">
				<stop  offset="4.848480e-02" style="stop-color:#FFFFFF"/>
				<stop  offset="0.497" style="stop-color:#4F4F4F"/>
				<stop  offset="0.5818" style="stop-color:#999999"/>
				<stop  offset="0.8909" style="stop-color:#262626"/>
				<stop  offset="1" style="stop-color:#9E9E9E"/>
			</linearGradient>
			
				<rect x="-6.7" y="-4" style="fill:url(#SVGID_00000142162763868759495420000010139027260680359827_);" width="202.2" height="30.3"/>
		</g>
	</mask>
	<g style="mask:url(#SVGID_00000046328338212919472840000012209887546471649722_);">
		<g>
			<g>
				<path class="st5" d="M21.5,1.8l0.2,7.8h-0.4c-0.1-0.3-0.2-0.6-0.3-0.8c-0.4-1.1-0.7-1.9-1-2.5c-0.5-1-1.1-1.9-2-2.7
					c-0.6-0.6-1.3-1.1-2-1.3c-0.7-0.3-1.5-0.4-2.3-0.4c-1.3,0-2.4,0.3-3.4,0.9C9.4,3.2,8.7,3.9,7.9,4.8C7.2,5.8,6.6,6.8,6.1,8
					c-0.7,1.7-1,3.6-1,5.7c0,1.8,0.2,3.5,0.7,4.9c0.5,1.5,1.1,2.7,2,3.7c1.6,1.8,3.7,2.7,6.3,2.7c1.3,0,2.5-0.2,3.6-0.7
					c1.1-0.5,1.9-1.1,2.4-1.9c0.7-1,1.2-2.3,1.5-3.9l0.4,0.1c-0.2,1.8-0.7,3.3-1.5,4.4c-0.7,1-1.8,1.8-3.1,2.4
					c-1.3,0.5-2.8,0.8-4.5,0.8c-1.6,0-3.1-0.2-4.6-0.7c-2.3-0.8-4.1-2.1-5.4-4.1c-1.3-2-2-4.4-2-7.1c0-2.1,0.4-4.1,1.1-5.9
					C2.9,6.5,3.9,5.1,5.3,4c1.1-0.8,2.3-1.5,3.8-2c1.5-0.5,2.9-0.7,4.4-0.7c1.4,0,2.9,0.3,4.4,0.8l1.4,0.5c0.3,0.1,0.5,0.2,0.7,0.2
					c0.3,0,0.5-0.1,0.7-0.4c0.1-0.1,0.2-0.3,0.3-0.6H21.5z"/>
				<path class="st5" d="M38.4,23.9l0.3,0.2c-0.4,1.2-1.4,1.8-2.9,1.8c-0.8,0-1.5-0.2-2-0.6c-0.4-0.3-0.7-0.7-1.1-1.4
					c-0.8,0.7-1.4,1.2-1.8,1.4c-0.8,0.4-1.6,0.6-2.6,0.6c-1.3,0-2.3-0.3-3-0.9c-0.7-0.6-1.1-1.4-1.1-2.5c0-1,0.3-1.8,0.9-2.4
					c0.3-0.4,0.7-0.6,1.2-0.9c0.5-0.2,1.1-0.4,2-0.6c1-0.3,1.7-0.5,2.2-0.6c0.5-0.2,0.9-0.4,1.2-0.6c0.4-0.3,0.6-0.6,0.8-0.9
					s0.2-0.9,0.2-1.5c0-1.4-0.3-2.3-0.8-3c-0.2-0.3-0.5-0.5-0.9-0.7c-0.4-0.2-0.7-0.3-1.1-0.3c-0.5,0-0.9,0.1-1.3,0.4
					c-0.4,0.2-0.6,0.6-0.8,1l-0.4,1c-0.2,0.5-0.6,0.8-1.2,0.8c-0.4,0-0.7-0.1-1-0.4c-0.3-0.3-0.4-0.6-0.4-1c0-0.6,0.4-1.1,1.3-1.5
					c0.5-0.2,1-0.4,1.7-0.5c0.7-0.1,1.3-0.2,2-0.2c0.7,0,1.5,0.1,2.2,0.3c0.8,0.2,1.4,0.4,1.9,0.7c0.8,0.4,1.2,1,1.4,1.7
					c0.1,0.3,0.1,0.9,0.1,1.8v6.4c0,1.1,0,1.8,0.1,2.2c0.2,0.8,0.7,1.2,1.4,1.2c0.4,0,0.6-0.1,0.8-0.2S38.1,24.3,38.4,23.9z
					 M32.6,17c-0.6,0.5-1.3,1-2.1,1.4c-0.8,0.5-1.4,0.8-1.7,1c-0.3,0.2-0.6,0.5-0.9,0.8c-0.5,0.7-0.8,1.5-0.8,2.3
					c0,0.8,0.2,1.4,0.6,1.9s1,0.7,1.6,0.7c0.6,0,1.1-0.2,1.6-0.5c0.5-0.4,0.9-0.8,1.1-1.4c0.4-0.8,0.5-1.9,0.5-3.4V17z"/>
				<path class="st5" d="M43.6,10.6c0.2,0.7,0.2,1.3,0.2,1.9v0.3c1.4-1.4,3.1-2.2,5.1-2.2c1.5,0,2.7,0.3,3.6,1
					c0.9,0.7,1.3,1.7,1.3,2.9v7.3c0,0.8,0,1.4,0.1,1.7c0.1,0.4,0.3,0.7,0.5,0.9c0.3,0.3,0.9,0.5,1.8,0.7v0.4h-7.7v-0.4
					c0.7-0.1,1.2-0.2,1.5-0.4c0.3-0.2,0.5-0.5,0.7-0.9c0.1-0.3,0.2-0.7,0.3-1.2s0.1-1.3,0.1-2.3v-3.7c0-1.3,0-2.2-0.1-2.8
					c-0.1-0.6-0.3-1.1-0.5-1.4c-0.3-0.4-0.6-0.7-1.1-0.9c-0.5-0.2-1-0.3-1.6-0.3c-0.6,0-1.2,0.1-1.8,0.4c-0.6,0.3-1,0.6-1.3,1
					c-0.3,0.5-0.6,1-0.7,1.6s-0.2,1.5-0.2,2.9v3.4l0,1.3c0,0.8,0,1.4,0.1,1.7c0.1,0.4,0.3,0.7,0.5,0.9c0.3,0.3,0.9,0.5,1.8,0.7v0.4
					h-7.7v-0.4c0.7-0.1,1.2-0.2,1.5-0.4c0.3-0.2,0.5-0.5,0.7-0.9c0.1-0.3,0.2-0.7,0.3-1.2c0.1-0.5,0.1-1.3,0.1-2.3v-4.3
					c0-1.2,0-2-0.1-2.5c-0.1-0.5-0.2-0.9-0.4-1.2c-0.2-0.3-0.4-0.6-0.7-0.7s-0.7-0.2-1.2-0.3v-0.4L43.6,10.6z"/>
				<path class="st5" d="M61.7,10.8h4.4v0.7h-4.4v10.1c0,1.2,0.2,2.1,0.6,2.6c0.2,0.3,0.5,0.5,0.9,0.7c0.4,0.2,0.7,0.2,1.2,0.2
					c0.5,0,1-0.1,1.3-0.3s0.7-0.6,1.1-1.2l0.3,0.2c-0.4,0.7-0.9,1.2-1.6,1.5c-0.7,0.3-1.5,0.5-2.6,0.5c-1.4,0-2.4-0.3-3-0.8
					c-0.3-0.3-0.6-0.6-0.7-1S59,23,59,22V11.5h-1.9v-0.3c0.8-0.2,1.4-0.7,2.1-1.4c0.4-0.4,0.7-0.9,0.9-1.3c0.2-0.4,0.5-1,0.7-1.6
					L61,6.3h0.6V10.8z"/>
				<path class="st5" d="M81.2,23.9l0.3,0.2c-0.4,1.2-1.4,1.8-2.9,1.8c-0.8,0-1.5-0.2-2-0.6c-0.4-0.3-0.7-0.7-1.1-1.4
					c-0.8,0.7-1.4,1.2-1.8,1.4c-0.8,0.4-1.6,0.6-2.6,0.6c-1.3,0-2.3-0.3-3-0.9c-0.7-0.6-1.1-1.4-1.1-2.5c0-1,0.3-1.8,0.9-2.4
					c0.3-0.4,0.7-0.6,1.2-0.9c0.5-0.2,1.1-0.4,2-0.6c1-0.3,1.7-0.5,2.2-0.6c0.5-0.2,0.9-0.4,1.2-0.6c0.4-0.3,0.6-0.6,0.8-0.9
					s0.2-0.9,0.2-1.5c0-1.4-0.3-2.3-0.8-3c-0.2-0.3-0.5-0.5-0.9-0.7c-0.4-0.2-0.7-0.3-1.1-0.3c-0.5,0-0.9,0.1-1.3,0.4
					c-0.4,0.2-0.6,0.6-0.8,1l-0.4,1c-0.2,0.5-0.6,0.8-1.2,0.8c-0.4,0-0.7-0.1-1-0.4c-0.3-0.3-0.4-0.6-0.4-1c0-0.6,0.4-1.1,1.3-1.5
					c0.5-0.2,1-0.4,1.7-0.5c0.7-0.1,1.3-0.2,2-0.2c0.7,0,1.5,0.1,2.2,0.3c0.8,0.2,1.4,0.4,1.9,0.7c0.8,0.4,1.2,1,1.4,1.7
					c0.1,0.3,0.1,0.9,0.1,1.8v6.4c0,1.1,0,1.8,0.1,2.2c0.2,0.8,0.7,1.2,1.4,1.2c0.4,0,0.6-0.1,0.8-0.2S80.9,24.3,81.2,23.9z
					 M75.5,17c-0.6,0.5-1.3,1-2.1,1.4c-0.8,0.5-1.4,0.8-1.7,1c-0.3,0.2-0.6,0.5-0.9,0.8c-0.5,0.7-0.8,1.5-0.8,2.3
					c0,0.8,0.2,1.4,0.6,1.9s1,0.7,1.6,0.7c0.6,0,1.1-0.2,1.6-0.5c0.5-0.4,0.9-0.8,1.1-1.4c0.4-0.8,0.5-1.9,0.5-3.4V17z"/>
				<path class="st5" d="M86.5,10.6c0.2,0.8,0.3,1.6,0.4,2.4c0.7-0.8,1.5-1.4,2.5-1.8c0.9-0.4,1.9-0.6,2.8-0.6c1.1,0,2,0.3,2.7,0.8
					c0.4,0.3,0.9,0.9,1.5,1.8c0.9-0.9,1.8-1.5,2.7-2c0.9-0.4,1.8-0.6,2.9-0.6c1.4,0,2.5,0.4,3.4,1.1c0.9,0.8,1.3,1.7,1.3,3v5.9
					l0,1.3c0,0.8,0,1.4,0.1,1.7c0.1,0.4,0.3,0.7,0.5,0.9c0.3,0.3,0.9,0.5,1.8,0.7v0.4h-7.7v-0.4c0.7-0.1,1.2-0.2,1.5-0.4
					c0.3-0.2,0.5-0.5,0.7-0.9c0.1-0.3,0.2-0.7,0.3-1.2c0.1-0.5,0.1-1.3,0.1-2.3v-3.3c0-1.3,0-2.2-0.1-2.8c-0.1-0.6-0.2-1.1-0.5-1.5
					c-0.5-1-1.5-1.5-2.8-1.5c-1.4,0-2.5,0.5-3.1,1.6c-0.6,0.9-0.8,2.3-0.8,4.3v3.3l0,1.3c0,0.8,0,1.4,0.1,1.7
					c0.1,0.4,0.3,0.7,0.5,0.9c0.3,0.3,0.9,0.5,1.8,0.7v0.4h-7.7v-0.4c0.7-0.1,1.2-0.2,1.5-0.4c0.3-0.2,0.5-0.5,0.7-0.9
					c0.1-0.3,0.2-0.7,0.3-1.2c0.1-0.5,0.1-1.3,0.1-2.3v-3.2c0-1.4,0-2.3-0.1-3c-0.1-0.6-0.3-1.1-0.5-1.5c-0.3-0.4-0.6-0.7-1.1-1
					c-0.5-0.2-1-0.4-1.6-0.4c-0.7,0-1.3,0.2-1.9,0.5c-0.6,0.3-1,0.7-1.4,1.3c-0.3,0.5-0.5,1-0.7,1.7c-0.1,0.7-0.2,1.5-0.2,2.6v3.2
					l0,1.3c0,0.8,0,1.4,0.1,1.7c0.1,0.4,0.3,0.7,0.5,0.9c0.3,0.3,0.9,0.5,1.8,0.7v0.4h-7.7v-0.4c0.7-0.1,1.2-0.2,1.5-0.4
					c0.3-0.2,0.5-0.5,0.7-0.9c0.1-0.3,0.2-0.7,0.3-1.2c0.1-0.5,0.1-1.3,0.1-2.3v-4.3c0-1.2,0-2-0.1-2.5c-0.1-0.5-0.2-0.9-0.4-1.2
					c-0.2-0.3-0.4-0.6-0.7-0.7c-0.3-0.1-0.7-0.2-1.2-0.3v-0.4L86.5,10.6z"/>
				<path class="st5" d="M113.6,16.1c0,0.6-0.1,1-0.1,1.2c0,1,0.1,2,0.4,2.9c0.3,1,0.7,1.8,1.2,2.4c0.5,0.6,1.2,1.2,1.9,1.5
					c0.8,0.4,1.6,0.6,2.4,0.6c0.6,0,1.2-0.1,1.8-0.3s1-0.5,1.4-0.9c0.4-0.4,0.8-1.1,1.1-1.9l0.4,0.1c-0.3,1.4-0.9,2.4-1.9,3.1
					c-1,0.7-2.3,1-3.9,1c-1.4,0-2.6-0.2-3.7-0.7c-1-0.5-1.9-1.1-2.6-2.1c-1-1.3-1.5-2.9-1.5-4.8c0-2.6,0.9-4.6,2.8-6.1
					c1.4-1.1,2.9-1.6,4.6-1.6c0.9,0,1.8,0.2,2.6,0.5c0.8,0.3,1.5,0.8,2,1.4c0.8,1,1.3,2.2,1.3,3.6H113.6z M121.2,15.4
					c-0.1-1.2-0.3-2-0.6-2.7c-0.3-0.6-0.7-1-1.2-1.3c-0.5-0.3-1.1-0.5-1.7-0.5c-1,0-1.9,0.4-2.6,1.3c-0.7,0.9-1.2,1.9-1.3,3.2H121.2
					z"/>
				<path class="st5" d="M127.1,25.6v-4.9h0.3c0.3,1.2,0.7,2.2,1.2,2.9c0.9,1.3,1.9,2,3.1,2c0.7,0,1.4-0.2,1.9-0.7
					c0.6-0.5,0.9-1.2,0.9-2.1c0-0.7-0.2-1.4-0.6-1.9c-0.2-0.3-0.5-0.6-0.9-0.8c-0.4-0.2-0.9-0.6-1.8-1c-1.5-0.8-2.4-1.4-2.9-1.9
					c-0.7-0.7-1-1.6-1-2.6c0-1,0.3-1.9,1-2.7c0.8-0.9,1.9-1.3,3.2-1.3c0.6,0,1.1,0.1,1.6,0.3l0.6,0.3c0.2,0.1,0.3,0.1,0.5,0.1
					c0.2,0,0.4-0.2,0.6-0.5h0.3l0.2,3.9H135c-0.1-0.6-0.3-1-0.4-1.3c-0.1-0.3-0.3-0.7-0.6-1c-0.4-0.4-0.8-0.8-1.2-1
					c-0.5-0.2-0.9-0.4-1.4-0.4c-0.6,0-1.2,0.2-1.7,0.7s-0.7,1-0.7,1.7c0,0.6,0.2,1.1,0.6,1.5c0.4,0.5,1,0.9,1.9,1.3l1.8,0.8
					c1.1,0.5,1.9,1.1,2.5,1.9c0.5,0.7,0.8,1.6,0.8,2.6c0,1.2-0.4,2.2-1.2,3c-0.9,0.9-2.1,1.4-3.5,1.4c-0.8,0-1.5-0.2-2.3-0.5
					c-0.5-0.2-0.8-0.3-0.9-0.3c-0.1,0-0.2,0-0.4,0c-0.4,0-0.7,0.2-0.9,0.5H127.1z"/>
				<path class="st5" d="M139.7,25.6v-4.9h0.3c0.3,1.2,0.7,2.2,1.2,2.9c0.9,1.3,1.9,2,3.1,2c0.7,0,1.4-0.2,1.9-0.7
					c0.6-0.5,0.9-1.2,0.9-2.1c0-0.7-0.2-1.4-0.6-1.9c-0.2-0.3-0.5-0.6-0.9-0.8c-0.4-0.2-0.9-0.6-1.8-1c-1.5-0.8-2.4-1.4-2.9-1.9
					c-0.7-0.7-1-1.6-1-2.6c0-1,0.3-1.9,1-2.7c0.8-0.9,1.9-1.3,3.2-1.3c0.6,0,1.1,0.1,1.6,0.3l0.6,0.3c0.2,0.1,0.3,0.1,0.5,0.1
					c0.2,0,0.4-0.2,0.6-0.5h0.3l0.2,3.9h-0.4c-0.1-0.6-0.3-1-0.4-1.3c-0.1-0.3-0.3-0.7-0.6-1c-0.4-0.4-0.8-0.8-1.2-1
					c-0.5-0.2-0.9-0.4-1.4-0.4c-0.6,0-1.2,0.2-1.7,0.7s-0.7,1-0.7,1.7c0,0.6,0.2,1.1,0.6,1.5c0.4,0.5,1,0.9,1.9,1.3l1.8,0.8
					c1.1,0.5,1.9,1.1,2.5,1.9c0.5,0.7,0.8,1.6,0.8,2.6c0,1.2-0.4,2.2-1.2,3c-0.9,0.9-2.1,1.4-3.5,1.4c-0.8,0-1.5-0.2-2.3-0.5
					c-0.5-0.2-0.8-0.3-0.9-0.3c-0.1,0-0.2,0-0.4,0c-0.4,0-0.7,0.2-0.9,0.5H139.7z"/>
				<path class="st5" d="M165.9,23.9l0.3,0.2c-0.4,1.2-1.4,1.8-2.9,1.8c-0.8,0-1.5-0.2-2-0.6c-0.4-0.3-0.7-0.7-1.1-1.4
					c-0.8,0.7-1.4,1.2-1.8,1.4c-0.8,0.4-1.6,0.6-2.6,0.6c-1.3,0-2.3-0.3-3-0.9c-0.7-0.6-1.1-1.4-1.1-2.5c0-1,0.3-1.8,0.9-2.4
					c0.3-0.4,0.7-0.6,1.2-0.9c0.5-0.2,1.1-0.4,2-0.6c1-0.3,1.7-0.5,2.2-0.6c0.5-0.2,0.9-0.4,1.2-0.6c0.4-0.3,0.6-0.6,0.8-0.9
					s0.2-0.9,0.2-1.5c0-1.4-0.3-2.3-0.8-3c-0.2-0.3-0.5-0.5-0.9-0.7c-0.4-0.2-0.7-0.3-1.1-0.3c-0.5,0-0.9,0.1-1.3,0.4
					c-0.4,0.2-0.6,0.6-0.8,1l-0.4,1c-0.2,0.5-0.6,0.8-1.2,0.8c-0.4,0-0.7-0.1-1-0.4c-0.3-0.3-0.4-0.6-0.4-1c0-0.6,0.4-1.1,1.2-1.5
					c0.5-0.2,1-0.4,1.7-0.5c0.7-0.1,1.3-0.2,2-0.2c0.7,0,1.5,0.1,2.2,0.3c0.8,0.2,1.4,0.4,1.9,0.7c0.8,0.4,1.2,1,1.4,1.7
					c0.1,0.3,0.1,0.9,0.1,1.8v6.4c0,1.1,0,1.8,0.1,2.2c0.2,0.8,0.7,1.2,1.4,1.2c0.4,0,0.6-0.1,0.8-0.2
					C165.4,24.5,165.6,24.3,165.9,23.9z M160.2,17c-0.6,0.5-1.3,1-2.1,1.4c-0.8,0.5-1.4,0.8-1.7,1c-0.3,0.2-0.6,0.5-0.9,0.8
					c-0.5,0.7-0.8,1.5-0.8,2.3c0,0.8,0.2,1.4,0.6,1.9c0.4,0.5,1,0.7,1.6,0.7c0.6,0,1.1-0.2,1.6-0.5s0.9-0.8,1.1-1.4
					c0.4-0.8,0.5-1.9,0.5-3.4V17z"/>
			</g>
		</g>
		<g>
			<path class="st6" d="M24.3,8.2c0.2,0,0.3,0,0.4-0.1c0.1,0,0.2-0.1,0.3-0.2c0.1-0.1,0.2-0.2,0.2-0.4c0-0.2,0.1-0.4,0.1-0.7V3.2
				c0-0.4,0-0.6-0.1-0.8c0-0.2-0.1-0.3-0.3-0.4c-0.2-0.1-0.4-0.2-0.7-0.2V1.7H27c0.6,0,1,0,1.1,0c0.7,0.1,1.3,0.2,1.7,0.6
				c0.4,0.3,0.8,0.7,1,1.2c0.3,0.5,0.4,1.1,0.4,1.7c0,0.4-0.1,0.9-0.2,1.3c-0.1,0.4-0.3,0.7-0.6,1c-0.4,0.4-0.8,0.6-1.3,0.7
				c-0.4,0.1-0.8,0.1-1.2,0.1h-3.6V8.2z M26.4,1.9v4.8c0,0.3,0,0.6,0.1,0.7c0,0.2,0.1,0.3,0.2,0.4c0.2,0.3,0.5,0.4,1,0.4
				c0.4,0,0.7-0.1,1-0.2c0.3-0.1,0.5-0.3,0.8-0.6c0.2-0.3,0.4-0.6,0.5-1C30,6,30.1,5.6,30.1,5.2c0-0.5-0.1-0.9-0.2-1.3
				c-0.1-0.4-0.3-0.8-0.6-1.1C28.9,2.4,28.5,2.1,28,2c-0.3-0.1-0.6-0.1-1-0.1H26.4z"/>
			<path class="st6" d="M33.2,4.9c0.1-0.2,0.2-0.4,0.4-0.5c0.3-0.2,0.6-0.3,0.9-0.3c0.2,0,0.4,0,0.5,0.1c0.1,0.1,0.1,0.2,0.1,0.3
				c0,0.1,0,0.2-0.1,0.2c-0.1,0.1-0.1,0.1-0.2,0.1c-0.1,0-0.2,0-0.3-0.1l-0.1-0.2c-0.1-0.1-0.3-0.2-0.4-0.2c-0.2,0-0.4,0.1-0.5,0.4
				c-0.1,0.3-0.2,0.7-0.2,1.2v0.9l0,0.4c0,0.2,0,0.4,0,0.5c0,0.1,0.1,0.2,0.1,0.3c0.1,0.1,0.3,0.2,0.5,0.2v0.1h-2.1V8.2
				c0.2,0,0.3-0.1,0.4-0.1s0.2-0.1,0.2-0.2c0-0.1,0.1-0.2,0.1-0.3c0-0.1,0-0.4,0-0.6V5.7c0-0.3,0-0.6,0-0.7c0-0.1-0.1-0.2-0.1-0.3
				c-0.1-0.1-0.1-0.2-0.2-0.2c-0.1,0-0.2-0.1-0.3-0.1V4.3l1.2-0.2C33.2,4.4,33.2,4.7,33.2,4.9z"/>
			<path class="st6" d="M36.3,7.2c0.2,0,0.3,0.1,0.4,0.2c0.1,0.1,0.2,0.3,0.2,0.4c0,0.2-0.1,0.3-0.2,0.4c-0.1,0.1-0.3,0.2-0.4,0.2
				S36,8.3,35.9,8.2c-0.1-0.1-0.2-0.3-0.2-0.4c0-0.2,0.1-0.3,0.2-0.4C36,7.3,36.2,7.2,36.3,7.2z"/>
		</g>
	</g>
</g>
</svg>
