<?xml version="1.0" encoding="utf-8"?>
<!-- Generator: Adobe Illustrator 26.5.0, SVG Export Plug-In . SVG Version: 6.00 Build 0)  -->
<svg version="1.1" xmlns="http://www.w3.org/2000/svg" xmlns:xlink="http://www.w3.org/1999/xlink" x="0px" y="0px"
	 viewBox="0 0 437 512" style="enable-background:new 0 0 437 512;" xml:space="preserve">
<style type="text/css">
	.st0{filter:url(#Adobe_OpacityMaskFilter);}
	.st1{fill:url(#SVGID_00000126304816472042493550000003868744436380637114_);}
	.st2{mask:url(#SVGID_1_);}
	.st3{fill:#460063;}
	.st4{fill:#5C5C5C;}
</style>
<g id="Layer_2">
</g>
<g id="Layer_1">
	<defs>
		<filter id="Adobe_OpacityMaskFilter" filterUnits="userSpaceOnUse" x="6.5" y="5.9" width="424.1" height="498.1">
			<feFlood  style="flood-color:white;flood-opacity:1" result="back"/>
			<feBlend  in="SourceGraphic" in2="back" mode="normal"/>
		</filter>
	</defs>
	<mask maskUnits="userSpaceOnUse" x="6.5" y="5.9" width="424.1" height="498.1" id="SVGID_1_">
		<g class="st0">
			
				<linearGradient id="SVGID_00000121275638309324332310000010884068359415636356_" gradientUnits="userSpaceOnUse" x1="1879.184" y1="503.0161" x2="1879.184" y2="-93.4197">
				<stop  offset="4.848480e-02" style="stop-color:#FFFFFF"/>
				<stop  offset="0.497" style="stop-color:#4F4F4F"/>
				<stop  offset="0.5818" style="stop-color:#999999"/>
				<stop  offset="0.8909" style="stop-color:#262626"/>
				<stop  offset="1" style="stop-color:#9E9E9E"/>
			</linearGradient>
			
				<rect x="-146.3" y="-100.7" style="fill:url(#SVGID_00000121275638309324332310000010884068359415636356_);" width="4050.9" height="607.4"/>
		</g>
	</mask>
	<g class="st2">
		<g>
			<g>
				<path class="st3" d="M417.4,15.6l4.2,155.3h-8c-2.6-6.7-4.5-11.8-5.9-15.3c-8.1-22.2-14.7-38.8-19.8-49.7
					c-9-19.5-22.1-37.3-39.3-53.5c-13-12.3-26.4-21.2-40.3-26.7c-13.9-5.6-29.5-8.3-46.9-8.3c-26.2,0-48.9,5.7-68.1,17
					c-16.9,10-32.7,24.3-47.2,42.9c-14.6,18.6-26.5,39.9-35.8,63.7c-13.2,33.6-19.8,71.8-19.8,114.6c0,36.4,4.5,69.1,13.5,98.3
					c9,29.2,22.2,53.6,39.6,73.3c32,36.6,74.3,54.9,127.1,54.9c26.4,0,50.1-4.6,71.2-13.7c21.1-9.1,37.4-22.1,49-38.7
					c13.4-19.2,23.2-45.2,29.2-77.8l8,1.4c-4.4,36.6-14.4,65.6-29.9,87.2c-14.8,20.6-35.3,36.4-61.3,47.2
					C311,498.6,280.8,504,246.5,504c-32,0-62.5-4.7-91.7-14.2c-46.5-15.3-82.9-42.9-109.1-82.8C19.6,367,6.5,319.3,6.5,264
					c0-42.4,7.6-81.5,22.9-117.2C44.7,111,66,82.2,93.4,60.4c21.1-16.7,46.3-29.9,75.5-39.8c29.3-9.8,58.6-14.8,88.1-14.8
					c28,0,57.7,5.3,88.9,16l28.5,9.4c5.6,2.1,10.4,3.1,14.6,3.1c5.8,0,10.5-2.4,14.2-7.3c1.6-2.3,3.6-6.1,5.9-11.5H417.4z"/>
			</g>
		</g>
		<g>
			<path class="st4" d="M178.3,287.1c3.7-0.2,6.7-0.7,9-1.5c2.3-0.8,4.3-2.2,6.1-4.1c2-2.1,3.4-4.7,4.1-7.9
				c0.7-3.2,1.1-8.1,1.1-14.6v-71.1c0-7.1-0.4-12.3-1.3-15.5c-0.9-3.3-2.6-6-5.1-8.1c-3.2-2.6-7.8-4.1-13.9-4.4v-2.2h53.1
				c11.8,0,19.3,0.1,22.5,0.4c13.6,1,25.1,4.9,34.5,11.6c9,6.4,16,14.7,21,25c5,10.3,7.5,21.6,7.5,33.7c0,8.9-1.4,17.3-4.3,25.1
				c-2.9,7.9-6.8,14.4-11.9,19.6c-7.1,7.3-16,12-26.7,14c-8,1.5-16.1,2.2-24.4,2.2h-71.3V287.1z M219.6,160.6v95.9
				c0,6.3,0.4,11.1,1.1,14.4c0.7,3.3,2,6.1,4,8.4c4.1,5,10.8,7.5,20.1,7.5c7.9,0,14.7-1.3,20.3-3.9c5.6-2.6,10.7-6.8,15.1-12.7
				c4.4-5.7,7.7-12.1,10-19.4c2.3-7.3,3.4-15.1,3.4-23.3c0-9.1-1.4-17.8-4.1-26.1c-2.8-8.2-6.7-15.4-11.9-21.6
				c-7.1-8.6-15.7-14.2-25.6-17c-5.4-1.5-12.3-2.2-20.6-2.2H219.6z"/>
			<path class="st4" d="M356.3,220.7c2.3-4.1,4.9-7.1,7.8-9.2c5.3-3.8,11.4-5.7,18.2-5.7c4.2,0,7.4,0.9,9.6,2.8c2,1.7,3,3.7,3,6.2
				c0,1.8-0.6,3.3-1.8,4.4c-1.2,1.2-2.7,1.7-4.6,1.7c-2.2,0-4.1-0.9-5.7-2.7l-3-3.3c-2.4-2.5-5.2-3.8-8.4-3.8
				c-4.4,0-7.8,2.8-10.2,8.5c-2.4,5.7-3.7,13.5-3.7,23.6v18l0.1,7.3c0,4.4,0.3,7.6,0.8,9.6c0.5,2,1.5,3.7,3,5.1
				c1.8,1.7,5.1,3.1,9.9,4v2h-42.6v-2c3.9-0.5,6.6-1.2,8.3-2.2c1.7-0.9,3-2.5,4.1-4.8c0.7-1.5,1.2-3.7,1.5-6.7
				c0.3-3,0.4-7.3,0.4-12.9v-23.7c0-6.6-0.2-11.2-0.5-13.9c-0.3-2.7-1-4.8-2.1-6.5c-1.1-1.8-2.4-3.1-4-3.9c-1.5-0.8-3.8-1.3-6.7-1.5
				v-2l24.9-3.5C355.7,211.7,356.3,216.6,356.3,220.7z"/>
			<path class="st4" d="M418.9,267.6c3.2,0,6,1.1,8.2,3.4c2.3,2.3,3.4,5.1,3.4,8.3c0,3.2-1.1,6-3.4,8.2c-2.3,2.3-5,3.4-8.2,3.4
				c-3.2,0-6-1.1-8.2-3.4c-2.3-2.3-3.4-5-3.4-8.2c0-3.3,1.1-6.1,3.4-8.3C412.9,268.8,415.7,267.6,418.9,267.6z"/>
		</g>
	</g>
</g>
</svg>
