<?xml version="1.0" standalone="no"?>
<!DOCTYPE svg PUBLIC "-//W3C//DTD SVG 20010904//EN"
 "http://www.w3.org/TR/2001/REC-SVG-20010904/DTD/svg10.dtd">
<svg version="1.0" xmlns="http://www.w3.org/2000/svg"
 width="512.000000pt" height="512.000000pt" viewBox="0 0 512.000000 512.000000"
 preserveAspectRatio="xMidYMid meet">
<metadata>
Created by potrace 1.14, written by Peter Selinger 2001-2017
</metadata>
<g transform="translate(0.000000,512.000000) scale(0.100000,-0.100000)"
fill="#000000" stroke="none">
<path d="M2591 4833 c-1 -7 -16 -10 -41 -8 -22 2 -40 0 -40 -4 0 -4 -21 -7
-47 -7 -33 1 -47 -3 -50 -14 -4 -13 -3 -13 7 0 10 13 11 13 7 0 -2 -8 -9 -15
-14 -15 -19 0 -25 -12 -9 -18 10 -4 21 3 32 21 8 15 13 19 10 10 -3 -10 -2
-17 2 -16 4 1 18 -4 31 -11 13 -7 21 -9 18 -4 -10 15 17 38 48 40 22 2 26 0
15 -7 -13 -9 -13 -10 0 -11 8 -1 18 -1 23 0 4 0 7 -4 7 -10 0 -5 5 -7 11 -3 8
5 8 9 -1 14 -9 5 -9 9 -1 14 6 4 11 2 11 -5 0 -7 6 -4 14 6 12 17 16 18 32 5
14 -12 16 -12 9 -1 -5 10 -4 12 4 7 6 -4 9 -12 6 -17 -4 -5 -1 -9 5 -9 7 0 10
7 6 18 -5 14 -4 14 9 -2 10 -13 15 -15 15 -6 0 9 5 8 16 -6 8 -10 12 -12 8 -4
-5 11 -1 10 13 -3 21 -18 21 -18 28 2 7 22 43 47 53 36 3 -3 -4 -8 -16 -12
-12 -3 -22 -9 -22 -14 0 -12 17 -11 25 1 5 8 11 7 20 0 11 -9 12 -16 2 -31
-10 -16 -13 -16 -20 -4 -4 8 -13 15 -19 15 -6 0 -5 -7 3 -17 12 -14 12 -16 0
-8 -10 6 -12 4 -6 -5 5 -9 4 -11 -4 -6 -6 4 -9 12 -6 17 4 5 1 9 -4 9 -6 0
-11 -6 -11 -12 0 -9 -4 -8 -10 2 -9 13 -10 13 -10 0 0 -12 -2 -12 -9 -1 -5 7
-11 9 -14 4 -3 -5 -2 -15 2 -22 6 -9 11 -10 15 -2 4 7 15 7 31 1 14 -5 27 -5
30 -1 6 11 24 9 44 -3 8 -5 17 -3 22 5 8 12 11 12 19 -1 6 -10 10 -11 10 -2 0
22 -4 27 -20 24 -13 -2 -13 -2 0 8 12 9 11 10 -5 6 -17 -5 -21 -1 -21 18 0 17
5 23 17 21 10 -2 22 2 28 8 7 9 -25 12 -132 12 -78 0 -147 -4 -154 -8 -6 -4
-14 -1 -16 5 -4 9 -6 9 -6 1z m186 -23 c-6 -8 -12 -16 -13 -18 -1 -2 -13 4
-26 12 -14 9 -27 14 -30 10 -3 -3 -8 -1 -11 3 -3 5 16 9 43 9 42 0 47 -2 37
-16z m70 5 c0 -8 -4 -12 -9 -9 -5 3 -6 10 -3 15 9 13 12 11 12 -6z m-247 0 c0
-2 -6 -8 -13 -14 -10 -8 -14 -7 -14 2 0 8 6 14 14 14 7 0 13 -1 13 -2z m-109
-15 c9 13 10 13 6 0 -2 -8 -10 -15 -17 -15 -7 0 -15 7 -17 15 -4 13 -3 13 6 0
10 -13 12 -13 22 0z m371 -44 c7 4 8 2 4 -5 -9 -13 -26 -5 -25 12 0 9 2 8 6
-1 2 -6 10 -9 15 -6z"/>
<path d="M2746 4808 c3 -5 10 -6 15 -3 13 9 11 12 -6 12 -8 0 -12 -4 -9 -9z"/>
<path d="M2911 4817 c-7 -7 -16 -10 -51 -16 -3 -1 5 -7 16 -14 12 -6 30 -17
41 -24 16 -10 20 -9 20 2 0 7 -7 11 -16 8 -12 -3 -11 -2 2 7 9 6 15 15 12 20
-3 5 0 12 6 16 8 5 9 3 4 -5 -6 -11 -3 -11 16 -1 l23 13 -18 -28 c-10 -15 -12
-24 -5 -20 8 6 10 4 4 -6 -7 -11 -6 -12 7 -2 8 7 18 10 21 6 4 -3 13 -1 20 5
8 7 17 9 21 5 4 -4 4 1 1 12 -5 15 -4 16 3 6 8 -11 10 -11 15 0 4 11 6 11 6
-1 1 -13 2 -13 11 0 5 8 12 11 17 7 8 -9 -17 -28 -28 -21 -4 2 -7 -5 -6 -16 2
-25 4 -25 28 3 12 14 18 16 17 7 -2 -9 3 -13 12 -11 8 2 20 4 27 4 7 0 10 3 8
7 -2 3 7 6 20 6 13 0 23 -2 23 -5 -2 -28 3 -34 15 -18 15 20 42 17 62 -9 13
-16 14 -16 9 -1 -3 9 -1 17 4 17 6 0 9 -9 7 -19 -2 -11 3 -25 12 -32 12 -11
14 -10 11 2 -1 7 2 14 7 14 6 0 9 -4 7 -8 -1 -4 7 -3 18 3 14 7 26 7 39 1 10
-6 21 -7 25 -4 3 3 6 1 6 -6 0 -8 -6 -11 -16 -7 -9 3 -12 2 -9 -5 4 -6 14 -7
24 -4 36 15 50 14 44 -2 -4 -10 -2 -14 5 -9 6 3 14 1 17 -4 5 -7 12 -5 21 7
13 16 14 15 9 -13 -3 -21 0 -36 10 -44 15 -12 22 0 8 14 -13 13 -11 35 3 40
11 4 12 1 5 -13 -10 -18 -6 -31 10 -31 4 0 6 9 4 19 -2 13 2 18 13 16 9 -1 16
-9 14 -18 -3 -16 13 -17 38 -2 12 7 13 6 3 -7 -7 -8 -10 -18 -6 -21 3 -4 12 1
20 11 12 16 13 16 7 -3 -5 -19 -5 -19 6 -2 14 23 9 30 -24 30 -16 0 -23 4 -19
11 3 6 3 8 -2 4 -4 -4 -13 -3 -20 2 -6 5 -22 12 -36 14 -13 3 -25 5 -26 7 -2
1 -7 3 -13 4 -5 1 -11 3 -12 4 -2 2 -14 4 -27 7 -14 2 -30 9 -36 14 -7 5 -15
7 -18 3 -4 -3 -13 -1 -20 5 -8 7 -17 9 -20 5 -4 -3 -13 0 -22 7 -10 8 -15 9
-15 1 0 -6 5 -11 12 -11 6 0 8 -3 4 -7 -4 -5 -14 1 -22 11 -8 11 -14 14 -14 8
0 -7 -4 -12 -10 -12 -5 0 -9 6 -7 13 1 6 -5 12 -13 13 -8 0 -23 4 -32 9 -10 4
-25 5 -33 2 -8 -4 -17 -2 -20 3 -3 5 -14 7 -25 5 -11 -2 -20 -1 -20 4 0 7 -27
11 -97 13 -28 1 -40 5 -36 12 4 6 -1 5 -10 -3 -9 -7 -17 -9 -17 -3 0 12 -67
11 -79 -1z m9 -17 c-12 -23 -16 -24 -26 -8 -4 6 -3 8 3 5 6 -4 13 0 17 8 3 8
8 15 11 15 3 0 1 -9 -5 -20z m90 -5 c-8 -14 -39 -13 -33 1 2 7 12 11 21 10 9
-2 15 -7 12 -11z m120 -6 c0 -4 -6 -9 -13 -12 -8 -3 -14 0 -14 7 0 7 6 13 14
13 7 0 13 -4 13 -8z"/>
<path d="M2376 4801 c-3 -5 -21 -8 -40 -6 -26 1 -33 -2 -29 -13 5 -12 3 -12
-15 -1 -16 10 -24 10 -35 1 -8 -7 -22 -10 -31 -6 -11 4 -16 1 -16 -10 0 -9 5
-16 11 -16 5 0 7 5 3 11 -5 8 -1 8 14 0 27 -15 35 -14 29 2 -3 8 1 14 8 14 7
0 11 -7 8 -16 -3 -10 -1 -12 4 -6 8 10 16 12 56 20 9 2 21 6 27 10 5 3 7 -4 5
-15 -2 -11 0 -20 4 -20 4 0 7 -15 7 -34 0 -19 -4 -32 -8 -30 -3 2 -10 0 -13
-6 -5 -8 -11 -8 -20 0 -9 8 -14 6 -19 -5 -3 -9 -11 -13 -17 -9 -9 5 -6 11 6
21 23 16 12 17 -17 2 -15 -8 -19 -8 -14 0 4 6 4 11 -1 11 -12 0 -35 -16 -36
-26 -1 -5 -5 -8 -9 -6 -5 1 -8 -2 -8 -8 0 -14 23 -13 38 2 9 9 15 9 23 1 8 -8
6 -11 -7 -10 -11 1 -18 -4 -16 -12 2 -9 -3 -11 -15 -6 -30 11 -35 11 -41 -4
-3 -9 0 -11 8 -6 8 5 11 4 6 -3 -4 -6 -14 -9 -24 -6 -13 5 -14 4 -4 -4 11 -7
11 -10 -3 -15 -9 -4 -13 -3 -10 3 12 19 -7 10 -24 -11 -14 -18 -21 -20 -39
-10 -29 15 -37 14 -22 -4 7 -8 16 -12 21 -9 5 3 9 0 9 -5 0 -16 -16 -13 -30 4
-7 8 -16 12 -21 9 -11 -6 -12 -24 -1 -23 27 5 35 -2 17 -15 -11 -8 -26 -11
-34 -8 -10 4 -12 1 -6 -8 5 -9 4 -11 -3 -6 -7 4 -12 2 -12 -4 0 -10 30 -10 40
0 20 20 87 64 139 90 34 17 59 35 56 40 -3 5 3 9 12 8 25 0 52 7 96 26 20 8
37 12 37 9 0 -3 6 0 13 6 8 6 17 8 20 4 4 -3 7 -2 7 3 0 5 12 10 28 10 15 1
38 5 52 9 14 4 37 8 52 8 14 1 25 4 23 7 -2 3 20 5 48 5 29 0 52 5 52 10 0 6
4 15 8 22 9 14 -2 21 -28 17 -11 -1 -27 4 -37 13 -16 14 -19 14 -37 -8 -11
-13 -20 -28 -21 -34 0 -5 5 -3 11 5 9 13 10 13 6 0 -2 -8 -14 -14 -25 -14 -12
1 -22 -3 -22 -7 0 -5 -4 -9 -8 -9 -5 0 -9 6 -9 14 0 8 8 13 19 11 21 -4 25 10
4 18 -7 3 -19 0 -25 -6 -6 -6 -11 -7 -11 -1 0 5 -4 3 -9 -4 -7 -11 -9 -11 -14
1 -4 11 0 15 14 12 19 -4 25 5 13 18 -12 11 -43 -13 -38 -28 8 -19 -6 -19 -31
-1 -15 11 -24 12 -40 3 -11 -6 -25 -12 -32 -13 -15 -3 -25 23 -13 31 6 4 10
10 10 16 0 12 -17 12 -24 0z m314 -43 c0 6 7 13 16 16 13 5 14 4 6 -7 -7 -8
-10 -16 -7 -18 2 -3 -13 -5 -35 -5 -21 0 -37 3 -34 7 2 4 0 11 -6 14 -8 5 -7
12 2 22 11 13 15 12 35 -11 13 -15 23 -23 23 -18z m-200 -17 c3 -2 -3 -1 -12
2 -22 8 -33 -9 -12 -17 9 -4 23 -1 31 6 22 18 50 20 50 3 0 -8 -4 -12 -9 -9
-4 3 -14 2 -20 -3 -20 -12 -68 -11 -68 1 -1 6 -7 0 -15 -14 -9 -15 -14 -19
-15 -10 0 13 -1 13 -10 0 -5 -8 -13 -11 -17 -6 -4 5 -2 11 5 13 10 4 10 8 1
19 -6 8 -9 14 -5 14 14 0 22 3 40 16 19 13 27 11 56 -15z"/>
<path d="M2636 4782 c-7 -12 22 -38 31 -28 4 3 0 14 -9 22 -9 10 -18 12 -22 6z"/>
<path d="M2436 4744 c-9 -8 -21 -12 -28 -8 -9 5 -8 2 1 -9 8 -10 14 -16 15
-15 1 2 10 13 20 26 22 25 16 30 -8 6z"/>
<path d="M2816 4791 c-4 -5 -2 -12 3 -15 5 -4 12 -2 15 3 4 5 2 12 -3 15 -5 4
-12 2 -15 -3z"/>
<path d="M3013 4765 c-4 -12 -9 -13 -18 -5 -10 8 -15 8 -20 0 -5 -8 -11 -8
-21 1 -12 10 -13 9 -8 -6 6 -14 3 -16 -14 -10 -13 4 -22 2 -22 -4 0 -6 12 -11
28 -11 29 1 80 -5 122 -15 60 -14 69 -15 76 -4 4 7 -1 18 -12 26 -18 13 -17
14 11 9 16 -3 35 -13 41 -21 7 -9 14 -12 16 -8 3 4 3 2 2 -4 -2 -7 2 -13 7
-13 6 0 9 9 6 20 -3 13 -1 18 5 13 7 -4 8 -1 3 7 -6 9 -4 11 5 5 9 -6 11 -4 5
4 -6 10 -3 11 14 2 25 -14 27 -19 5 -17 -9 0 -19 -6 -22 -14 -4 -12 -2 -13 9
-3 11 9 20 8 39 -2 14 -8 19 -14 12 -15 -7 0 -10 -4 -7 -10 4 -6 18 -4 37 6
18 9 27 11 23 4 -5 -9 -1 -10 16 -5 15 4 19 3 11 -3 -9 -6 -6 -12 13 -20 31
-14 38 -15 30 -3 -3 5 0 13 6 17 8 5 9 3 4 -6 -6 -10 -4 -12 10 -6 12 4 22 0
32 -14 8 -11 18 -18 23 -15 5 3 12 0 16 -6 4 -7 3 -9 -4 -5 -6 3 -13 2 -16 -3
-3 -5 1 -11 9 -15 8 -3 15 0 15 7 0 8 4 6 10 -3 5 -8 10 -10 10 -4 0 6 -7 17
-15 24 -9 7 -14 19 -11 27 3 8 2 11 -3 8 -5 -3 -12 -1 -16 5 -4 6 -10 8 -15 5
-5 -3 -13 3 -19 12 -7 13 -10 14 -11 4 0 -8 -3 -11 -6 -8 -4 3 -16 2 -27 -4
-14 -8 -18 -8 -13 0 4 6 -3 15 -16 20 -13 6 -17 10 -9 10 8 1 12 4 9 7 -4 3
-20 -1 -36 -10 -29 -15 -31 -14 -56 11 -14 14 -26 29 -26 33 0 13 -35 7 -46
-8 -10 -14 -13 -13 -23 7 -10 18 -15 20 -27 10 -8 -6 -14 -8 -14 -5 0 4 -10 2
-21 -5 -17 -9 -23 -8 -30 2 -7 12 -9 11 -10 -1 -1 -8 -1 -18 0 -22 0 -5 -3 -8
-8 -8 -12 0 -32 26 -25 32 2 3 -2 8 -11 12 -9 3 -18 -1 -22 -9z m32 -24 c12
-15 14 -21 5 -15 -8 5 -27 9 -42 10 -39 2 -40 3 -33 14 5 8 11 7 21 -1 11 -9
15 -8 20 5 4 9 7 16 8 14 1 -2 10 -14 21 -27z m136 2 c13 -17 13 -17 -6 -3
-11 8 -22 16 -24 17 -2 2 0 3 6 3 6 0 17 -8 24 -17z m-52 -31 c3 -1 -6 -1 -19
1 -13 2 -24 12 -26 21 -2 17 -1 17 19 -1 12 -10 24 -19 26 -21z"/>
<path d="M2165 4760 c-4 -6 -10 -8 -14 -6 -4 3 -13 1 -21 -4 -13 -8 -13 -11
-1 -22 12 -11 12 -10 6 2 -8 13 -7 13 10 0 15 -12 17 -12 10 -1 -6 10 -4 12 5
6 9 -6 11 -4 5 5 -5 8 -4 11 2 7 14 -9 8 -53 -6 -49 -7 1 -10 -2 -6 -8 4 -7
12 -7 24 0 10 5 21 7 23 4 3 -3 8 2 11 10 4 10 1 13 -9 9 -17 -6 -19 13 -2 23
7 4 8 3 4 -4 -5 -8 -1 -10 10 -5 14 5 16 3 11 -11 -5 -12 -3 -15 6 -11 6 4 1
-2 -13 -13 -13 -11 -29 -18 -34 -15 -5 3 -6 1 -2 -6 4 -6 12 -9 17 -6 5 4 9 1
9 -4 0 -14 -17 -14 -25 -1 -3 6 -13 10 -22 10 -12 0 -12 -3 4 -17 10 -10 12
-13 4 -8 -12 8 -13 6 -8 -7 4 -13 1 -16 -14 -13 -16 3 -19 0 -15 -18 3 -12 3
-16 0 -9 -3 6 -11 9 -16 6 -6 -4 -8 -2 -4 4 3 6 2 13 -4 17 -6 4 -8 11 -5 16
4 5 1 9 -4 9 -21 0 -7 -49 17 -59 24 -11 46 -6 37 8 -2 5 6 13 20 19 13 6 31
23 41 36 9 14 20 23 25 20 5 -3 9 -2 8 3 -4 23 3 31 25 29 14 -2 30 0 37 5 7
4 19 -1 29 -14 l17 -21 12 22 c8 15 9 28 2 41 -6 10 -7 21 -4 25 3 3 1 6 -6 6
-8 0 -11 -6 -7 -16 3 -8 2 -12 -3 -9 -5 3 -12 1 -16 -5 -3 -5 -1 -10 4 -10 6
0 11 -5 11 -11 0 -6 -5 -7 -12 -2 -7 4 -16 8 -20 8 -9 0 -9 18 -1 25 4 3 2 -2
-2 -10 -8 -13 -7 -13 8 -1 9 7 17 19 17 25 0 7 -3 7 -8 1 -17 -24 -119 -29
-132 -6 -6 9 -10 11 -10 4 0 -7 -5 -13 -11 -13 -5 0 -7 5 -4 10 3 6 4 10 1 10
-3 0 -8 -5 -11 -10z m128 -40 c10 -12 9 -12 -5 -1 -10 7 -18 9 -18 4 0 -5 -7
-10 -15 -10 -8 0 -12 4 -9 8 2 4 -2 9 -8 12 -7 3 0 4 15 3 15 -2 33 -9 40 -16z"/>
<path d="M2095 4741 c-3 -6 -11 -9 -16 -6 -5 4 -9 1 -9 -5 0 -6 -5 -8 -10 -5
-6 4 -17 2 -24 -4 -7 -6 -22 -9 -32 -5 -14 4 -15 3 -6 -4 11 -7 11 -10 -2 -15
-18 -7 -22 -28 -5 -24 6 1 22 12 34 24 14 13 32 21 44 18 11 -2 23 1 26 6 10
14 25 0 18 -17 -3 -9 0 -14 7 -12 7 2 15 -4 17 -12 4 -12 3 -12 -5 -2 -12 18
-23 17 -34 -2 -5 -9 -14 -13 -20 -10 -7 5 -8 2 -3 -6 5 -9 4 -11 -3 -6 -15 9
-34 -2 -26 -16 4 -7 9 -6 15 3 4 8 6 -1 4 -21 -3 -44 -14 -70 -27 -70 -6 0 -5
7 2 15 27 33 3 22 -34 -16 -22 -21 -35 -39 -29 -39 6 0 16 6 22 14 7 9 26 13
47 12 19 -2 37 1 41 7 3 6 1 7 -5 3 -17 -10 -25 13 -11 30 16 20 20 44 8 44
-6 0 -5 9 1 21 11 20 37 21 33 0 -2 -6 2 -11 7 -11 12 0 13 12 3 26 -5 5 -1 2
8 -8 16 -16 17 -15 16 27 0 24 -4 42 -8 39 -4 -2 -14 5 -22 17 -10 13 -17 17
-22 10z"/>
<path d="M4141 4722 c-6 -12 -11 -29 -11 -37 0 -8 -4 -15 -10 -15 -5 0 -10 -9
-10 -20 0 -11 4 -20 8 -20 5 0 17 9 27 20 20 22 8 28 -14 8 -8 -7 -6 -1 3 13
9 14 13 29 9 34 -5 4 -2 5 5 1 7 -4 10 -13 6 -19 -3 -7 2 -3 10 8 9 11 14 26
11 35 -4 11 -2 11 8 -2 20 -25 39 -26 43 -2 3 18 -2 21 -36 20 -31 0 -41 -5
-49 -24z m76 3 c0 -8 -4 -12 -9 -9 -5 3 -6 10 -3 15 9 13 12 11 12 -6z m-47
-5 c0 -5 -4 -10 -10 -10 -5 0 -10 5 -10 10 0 6 5 10 10 10 6 0 10 -4 10 -10z"/>
<path d="M3144 4714 c-1 -13 2 -24 8 -24 5 0 6 5 3 10 -12 19 7 10 27 -12 12
-15 21 -19 24 -11 4 8 12 5 25 -8 11 -11 26 -18 32 -16 7 2 17 -3 24 -12 9
-13 11 -12 10 11 -1 14 -5 24 -8 22 -9 -5 -30 21 -23 28 2 3 -2 8 -11 12 -9 3
-18 0 -21 -7 -7 -19 -42 -18 -56 2 -21 29 -33 30 -34 5z m106 -35 c0 -5 5 -7
12 -3 7 4 8 3 4 -5 -6 -9 -11 -9 -22 0 -17 14 -18 19 -4 19 6 0 10 -5 10 -11z"/>
<path d="M2094 4705 c-4 -8 -10 -15 -16 -15 -5 0 -7 4 -4 8 3 5 -2 9 -10 9 -8
0 -13 -6 -10 -13 3 -8 0 -16 -6 -20 -6 -4 -8 -3 -4 4 3 6 2 13 -3 17 -6 3 -15
-4 -21 -15 -6 -11 -16 -17 -22 -14 -8 5 -9 1 -5 -10 4 -10 7 -20 7 -22 0 -3 5
-2 12 2 7 5 8 3 3 -6 -6 -10 -4 -12 9 -7 9 4 15 3 13 -1 -3 -4 1 -13 9 -20 19
-17 18 -2 -1 25 -14 20 -13 23 7 37 11 8 24 13 28 11 4 -2 12 7 18 20 7 14 9
25 6 25 -2 0 -7 -7 -10 -15z m-59 -45 c-3 -5 -11 -10 -16 -10 -6 0 -7 5 -4 10
3 6 11 10 16 10 6 0 7 -4 4 -10z"/>
<path d="M1968 4705 c-3 -3 -16 -8 -28 -10 -13 -3 -26 -8 -29 -13 -3 -4 -13
-7 -21 -7 -8 1 -23 -5 -32 -13 -10 -8 -18 -12 -18 -8 0 4 -10 1 -22 -6 -13 -7
-27 -11 -33 -9 -5 1 -6 -1 -2 -6 5 -4 19 -8 30 -8 15 0 21 -5 19 -16 -1 -9 5
-16 13 -16 19 0 19 7 -2 37 -9 14 -10 19 -2 12 11 -10 16 -8 27 10 7 13 11 15
8 6 -3 -10 -9 -26 -12 -35 -3 -10 4 -2 15 17 11 19 20 30 21 23 0 -7 9 -17 19
-22 14 -8 20 -7 25 5 3 9 1 14 -7 12 -7 -2 -14 0 -15 5 -1 4 1 7 6 8 4 0 12 5
18 10 12 10 11 -22 -1 -54 -5 -12 -3 -16 7 -12 8 3 15 11 16 18 0 7 3 27 6 45
5 32 4 37 -6 27z"/>
<path d="M4184 4701 c3 -5 -1 -12 -10 -15 -8 -3 -13 -10 -10 -14 3 -5 -5 -19
-19 -32 -13 -12 -21 -28 -18 -36 3 -8 -1 -14 -8 -14 -11 0 -11 -2 1 -10 10 -6
15 -26 15 -57 0 -42 3 -48 23 -51 12 -2 22 -7 22 -12 0 -5 -8 -6 -17 -2 -30
12 -63 36 -63 46 0 4 6 3 14 -4 12 -9 15 -8 13 9 -1 13 -6 19 -14 17 -8 -3
-10 1 -6 12 6 14 4 15 -8 5 -33 -27 -2 -77 63 -102 20 -9 21 -10 3 -10 -11 0
-35 13 -54 29 -19 16 -38 27 -43 24 -5 -4 1 -13 14 -22 13 -9 34 -27 47 -41
14 -14 29 -25 33 -23 4 1 8 -2 8 -8 0 -13 -17 -13 -25 0 -4 6 -12 4 -21 -5
-17 -17 -34 -12 -34 11 0 8 -5 14 -11 14 -5 0 -7 5 -4 10 3 6 1 10 -4 10 -6 0
-11 6 -11 13 1 17 40 -32 40 -50 0 -13 3 -13 15 -3 8 7 15 17 15 23 0 6 -2 8
-5 5 -3 -3 -23 12 -45 33 -21 21 -42 35 -45 30 -3 -5 -1 -12 5 -16 5 -3 10
-10 10 -16 0 -5 -8 -1 -18 9 -13 12 -15 19 -6 24 23 15 5 45 -27 45 -27 0 -35
-11 -30 -40 1 -4 -6 -16 -16 -25 -16 -16 -16 -16 -10 1 6 15 3 17 -12 12 -17
-5 -19 -1 -18 26 1 20 -3 34 -12 37 -8 3 -11 0 -7 -7 4 -6 2 -9 -6 -6 -9 4
-14 -2 -15 -16 -2 -17 1 -18 13 -9 10 9 14 9 14 1 0 -6 -5 -11 -12 -11 -6 0
-3 -8 7 -20 10 -11 22 -17 26 -14 5 3 9 0 9 -6 0 -7 -8 -9 -20 -5 -11 4 -20 2
-20 -4 0 -6 5 -11 10 -11 6 0 10 -5 10 -11 0 -8 -5 -8 -15 1 -12 10 -18 10
-30 0 -8 -7 -15 -9 -15 -5 0 4 10 15 23 25 12 10 19 21 15 25 -4 4 -14 0 -23
-9 -9 -9 -22 -16 -28 -16 -6 0 -2 7 10 15 17 12 20 23 18 65 -2 28 1 53 6 56
5 3 23 -8 38 -25 26 -28 32 -30 54 -20 14 6 24 17 23 23 -2 6 -1 7 2 3 2 -4
10 -3 18 4 8 6 14 8 14 4 0 -4 -8 -14 -17 -22 -17 -13 -17 -14 2 -9 11 3 27 1
34 -4 19 -11 47 3 62 32 10 18 9 20 -5 15 -20 -8 -48 2 -40 14 7 12 -3 11 -29
-3 -12 -6 -40 -11 -62 -12 -37 -1 -52 -15 -24 -25 6 -2 9 1 6 6 -3 5 0 10 8
10 20 0 19 -13 -1 -21 -20 -8 -45 11 -38 28 2 6 -3 13 -13 14 -35 3 -58 9 -92
25 -19 8 -42 12 -50 9 -9 -3 -12 -1 -8 5 4 7 0 10 -10 9 -10 -2 -21 1 -24 6
-3 5 -16 10 -27 11 -12 1 -22 6 -22 12 0 5 -4 3 -9 -5 -6 -8 -7 -18 -5 -22 5
-8 -11 -12 -30 -9 -5 1 -6 -5 -2 -14 3 -9 6 -19 6 -21 0 -2 5 -4 11 -4 6 0 8
7 4 18 -5 13 -3 14 6 5 15 -15 2 -36 -18 -29 -11 5 -13 2 -9 -10 3 -8 6 -18 6
-20 0 -2 5 -4 11 -4 5 0 8 4 5 9 -3 5 1 11 9 15 8 3 17 0 21 -6 4 -6 3 -8 -3
-5 -6 4 -13 0 -16 -7 -4 -10 1 -14 14 -13 21 1 25 27 7 45 -7 7 -8 12 -4 12 5
0 3 6 -3 14 -9 10 -8 16 4 26 13 11 16 11 13 0 -2 -7 3 -15 11 -18 9 -3 11 0
6 8 -5 9 -4 11 4 6 6 -4 9 -12 6 -17 -4 -5 -1 -9 4 -9 6 0 11 6 11 13 0 8 4 7
10 -3 5 -8 7 -24 3 -35 -5 -17 -4 -18 10 -6 9 7 14 17 11 22 -3 5 0 9 5 9 15
0 14 -11 -4 -30 -13 -15 -13 -19 1 -36 13 -16 15 -17 10 -1 -7 22 3 49 15 41
6 -3 17 0 25 7 12 10 13 9 8 -6 -6 -15 -4 -16 14 -6 18 10 21 9 16 -4 -3 -8
-10 -13 -14 -10 -4 3 -11 -2 -14 -11 -9 -24 -7 -28 9 -14 10 9 15 9 15 1 0 -6
-4 -11 -10 -11 -5 0 -10 -5 -10 -11 0 -5 4 -8 9 -5 5 3 9 -6 9 -19 0 -14 -5
-28 -10 -31 -5 -3 -8 0 -7 7 4 22 -11 60 -22 54 -5 -3 -6 2 -2 11 9 23 -13 10
-27 -16 -9 -17 -8 -20 11 -17 12 1 23 -4 25 -11 1 -7 0 -8 -3 -2 -8 16 -26 12
-19 -5 7 -20 -4 -19 -21 3 -11 12 -13 13 -10 2 2 -8 -8 -24 -22 -36 l-26 -21
-25 31 c-14 16 -19 26 -11 22 9 -6 12 -5 9 5 -5 16 -37 19 -56 5 -10 -7 -9
-14 5 -35 9 -14 24 -31 32 -38 11 -8 12 -12 4 -13 -7 0 -25 18 -39 40 -15 22
-31 40 -37 40 -5 0 -4 -7 3 -15 9 -10 9 -15 1 -15 -10 0 -15 13 -12 33 0 4 -3
7 -7 7 -17 0 -21 -13 -11 -34 8 -17 6 -16 -10 4 -11 14 -22 22 -25 19 -8 -7
112 -119 127 -119 6 0 8 -3 5 -6 -3 -3 5 -17 18 -32 13 -15 42 -47 64 -72 22
-25 40 -49 40 -53 0 -5 5 -5 10 -2 6 3 10 -3 10 -13 0 -11 13 -34 29 -51 16
-17 27 -31 25 -31 -2 0 7 -18 21 -40 14 -22 25 -43 25 -48 0 -4 6 -14 13 -20
6 -7 12 -16 13 -20 2 -19 17 -41 25 -37 4 3 6 -4 4 -15 -2 -11 0 -20 6 -20 5
0 8 -3 7 -7 -4 -15 14 -53 22 -48 4 3 6 -4 3 -15 -4 -15 0 -20 13 -20 16 0 17
-2 4 -10 -12 -8 -13 -12 -2 -19 8 -4 13 -11 12 -15 -3 -13 24 -76 33 -76 4 0
5 -4 2 -10 -3 -5 1 -24 9 -42 8 -18 33 -85 56 -148 24 -63 47 -120 51 -126 5
-6 7 -13 4 -16 -3 -3 1 -11 10 -18 10 -8 15 -9 15 -1 0 7 8 8 25 1 30 -12 32
-8 29 65 -1 33 -3 111 -4 173 -1 62 -6 115 -12 118 -5 3 -5 11 0 17 4 7 7 35
5 62 -2 28 -3 72 -2 98 0 37 -3 47 -13 41 -10 -5 -11 -4 0 7 6 7 12 37 12 65
0 47 -2 52 -19 49 -11 -2 -27 6 -38 18 -18 22 -18 22 2 6 11 -8 26 -15 34 -15
18 1 23 36 8 55 -9 12 -9 13 1 7 15 -9 16 6 0 22 -9 9 -9 12 2 12 9 0 8 5 -6
15 -12 10 -14 14 -5 13 10 -2 15 6 15 22 0 19 -5 25 -20 23 -17 -1 -17 0 -3
10 13 10 16 30 15 94 0 45 -4 79 -8 77 -5 -3 -8 0 -8 5 0 6 4 11 9 11 8 0 7
68 -3 77 -2 3 -1 16 4 29 5 13 5 26 1 29 -5 3 -7 15 -3 27 4 16 2 19 -9 13
-11 -7 -11 -5 1 10 14 17 13 18 -3 12 -10 -4 -21 -7 -23 -7 -3 0 -2 -5 2 -12
4 -7 3 -8 -4 -4 -15 9 -15 5 -2 -28 7 -18 14 -24 27 -20 12 4 14 3 6 -3 -18
-13 -24 -61 -8 -67 14 -5 10 -42 -6 -52 -5 -3 -5 6 1 20 5 15 6 26 0 26 -4 0
-10 -6 -13 -12 -2 -7 -3 -5 -1 5 1 10 -4 21 -12 24 -12 4 -12 7 2 18 23 17 11
49 -15 40 -15 -4 -20 -1 -20 12 0 10 -1 29 -2 43 -2 41 0 52 13 44 7 -4 8 -3
4 4 -4 7 -3 12 3 12 5 0 11 -3 14 -7 2 -5 3 -3 1 2 -1 6 4 19 11 28 11 15 13
16 18 2 4 -8 3 -14 -1 -14 -21 3 -24 -3 -6 -17 10 -8 13 -12 5 -8 -9 5 -12 3
-7 -4 13 -22 24 -12 23 22 -1 26 -7 37 -25 45 -13 6 -21 7 -18 2z m-374 -95
c0 -3 -4 -8 -10 -11 -5 -3 -10 -1 -10 4 0 6 5 11 10 11 6 0 10 -2 10 -4z m242
-46 c-2 -8 3 -10 15 -6 13 5 15 4 7 -4 -14 -14 -44 -2 -44 17 0 8 6 13 13 10
6 -2 11 -10 9 -17z m168 6 c0 -3 -4 -8 -10 -11 -5 -3 -10 -1 -10 4 0 6 5 11
10 11 6 0 10 -2 10 -4z m-41 -57 c-19 -12 -29 -11 -29 2 0 5 5 7 10 4 6 -3 10
-1 10 5 0 6 5 8 11 4 8 -4 7 -9 -2 -15z m-159 -11 c0 -4 -9 -8 -20 -8 -11 0
-20 4 -20 8 0 4 9 8 20 8 11 0 20 -4 20 -8z m-364 -17 c-4 -5 -1 -12 4 -14 6
-3 5 -4 -2 -3 -15 3 -23 26 -8 26 6 0 9 -4 6 -9z m337 -18 c-4 -10 -2 -14 4
-10 13 8 70 -39 60 -49 -4 -4 -7 -1 -7 6 0 7 -3 10 -7 7 -3 -4 -11 1 -18 10
-14 18 -55 28 -55 13 0 -6 5 -10 10 -10 6 0 10 -5 10 -11 0 -8 -5 -7 -15 1
-13 10 -19 10 -35 -5 -36 -33 -21 -7 18 29 43 41 44 42 35 19z m-173 -3 c0 -5
-5 -10 -11 -10 -5 0 -7 5 -4 10 3 6 8 10 11 10 2 0 4 -4 4 -10z m-56 -25 c-15
-13 -30 -22 -33 -20 -6 6 39 45 52 45 6 0 -3 -11 -19 -25z m-139 -5 c3 -11 11
-20 16 -20 5 0 9 -6 9 -12 -1 -7 -10 -2 -22 12 -11 14 -25 24 -29 23 -5 -2 -9
2 -9 7 0 18 29 10 35 -10z m83 -11 c30 -38 20 -37 -18 1 -16 17 -24 30 -17 29
7 0 22 -13 35 -30z m84 2 c-12 -10 -19 -21 -15 -25 3 -3 2 -6 -4 -6 -21 0 -21
13 0 31 29 24 46 25 19 0z m48 5 c0 -3 -4 -8 -10 -11 -5 -3 -10 -1 -10 4 0 6
5 11 10 11 6 0 10 -2 10 -4z m-33 -20 c-3 -7 1 -23 8 -34 8 -10 11 -22 8 -26
-3 -3 1 -6 10 -6 19 0 23 -15 5 -26 -6 -4 -8 -3 -5 3 4 6 0 14 -9 17 -9 4 -14
9 -11 13 4 3 0 15 -8 25 -12 18 -11 48 2 48 3 0 3 -6 0 -14z m397 -19 c7 -6 6
-7 -4 -4 -8 2 -16 12 -17 23 -2 13 -1 15 4 4 3 -8 11 -19 17 -23z m-308 11 c5
-7 2 -9 -8 -5 -26 9 -30 -5 -5 -17 24 -12 31 -43 8 -38 -10 2 -12 -4 -7 -25 5
-23 4 -25 -5 -10 -12 21 -4 51 11 42 5 -3 10 -2 10 4 0 6 -19 20 -42 31 -24
12 -33 19 -21 17 13 -3 26 -1 29 4 7 12 21 11 30 -3z m79 2 c5 -8 12 -7 23 2
12 10 16 10 19 0 3 -6 10 -10 16 -6 7 3 -1 -6 -18 -20 -16 -14 -34 -26 -40
-26 -5 0 2 8 18 18 15 10 25 21 21 24 -6 7 -73 -33 -74 -44 0 -5 5 -7 11 -5 6
1 14 -5 16 -13 4 -12 3 -12 -5 -2 -5 8 -13 13 -18 12 -21 -4 -13 21 10 31 27
13 26 32 -1 22 -11 -4 -14 -3 -9 5 9 15 23 15 31 2z m-283 -7 c-6 -2 -10 -9
-7 -14 4 -5 -1 -6 -10 -2 -13 5 -14 7 -3 14 7 5 18 8 23 8 6 0 4 -3 -3 -6z
m52 -21 c-6 -4 -13 -15 -17 -24 -3 -10 -11 -18 -16 -18 -14 0 -20 25 -9 41 8
11 9 11 4 -3 -3 -10 -1 -20 4 -23 6 -4 10 0 10 7 0 17 21 40 29 32 3 -3 1 -8
-5 -12z m186 8 c0 -5 -4 -10 -10 -10 -5 0 -10 5 -10 10 0 6 5 10 10 10 6 0 10
-4 10 -10z m136 -19 c-9 -14 -36 -15 -36 -1 0 5 7 7 15 4 11 -5 14 -2 9 12 -6
15 -4 16 6 7 7 -6 9 -16 6 -22z m-270 -18 c-3 -4 -6 -1 -6 6 0 7 -4 9 -10 6
-6 -4 -7 1 -3 11 6 15 7 15 15 -1 6 -9 7 -19 4 -22z m68 8 c-2 -3 -12 3 -22
13 -16 17 -16 18 5 5 12 -7 20 -15 17 -18z m217 -8 c-12 -20 -14 -14 -5 12 4
9 9 14 11 11 3 -2 0 -13 -6 -23z m74 17 c3 -6 -1 -7 -9 -4 -18 7 -21 14 -7 14
6 0 13 -4 16 -10z m35 0 c0 -5 -4 -10 -10 -10 -5 0 -10 5 -10 10 0 6 5 10 10
10 6 0 10 -4 10 -10z m-415 -29 c-6 -5 -25 10 -25 20 0 5 6 4 14 -3 8 -7 12
-15 11 -17z m370 -2 c-4 -5 -2 -9 4 -9 5 0 12 5 14 10 3 6 4 5 3 -2 -2 -7 -9
-13 -17 -13 -8 0 -13 5 -12 12 2 6 -6 11 -17 10 -11 -1 -20 -6 -20 -11 0 -5
-3 -6 -6 -3 -4 4 -1 13 6 22 9 11 17 12 31 4 11 -5 17 -14 14 -20z m-121 12
c3 -5 -1 -14 -9 -21 -8 -7 -15 -9 -15 -4 0 5 -4 3 -9 -5 -11 -17 -48 -25 -56
-12 -3 5 0 13 6 17 7 4 9 3 5 -4 -4 -6 1 -10 13 -9 11 0 24 11 30 24 11 24 26
30 35 14z m206 -12 c0 -6 -4 -7 -10 -4 -5 3 -10 11 -10 16 0 6 5 7 10 4 6 -3
10 -11 10 -16z m-26 -4 c3 -8 1 -15 -4 -15 -6 0 -10 7 -10 15 0 8 2 15 4 15 2
0 6 -7 10 -15z m-444 -5 c8 -5 11 -10 5 -10 -5 0 -17 5 -25 10 -8 5 -10 10 -5
10 6 0 17 -5 25 -10z m165 0 c-3 -5 -11 -10 -16 -10 -6 0 -7 5 -4 10 3 6 11
10 16 10 6 0 7 -4 4 -10z m125 -10 c-6 -11 -15 -18 -19 -15 -5 3 -12 -2 -15
-11 -3 -8 -10 -13 -15 -10 -5 4 -11 1 -13 -6 -2 -6 -16 -12 -30 -12 -15 -1
-24 2 -21 7 3 5 13 7 23 4 11 -3 21 2 24 10 3 8 10 12 15 9 5 -3 12 1 15 10 3
8 10 12 16 9 5 -3 10 1 10 9 0 9 5 16 10 16 7 0 7 -7 0 -20z m46 -10 c5 0 10
-6 12 -14 2 -9 -1 -16 -7 -16 -6 0 -8 7 -4 15 3 10 1 15 -7 13 -7 -2 -15 4
-17 12 -4 12 -3 12 5 2 5 -8 13 -13 18 -12z m32 -5 c-3 -3 -9 2 -12 12 -6 14
-5 15 5 6 7 -7 10 -15 7 -18z m-385 -4 c-2 -6 6 -11 17 -11 11 0 19 6 18 13
-2 7 7 12 20 12 12 0 22 -4 21 -9 0 -5 5 -13 13 -18 10 -8 10 -9 -2 -5 -8 2
-14 10 -12 16 1 6 -7 11 -18 11 -11 0 -19 -6 -17 -12 1 -8 -8 -13 -20 -13 -13
0 -23 4 -22 9 0 5 -5 13 -13 18 -10 8 -10 9 2 5 8 -2 14 -10 13 -16z m123 -13
c-1 -12 -9 -24 -17 -26 -8 -2 -10 0 -4 5 15 12 19 47 4 37 -8 -4 -10 -3 -5 5
11 17 26 3 22 -21z m324 6 c0 -8 -4 -14 -10 -14 -5 0 -7 7 -3 16 5 14 3 14
-15 3 -11 -7 -18 -17 -16 -21 3 -5 -2 -11 -10 -14 -9 -3 -14 -10 -11 -15 3 -4
-5 -13 -17 -19 -22 -11 -22 -10 -4 4 11 9 16 16 10 16 -5 0 0 7 10 15 11 8 16
15 10 15 -5 0 2 9 16 19 26 21 40 19 40 -5z m36 6 c0 -11 -4 -20 -8 -20 -10 0
-11 24 -1 33 9 9 9 10 9 -13z m-296 -10 c0 -5 -7 -7 -15 -4 -8 4 -15 8 -15 10
0 2 7 4 15 4 8 0 15 -4 15 -10z m140 6 c0 -2 -7 -7 -16 -10 -8 -3 -12 -2 -9 4
6 10 25 14 25 6z m-260 -23 c0 -5 -5 -15 -10 -23 -7 -12 -9 -10 -7 8 1 19 17
33 17 15z m87 -7 c-10 -8 -17 -16 -15 -19 2 -3 0 -8 -4 -12 -3 -4 -5 1 -4 10
1 9 9 21 17 26 22 14 26 10 6 -5z m139 2 c4 -6 3 -8 -3 -5 -6 4 -14 0 -17 -9
-3 -8 -10 -13 -15 -10 -5 4 -12 1 -14 -4 -4 -7 -5 -6 -3 1 1 6 5 9 9 7 5 -2
13 5 18 15 12 20 15 21 25 5z m54 2 c8 -5 11 -10 5 -10 -5 0 -17 5 -25 10 -8
5 -10 10 -5 10 6 0 17 -5 25 -10z m80 -4 c0 -2 -8 -10 -17 -17 -16 -13 -17
-12 -4 4 13 16 21 21 21 13z m43 -3 c-7 -2 -19 -2 -25 0 -7 3 -2 5 12 5 14 0
19 -2 13 -5z m-268 -25 c5 4 5 2 2 -5 -4 -6 -17 -9 -29 -5 -12 3 -17 7 -10 10
7 2 10 9 6 15 -3 7 1 4 9 -5 8 -10 18 -14 22 -10z m125 12 c0 -5 -4 -10 -10
-10 -5 0 -10 5 -10 10 0 6 5 10 10 10 6 0 10 -4 10 -10z m-210 -16 c0 -2 -7
-4 -15 -4 -8 0 -15 4 -15 10 0 5 7 7 15 4 8 -4 15 -8 15 -10z m345 6 c-3 -5
-12 -10 -18 -10 -7 0 -6 4 3 10 19 12 23 12 15 0z m-145 -15 c0 -2 -6 -5 -13
-8 -8 -3 -14 1 -14 8 0 7 6 11 14 8 7 -3 13 -6 13 -8z m103 0 c-3 -9 -8 -14
-10 -11 -3 3 -2 9 2 15 9 16 15 13 8 -4z m-197 -15 c0 -12 -4 -16 -9 -11 -5 5
-6 14 -3 20 10 15 12 14 12 -9z m52 8 c-2 -6 -12 -12 -21 -14 -9 -1 -15 2 -11
7 3 5 10 7 15 4 5 -4 9 -1 9 4 0 6 3 11 6 11 3 0 4 -5 2 -12z m-122 -10 c-9
-5 -23 -5 -32 0 -12 6 -7 9 16 9 23 0 28 -3 16 -9z m217 -3 c-3 -9 -8 -14 -10
-11 -3 3 -2 9 2 15 9 16 15 13 8 -4z m87 5 c8 -5 11 -10 5 -10 -5 0 -17 5 -25
10 -8 5 -10 10 -5 10 6 0 17 -5 25 -10z m-112 -25 c-3 -3 -9 2 -12 12 -6 14
-5 15 5 6 7 -7 10 -15 7 -18z m-245 2 c-4 -6 1 -8 11 -4 10 4 15 3 11 -3 -9
-14 -32 -12 -38 3 -3 8 1 14 9 14 7 0 10 -5 7 -10z m61 1 c-5 -8 -2 -9 9 -5
23 9 21 0 -2 -13 -16 -8 -19 -7 -16 8 5 23 4 22 11 22 3 0 2 -5 -2 -12z m90
-14 c3 -8 2 -12 -4 -9 -6 3 -10 10 -10 16 0 14 7 11 14 -7z m-64 -21 c0 -5 -5
-15 -10 -23 -7 -12 -9 -10 -7 8 1 19 17 33 17 15z m120 -3 c0 -5 -4 -10 -10
-10 -5 0 -10 5 -10 10 0 6 5 10 10 10 6 0 10 -4 10 -10z m120 0 c0 -5 -4 -10
-10 -10 -5 0 -10 5 -10 10 0 6 5 10 10 10 6 0 10 -4 10 -10z m-117 -33 c3 -7
-3 -13 -14 -13 -13 0 -15 3 -7 13 6 7 12 13 13 13 2 0 5 -6 8 -13z m-73 0 c0
-2 -8 -12 -19 -21 -16 -15 -19 -15 -24 -2 -4 10 -1 13 7 10 8 -3 17 -1 21 5 6
11 15 15 15 8z m143 -10 c-4 -7 1 -8 13 -3 15 6 17 5 6 -5 -10 -11 -15 -10
-28 2 -13 14 -13 16 0 16 8 0 12 -5 9 -10z m89 -5 c-3 -9 -1 -13 5 -9 5 3 10
0 10 -8 0 -17 -14 -10 -26 14 -7 13 -6 18 4 18 7 0 11 -7 7 -15z m-107 -11 c3
-5 2 -12 -3 -15 -5 -3 -9 1 -9 9 0 17 3 19 12 6z m-100 -19 c-3 -3 2 -14 12
-24 24 -27 10 -22 -15 5 -17 18 -19 24 -7 24 8 0 13 -3 10 -5z m40 0 c-3 -3 0
-11 6 -19 17 -20 5 -16 -14 5 -15 16 -15 19 -2 19 8 0 13 -3 10 -5z m95 5 c0
-2 -9 -12 -19 -21 -14 -13 -21 -14 -27 -5 -4 7 -3 10 3 6 6 -4 16 0 23 8 12
14 20 19 20 12z m-190 -11 c0 -2 -8 -10 -17 -17 -16 -13 -17 -12 -4 4 13 16
21 21 21 13z m31 -23 c13 -16 12 -17 -3 -4 -17 13 -22 21 -14 21 2 0 10 -8 17
-17z m49 -29 c0 -8 -19 -13 -24 -6 -3 5 1 9 9 9 8 0 15 -2 15 -3z m205 -4 c-3
-5 -12 -10 -18 -10 -7 0 -6 4 3 10 19 12 23 12 15 0z m-208 -35 c0 -8 -4 -15
-9 -15 -10 0 -11 14 -1 23 9 10 10 9 10 -8z m57 -23 c3 -5 -1 -9 -9 -9 -8 0
-12 4 -9 9 3 4 7 8 9 8 2 0 6 -4 9 -8z m41 -10 c-3 -3 -11 0 -18 7 -9 10 -8
11 6 5 10 -3 15 -9 12 -12z m45 4 c0 -2 -8 -10 -17 -17 -16 -13 -17 -12 -4 4
13 16 21 21 21 13z m-160 -16 c0 -5 -2 -10 -4 -10 -3 0 -8 5 -11 10 -3 6 -1
10 4 10 6 0 11 -4 11 -10z m34 -6 c3 -8 2 -12 -4 -9 -6 3 -10 10 -10 16 0 14
7 11 14 -7z m26 -54 c0 -5 -2 -10 -4 -10 -3 0 -8 5 -11 10 -3 6 -1 10 4 10 6
0 11 -4 11 -10z m75 -79 c-9 -8 -36 -10 -30 -2 2 4 11 8 20 8 8 0 13 -3 10 -6z
m82 -6 c0 -8 -4 -12 -9 -9 -5 3 -6 10 -3 15 9 13 12 11 12 -6z m-27 -31 c0 -8
-19 -13 -24 -6 -3 5 1 9 9 9 8 0 15 -2 15 -3z m-30 -128 c0 -2 -8 -10 -17 -17
-16 -13 -17 -12 -4 4 13 16 21 21 21 13z"/>
<path d="M4000 4329 c0 -5 5 -7 10 -4 6 3 10 8 10 11 0 2 -4 4 -10 4 -5 0 -10
-5 -10 -11z"/>
<path d="M3307 4671 c-2 -10 0 -26 5 -35 8 -14 57 -44 93 -57 5 -2 25 -19 45
-36 38 -35 66 -44 56 -17 -3 9 -6 18 -6 20 0 3 -5 2 -10 -1 -6 -4 -7 -12 -3
-18 4 -7 -8 3 -26 20 -18 18 -30 37 -27 41 3 5 -1 18 -9 28 -20 26 -18 33 5
31 12 -1 16 -5 10 -11 -6 -6 -3 -14 8 -23 12 -11 14 -16 5 -19 -19 -8 -15 -25
5 -22 9 2 16 -3 15 -9 -2 -7 2 -13 7 -13 13 0 13 23 0 36 -5 5 -11 19 -13 31
-5 34 -26 54 -46 43 -10 -5 -34 -7 -54 -5 -26 2 -34 -1 -30 -10 2 -8 12 -11
21 -8 15 4 15 3 2 -6 -20 -15 -30 -14 -30 3 0 8 -6 17 -12 19 -10 4 -10 6 0 6
7 1 10 6 6 12 -5 8 -1 8 14 0 31 -16 41 -13 12 4 -33 19 -37 18 -43 -4z m89
-39 c-3 -3 2 -10 11 -17 9 -7 13 -17 8 -24 -10 -17 -23 -3 -29 32 -3 17 -1 25
5 21 6 -3 8 -8 5 -12z m-21 -22 c3 -6 -1 -7 -9 -4 -18 7 -21 14 -7 14 6 0 13
-4 16 -10z"/>
<path d="M1887 4637 c-6 -17 13 -41 36 -45 27 -5 20 13 -10 26 -25 10 -26 11
-3 5 14 -3 23 -4 20 -1 -33 26 -38 28 -43 15z"/>
<path d="M1974 4639 c-3 -5 1 -9 8 -9 7 0 4 -6 -7 -12 -35 -20 -45 -44 -20
-46 8 -1 22 -3 30 -4 8 -1 12 -5 9 -10 -3 -4 -14 -3 -25 2 -14 8 -19 7 -19 -3
0 -23 37 -16 63 11 l25 27 -29 26 c-16 15 -32 23 -35 18z m39 -56 c-4 -10 -8
-11 -13 -3 -4 6 -10 11 -14 11 -20 -3 -26 0 -20 10 4 8 9 7 15 -2 8 -13 13 -5
10 15 -1 5 5 4 13 -3 8 -7 12 -19 9 -28z"/>
<path d="M3534 4625 c-9 -14 -20 -22 -25 -19 -5 3 -9 -1 -9 -8 0 -10 -3 -9
-11 2 -9 12 -10 12 -7 1 6 -22 24 -24 42 -6 9 9 16 11 16 5 0 -7 5 -6 14 2 16
15 11 32 -6 22 -7 -4 -8 -2 -4 5 4 6 12 9 17 6 5 -4 9 -1 9 4 0 19 -19 12 -36
-14z"/>
<path d="M3577 4635 c-6 -13 -3 -16 8 -11 9 3 13 2 10 -4 -3 -6 0 -10 7 -10 9
0 9 -3 -2 -10 -8 -5 -19 -10 -25 -10 -5 0 -3 5 5 10 8 5 10 10 5 10 -12 0 -35
-20 -35 -31 0 -8 29 -5 53 5 22 10 21 18 -1 46 -17 21 -19 22 -25 5z"/>
<path d="M4082 4628 c-13 -13 -16 -48 -4 -48 5 0 16 6 25 13 15 10 16 15 5 30
-11 14 -16 15 -26 5z m14 -13 c-1 -8 -5 -17 -8 -21 -5 -4 -4 16 1 34 3 9 9 -1
7 -13z"/>
<path d="M1738 4618 c-16 -5 -28 -14 -28 -19 0 -5 -3 -8 -7 -7 -12 4 -163 -74
-163 -83 0 -10 33 1 41 13 3 5 6 -4 6 -20 0 -18 -8 -34 -19 -41 -10 -6 -18 -7
-18 -2 0 5 7 12 16 15 8 3 12 10 9 16 -9 15 -27 12 -19 -2 4 -7 -1 -5 -11 4
-14 13 -23 14 -41 6 -20 -9 -40 -36 -32 -43 10 -10 42 -8 45 3 3 8 -1 10 -14
5 -17 -7 -17 -6 -1 11 19 19 40 14 32 -8 -3 -7 2 -18 10 -25 13 -11 18 -10 31
3 9 9 21 16 27 16 6 0 -3 -12 -20 -27 -16 -16 -32 -34 -34 -42 -2 -8 -12 -15
-21 -17 -9 -1 -15 1 -12 6 3 5 1 10 -4 12 -5 1 -3 12 6 23 15 20 15 20 9 -2
-4 -12 -3 -24 2 -27 15 -9 23 36 10 52 -9 11 -16 8 -34 -15 -20 -25 -21 -30
-8 -50 8 -13 11 -23 7 -23 -5 0 0 -5 10 -11 9 -5 17 -15 17 -20 0 -12 -30 16
-32 28 0 4 -6 16 -14 27 -11 16 -10 23 4 44 16 24 16 26 0 20 -17 -7 -33 16
-22 34 3 5 -10 -1 -29 -13 -19 -13 -33 -27 -31 -31 3 -5 -2 -8 -11 -8 -25 0
-76 -40 -69 -52 4 -7 2 -8 -4 -4 -12 7 -21 2 -83 -55 -21 -20 -39 -35 -39 -33
0 2 -10 -6 -21 -17 -17 -17 -19 -23 -8 -31 11 -7 9 -8 -4 -4 -14 4 -33 -8 -68
-41 -27 -27 -49 -53 -49 -59 0 -7 -7 -14 -15 -18 -8 -3 -15 -16 -15 -28 0 -16
-3 -19 -9 -10 -6 10 -12 7 -25 -13 -9 -14 -14 -30 -11 -35 4 -6 -1 -7 -11 -3
-14 5 -16 3 -11 -11 4 -9 3 -15 -2 -12 -5 4 -23 -15 -40 -41 -17 -27 -34 -53
-39 -58 -37 -45 -185 -333 -177 -345 3 -5 1 -10 -5 -12 -12 -4 -92 -227 -85
-238 3 -5 2 -10 -3 -12 -4 -1 -17 -37 -28 -79 l-20 -75 21 -17 20 -18 -21 10
c-18 9 -23 7 -27 -11 -4 -13 2 -31 14 -46 10 -14 19 -30 19 -36 -1 -6 -8 2
-16 17 -18 33 -25 30 -30 -10 -5 -40 -9 -56 -17 -71 -5 -7 -2 -15 8 -18 13 -6
14 -8 3 -15 -7 -5 -14 -16 -15 -26 -1 -10 -4 -33 -7 -50 -3 -21 0 -33 7 -33 6
0 2 -7 -9 -16 -14 -11 -15 -14 -3 -11 9 3 22 1 30 -5 11 -8 10 -9 -3 -4 -11 3
-22 -2 -28 -14 -8 -15 -8 -20 2 -20 9 0 10 -2 1 -8 -14 -9 -22 -150 -8 -156 6
-3 4 -5 -2 -5 -7 -1 -13 -6 -13 -12 0 -5 5 -7 12 -3 7 5 8 3 2 -7 -11 -18 -12
-59 -1 -83 6 -13 6 -16 -2 -12 -6 4 -11 0 -11 -8 0 -9 6 -16 13 -16 7 0 8 -3
2 -8 -10 -7 -14 -92 -5 -92 4 0 4 -16 2 -35 -2 -19 1 -42 7 -49 8 -10 9 -16 1
-21 -6 -3 -8 -9 -6 -13 2 -4 7 -34 10 -67 8 -78 11 -93 18 -101 4 -3 4 -12 2
-19 -8 -20 44 -238 88 -370 41 -125 140 -335 207 -441 148 -235 369 -455 596
-594 237 -145 583 -263 865 -295 30 -4 69 -9 85 -12 17 -3 140 -7 275 -8 268
-3 386 7 570 51 533 127 862 408 1019 871 41 120 86 316 93 402 3 43 2 45 -31
53 -18 5 -35 8 -37 6 -1 -2 -12 -45 -23 -96 -51 -235 -130 -434 -235 -592
-208 -314 -611 -494 -1106 -494 -337 0 -624 82 -879 252 -101 68 -276 237
-353 342 -58 79 -171 271 -183 312 -4 12 -13 32 -20 43 -11 18 -103 272 -103
285 0 3 -5 25 -12 50 -7 25 -14 53 -16 62 -2 10 -6 26 -8 35 -3 15 -15 85 -40
228 -1 6 -5 16 -9 23 -5 6 -4 12 2 12 6 0 7 11 2 28 -5 15 -7 37 -5 50 2 12 1
22 -4 22 -4 0 -8 35 -9 78 -1 42 -3 118 -4 169 -2 63 -6 90 -13 86 -6 -3 -5 0
1 8 17 17 17 111 1 128 -8 8 -8 11 -2 8 7 -4 13 5 16 24 4 28 2 30 -18 26 -13
-2 -21 0 -18 4 3 5 14 9 25 9 27 0 24 18 -3 22 -13 2 -22 9 -20 17 2 8 -3 11
-13 8 -8 -4 -15 -2 -15 4 0 6 8 9 18 7 9 -2 16 -10 14 -16 -1 -7 6 -12 17 -12
15 0 18 7 18 38 0 21 2 42 5 48 3 5 5 28 4 52 0 23 2 42 7 42 11 0 8 28 -4 35
-5 4 -19 -1 -30 -11 -10 -9 -19 -12 -19 -7 0 14 27 27 65 32 6 1 3 6 -5 12
-11 8 -12 12 -2 16 6 2 12 12 12 21 0 15 -2 15 -10 2 -7 -10 -10 -11 -10 -2 0
7 6 15 13 18 13 5 18 25 20 77 1 15 4 27 9 27 4 0 5 9 3 20 -2 11 0 22 6 25 5
4 9 14 9 24 0 45 94 315 156 449 37 79 39 86 25 77 -5 -3 -13 0 -17 7 -4 7 -4
10 1 6 11 -10 47 11 40 23 -4 5 -1 9 6 9 8 0 8 4 -1 15 -11 13 -10 14 1 10 9
-3 22 8 34 32 11 20 19 38 17 40 -1 2 7 13 18 25 19 20 24 33 21 51 0 4 3 7 9
7 10 0 90 113 90 127 0 4 -5 1 -11 -7 -9 -13 -10 -13 -6 0 2 8 11 14 21 12 9
-2 16 4 16 13 0 10 -5 13 -12 9 -7 -4 -8 -3 -4 5 4 6 12 9 17 5 5 -3 16 0 25
6 11 10 12 16 2 27 -10 12 -9 14 7 11 12 -2 23 5 30 19 7 13 14 20 17 18 3 -3
4 8 2 25 -2 16 1 30 6 30 5 0 7 -9 5 -20 -6 -29 13 -25 21 5 3 14 11 22 16 19
6 -4 8 2 3 17 -5 18 -4 20 4 9 8 -12 14 -11 35 10 15 13 26 30 26 38 0 9 6 12
16 8 12 -5 15 -2 10 10 -4 12 -2 15 9 10 8 -3 15 -2 15 3 0 4 11 13 24 21 25
13 25 13 -1 59 -4 7 -33 -21 -33 -31 0 -6 6 -6 14 1 10 9 15 8 19 -3 4 -10 1
-13 -9 -9 -9 3 -14 0 -12 -8 2 -8 -3 -13 -11 -11 -18 4 -62 -38 -54 -51 3 -6
1 -7 -6 -3 -13 8 -5 25 21 44 18 13 16 32 -3 32 -6 0 -8 -4 -5 -9 3 -5 -1 -12
-9 -15 -13 -4 -13 -2 -5 14 13 24 13 27 -2 27 -7 0 -19 2 -27 4 -7 2 -16 -2
-18 -9 -3 -7 1 -10 10 -6 8 3 18 1 22 -5 3 -7 0 -8 -9 -5 -9 3 -16 1 -16 -5 0
-6 4 -11 9 -11 5 0 12 -8 15 -17 6 -15 4 -14 -14 2 -20 18 -21 18 -41 -2 l-21
-20 -39 41 c-21 22 -39 36 -39 29 0 -6 8 -20 18 -29 16 -17 16 -17 0 -11 -12
4 -21 0 -28 -13 -6 -11 -16 -20 -23 -20 -7 0 -6 4 3 10 8 5 11 10 6 10 -6 0
-2 6 8 13 15 11 16 18 8 34 -15 27 -39 36 -46 16 -3 -8 -4 -19 -1 -23 6 -10
-33 -52 -71 -76 -19 -13 -22 -20 -13 -30 8 -10 8 -14 0 -14 -6 0 -11 5 -11 11
0 5 -5 7 -12 3 -7 -5 -5 -11 7 -21 11 -7 14 -13 8 -13 -16 0 -46 38 -40 52 3
8 6 6 6 -5 1 -10 6 -15 11 -12 6 4 8 11 5 16 -4 5 -1 17 5 26 9 15 10 15 5 -5
-7 -23 -6 -23 17 -8 12 8 35 29 50 45 25 26 26 30 11 42 -15 12 -16 12 -9 -5
7 -19 6 -19 -14 -1 -11 10 -20 13 -20 7 0 -6 4 -13 10 -17 5 -3 7 -12 4 -20
-4 -8 -10 -12 -15 -9 -5 3 -9 -3 -10 -13 0 -13 -2 -14 -6 -4 -3 8 2 20 11 27
10 7 13 15 7 18 -5 4 -12 2 -16 -4 -3 -5 -12 -10 -18 -10 -7 0 -6 4 3 10 8 5
16 20 18 32 1 13 3 29 4 36 1 6 4 10 6 7 3 -3 12 1 20 8 10 8 13 8 9 1 -7 -12
13 -25 43 -30 8 -1 25 -5 38 -8 16 -3 22 -1 19 7 -2 7 -12 11 -21 9 -9 -2 -19
4 -23 13 -4 12 -8 13 -13 5 -9 -14 -30 -5 -30 13 0 8 3 8 9 -2 6 -9 11 -10 15
-3 4 6 13 9 21 6 8 -4 12 -10 9 -15 -3 -5 -2 -9 1 -9 9 0 38 30 31 31 -3 1
-10 3 -16 4 -5 1 -15 3 -21 4 -5 0 -7 6 -3 12 4 8 9 7 15 -2 6 -10 9 -11 9 -1
0 6 5 12 10 12 6 0 9 -5 8 -11 -2 -6 3 -14 10 -16 8 -3 10 2 6 14 -3 11 -2 14
3 7 4 -6 17 -16 28 -23 18 -11 18 -11 -5 -5 -22 6 -23 5 -11 -10 12 -14 10
-19 -10 -36 -13 -10 -19 -19 -13 -20 5 0 16 6 23 13 11 10 12 9 6 -2 -5 -9 -3
-12 6 -9 8 3 13 12 11 20 -1 9 5 21 13 28 15 13 21 35 7 26 -4 -2 -14 0 -22 5
-13 8 -13 10 0 20 13 9 12 10 -3 5 -10 -3 -26 -2 -35 3 -10 5 -29 4 -44 -1z
m-125 -83 c-3 -9 -8 -14 -10 -11 -3 3 -2 9 2 15 9 16 15 13 8 -4z m-3 -35 c0
-5 -5 -10 -11 -10 -5 0 -7 5 -4 10 3 6 8 10 11 10 2 0 4 -4 4 -10z m130 -22
c0 -5 -5 -8 -11 -8 -5 0 -7 5 -4 10 3 6 1 10 -5 10 -6 0 -8 5 -4 11 6 11 23
-6 24 -23z m-30 -28 c-8 -5 -11 -10 -6 -10 6 0 -5 -11 -24 -25 -19 -14 -39
-25 -44 -25 -6 1 1 7 16 16 15 8 32 23 38 34 6 11 16 20 23 20 7 0 6 -4 -3
-10z m-252 -20 c7 -11 8 -20 3 -20 -5 0 -12 7 -15 16 -3 8 -11 12 -17 8 -8 -4
-9 -3 -5 4 10 17 19 15 34 -8z m360 0 c7 -11 8 -20 3 -20 -5 0 -11 7 -15 15
-3 8 -10 15 -16 15 -7 0 -8 -6 0 -19 13 -25 13 -31 0 -31 -5 0 -9 3 -8 8 1 4
-3 16 -9 27 -10 18 -8 21 11 23 12 1 27 -7 34 -18z m88 -7 c23 -27 23 -44 1
-42 -8 0 -7 2 1 6 10 4 6 13 -14 34 -15 16 -24 29 -20 29 5 0 19 -12 32 -27z
m-150 -5 c-12 -40 -17 -50 -22 -46 -5 6 13 58 20 58 3 0 4 -6 2 -12z m102 -5
c-16 -15 -16 -17 0 -29 10 -8 12 -14 5 -14 -6 0 -14 4 -17 9 -7 11 -66 -16
-66 -30 0 -6 4 -8 9 -4 6 3 15 -4 21 -15 7 -13 7 -20 0 -20 -5 0 -10 7 -10 15
0 8 -6 14 -12 13 -22 -5 -14 26 9 38 13 6 20 14 15 19 -4 5 -2 5 5 1 7 -4 18
2 25 14 7 11 17 20 23 20 5 0 2 -8 -7 -17z m-135 -13 c-3 -11 -7 -20 -9 -20
-2 0 -4 9 -4 20 0 11 4 20 9 20 5 0 7 -9 4 -20z m-333 4 c0 -8 -32 -33 -42
-34 -5 0 -8 5 -8 11 0 5 5 7 10 4 6 -3 13 1 16 9 6 16 24 23 24 10z m500 -4
c0 -5 -4 -10 -10 -10 -5 0 -10 5 -10 10 0 6 5 10 10 10 6 0 10 -4 10 -10z
m-424 -25 c9 -14 14 -28 10 -32 -3 -3 -6 -1 -6 6 0 7 -4 9 -10 6 -6 -4 -7 1
-3 11 5 13 3 15 -7 9 -8 -5 -11 -4 -6 3 3 5 0 13 -6 15 -10 4 -10 6 -1 6 7 1
20 -10 29 -24z m-40 3 c5 -8 2 -9 -10 -5 -14 6 -17 3 -12 -8 3 -9 2 -14 -3
-11 -5 3 -12 -1 -15 -10 -3 -8 -10 -12 -16 -9 -5 3 -10 2 -10 -4 0 -5 5 -12
10 -14 6 -3 5 -4 -2 -3 -7 2 -13 9 -13 17 0 8 6 13 14 11 9 -2 11 3 7 13 -3 9
-2 14 3 11 5 -3 11 1 15 9 6 18 22 19 32 3z m266 -1 c15 -12 15 -14 -2 -25
-19 -11 -40 1 -26 15 3 4 6 1 6 -6 0 -7 5 -9 12 -5 7 5 5 11 -7 21 -11 7 -15
13 -9 13 5 0 17 -6 26 -13z m69 -10 c-10 -9 -11 -8 -5 6 3 10 9 15 12 12 3 -3
0 -11 -7 -18z m-182 -10 c6 -8 8 -17 4 -20 -12 -13 -40 -7 -54 10 -8 10 -9 14
-2 10 6 -4 14 -3 18 3 8 14 20 13 34 -3z m281 -2 c0 -1 -12 -2 -26 -2 -17 0
-22 2 -13 7 10 7 39 3 39 -5z m-510 0 c0 -2 -9 -9 -20 -15 -12 -6 -20 -7 -20
-1 0 5 8 12 18 14 9 3 18 5 20 6 1 0 2 -1 2 -4z m382 -2 c-6 -2 -10 -9 -7 -14
4 -5 0 -6 -7 -4 -8 3 -14 -2 -15 -13 -1 -11 6 -18 18 -19 11 -1 17 2 15 6 -3
4 1 17 10 27 14 18 14 17 3 -6 -7 -14 -13 -27 -13 -30 -1 -3 -10 -5 -21 -5
-14 0 -20 7 -21 23 -1 21 19 42 41 41 6 0 4 -3 -3 -6z m-82 -13 c0 -5 -4 -10
-10 -10 -5 0 -10 5 -10 10 0 6 5 10 10 10 6 0 10 -4 10 -10z m-328 -38 c13 -2
16 2 12 15 -5 15 -4 15 4 3 14 -19 6 -30 -21 -26 -15 2 -23 11 -24 27 -2 21
-1 21 5 4 4 -11 15 -21 24 -23z m122 3 c13 0 20 -8 23 -25 2 -18 1 -21 -6 -10
-5 8 -7 18 -4 23 3 5 -5 7 -18 5 -19 -2 -24 2 -26 22 -2 21 -1 22 5 5 4 -11
16 -20 26 -20z m40 19 c10 -2 21 -6 25 -9 10 -10 -47 3 -66 15 -17 11 -16 11
2 5 11 -4 28 -8 39 -11z m139 -11 c-2 -7 6 -11 17 -10 11 1 20 7 20 14 0 7 5
13 10 13 7 0 7 -6 1 -19 -12 -21 -58 -23 -53 -2 2 8 -3 11 -13 8 -8 -4 -15 -2
-15 4 0 6 8 9 18 7 9 -2 16 -9 15 -15z m144 -5 c-3 -8 -6 -5 -6 6 -1 11 2 17
5 13 3 -3 4 -12 1 -19z m-500 -34 c-4 -16 -5 -15 -6 3 -1 17 -6 21 -18 17 -15
-5 -16 -4 -3 5 19 13 33 -1 27 -25z m136 23 c3 -8 2 -20 -3 -26 -5 -9 -7 -4
-7 13 0 29 2 32 10 13z m179 -6 c-2 -8 3 -11 11 -8 8 3 20 1 28 -4 9 -5 4 -7
-16 -5 -17 1 -29 8 -27 14 1 7 -7 12 -17 12 -14 0 -19 -6 -16 -20 2 -11 -1
-23 -7 -26 -6 -4 -8 -3 -5 3 4 6 0 13 -8 17 -8 3 -15 11 -14 18 0 10 2 10 6 1
5 -14 24 -18 22 -5 -3 18 3 23 24 20 12 -2 21 -9 19 -17z m-95 -13 c-3 -8 -6
-5 -6 6 -1 11 2 17 5 13 3 -3 4 -12 1 -19z m-122 2 c-27 -12 -43 -12 -25 0 8
5 22 9 30 9 10 0 8 -3 -5 -9z m390 0 c-3 -5 -12 -10 -18 -10 -7 0 -6 4 3 10
19 12 23 12 15 0z m-305 -20 c0 -10 -27 -7 -37 5 -4 4 -2 5 5 1 6 -4 12 -2 12
4 0 6 5 8 10 5 6 -3 10 -10 10 -15z m-200 0 c0 -5 -7 -7 -15 -4 -11 5 -13 2
-9 -10 3 -9 2 -16 -4 -16 -8 0 -9 16 -3 38 3 7 31 0 31 -8z m26 -22 c-9 -12
-16 -19 -16 -15 0 11 24 47 28 42 2 -2 -3 -14 -12 -27z m288 8 c-3 -9 -10 -16
-15 -16 -5 0 -4 9 3 20 14 22 21 20 12 -4z m126 14 c0 -5 -4 -10 -10 -10 -5 0
-10 5 -10 10 0 6 5 10 10 10 6 0 10 -4 10 -10z m78 -4 c-7 -8 -15 -12 -17 -11
-5 6 10 25 20 25 5 0 4 -6 -3 -14z m-443 -15 c-3 -6 -11 -11 -16 -11 -5 0 -4
6 3 14 14 16 24 13 13 -3z m400 9 c-3 -5 -12 -10 -18 -10 -7 0 -6 4 3 10 19
12 23 12 15 0z m-320 -9 c-3 -2 3 -10 13 -18 16 -13 15 -13 -3 -4 -43 22 -51
30 -28 28 12 0 20 -3 18 -6z m65 -1 c0 -5 -5 -10 -11 -10 -5 0 -7 5 -4 10 3 6
8 10 11 10 2 0 4 -4 4 -10z m54 -6 c5 -14 4 -15 -9 -4 -17 14 -19 20 -6 20 5
0 12 -7 15 -16z m-154 -9 c5 3 12 0 16 -6 4 -8 3 -9 -4 -5 -7 4 -12 1 -12 -6
0 -9 -3 -9 -10 2 -5 8 -9 20 -9 25 0 6 3 4 6 -3 2 -6 9 -10 13 -7z m250 11 c0
-2 -7 -6 -15 -10 -8 -3 -15 -1 -15 4 0 6 7 10 15 10 8 0 15 -2 15 -4z m-405
-24 c-3 -3 -11 0 -18 7 -9 10 -8 11 6 5 10 -3 15 -9 12 -12z m25 -7 c-7 -8
-16 -15 -21 -15 -5 0 -1 8 9 18 20 22 31 19 12 -3z m250 15 c0 -5 -5 -10 -11
-10 -5 0 -7 5 -4 10 3 6 8 10 11 10 2 0 4 -4 4 -10z m157 3 c-4 -3 -1 -13 6
-22 11 -14 10 -14 -5 -2 -21 15 -23 31 -6 31 6 0 8 -3 5 -7z m83 -3 c0 -5 -4
-10 -10 -10 -5 0 -10 5 -10 10 0 6 5 10 10 10 6 0 10 -4 10 -10z m-204 -20 c5
1 10 -4 12 -12 3 -11 2 -11 -6 0 -5 8 -13 13 -18 12 -5 -1 -10 4 -12 12 -3 11
-2 11 6 0 5 -8 13 -13 18 -12z m-346 0 c-8 -5 -19 -10 -25 -10 -5 0 -3 5 5 10
8 5 20 10 25 10 6 0 3 -5 -5 -10z m116 -9 c1 -6 0 -7 -3 -1 -2 5 -9 8 -13 5
-5 -3 -11 -1 -14 4 -4 5 2 8 11 7 9 -2 18 -8 19 -15z m44 9 c-8 -5 -19 -10
-25 -10 -5 0 -3 5 5 10 8 5 20 10 25 10 6 0 3 -5 -5 -10z m240 0 c-8 -5 -19
-10 -25 -10 -5 0 -3 5 5 10 8 5 20 10 25 10 6 0 3 -5 -5 -10z m110 -10 c-6
-11 -16 -20 -23 -20 -7 0 -6 4 3 10 8 5 11 10 5 10 -5 0 -3 5 5 10 21 14 22
13 10 -10z m-247 -5 c-3 -9 -8 -14 -10 -11 -3 3 -2 9 2 15 9 16 15 13 8 -4z
m171 -1 c3 -8 2 -13 -3 -9 -5 3 -11 0 -13 -7 -3 -7 -7 -5 -11 6 -4 10 -3 15 3
11 6 -3 10 -1 10 4 0 16 7 13 14 -5z m-370 -6 c-5 -7 -2 -9 7 -6 10 4 15 -1
15 -12 0 -11 -5 -16 -15 -12 -10 4 -12 1 -6 -8 5 -8 4 -11 -2 -7 -5 3 -9 16
-7 29 3 28 3 28 10 28 3 0 2 -5 -2 -12z m111 -17 c-3 -6 -11 -8 -17 -5 -7 5
-9 2 -6 -8 4 -8 0 -15 -7 -15 -10 0 -11 5 -4 19 6 10 15 15 21 12 8 -5 9 -1 4
12 -5 14 -4 16 5 7 6 -6 8 -16 4 -22z m-225 4 c4 3 10 -2 13 -10 4 -10 1 -12
-10 -8 -12 5 -14 3 -8 -8 4 -8 4 -11 0 -6 -5 4 -10 18 -11 30 -2 12 0 16 2 9
3 -6 9 -10 14 -7z m41 -8 c-10 -9 -11 -8 -5 6 3 10 9 15 12 12 3 -3 0 -11 -7
-18z m253 7 c3 -8 2 -12 -4 -9 -6 3 -10 10 -10 16 0 14 7 11 14 -7z m71 -2
c-3 -3 -11 0 -18 7 -9 10 -8 11 6 5 10 -3 15 -9 12 -12z m152 -7 c0 -8 -4 -12
-9 -9 -4 3 -8 9 -8 15 0 5 4 9 8 9 5 0 9 -7 9 -15z m-241 -29 c-2 -38 -12 -39
-12 -1 0 18 3 32 7 30 3 -3 5 -15 5 -29z m47 21 c3 -8 -1 -14 -8 -14 -7 0 -11
6 -8 14 3 7 6 13 8 13 2 0 5 -6 8 -13z m-369 -13 c3 -8 2 -12 -4 -9 -6 3 -10
10 -10 16 0 14 7 11 14 -7z m602 -6 c2 -16 -19 -19 -33 -4 -4 4 -3 7 2 6 22
-5 29 1 15 11 -12 8 -12 10 -1 7 8 -2 15 -11 17 -20z m-476 -3 c0 -1 -8 -5
-18 -7 -11 -3 -19 0 -19 7 0 7 8 10 19 7 10 -2 18 -6 18 -7z m360 -8 c0 -6 -3
-7 -7 -4 -3 4 -11 3 -17 -3 -8 -6 -12 -3 -12 9 0 12 6 17 18 13 10 -2 18 -9
18 -15z m-280 3 c0 -5 -4 -10 -10 -10 -5 0 -10 5 -10 10 0 6 5 10 10 10 6 0
10 -4 10 -10z m81 -4 c-9 -11 -9 -15 1 -18 8 -3 7 -6 -4 -10 -9 -4 -15 -2 -14
5 2 15 16 37 23 37 3 0 0 -6 -6 -14z m137 -7 c2 -9 1 -10 -5 -3 -4 6 -16 10
-26 8 -9 -1 -15 1 -12 6 8 13 38 5 43 -11z m-399 -35 c-14 -13 -16 -13 -16 0
0 8 5 12 10 9 7 -4 8 1 3 13 -6 15 -5 17 5 6 11 -10 10 -15 -2 -28z m106 27
c-9 -8 -36 -10 -30 -2 2 4 11 8 20 8 8 0 13 -3 10 -6z m122 3 c-3 -3 -12 -4
-19 -1 -8 3 -5 6 6 6 11 1 17 -2 13 -5z m-29 -29 c-3 -3 -9 2 -12 12 -6 14 -5
15 5 6 7 -7 10 -15 7 -18z m182 4 c0 -5 -4 -9 -8 -9 -5 0 -9 7 -9 15 0 8 4 12
9 9 4 -3 8 -9 8 -15z m-256 -19 c-6 -6 -10 -3 -10 10 0 13 4 16 10 10 7 -7 7
-13 0 -20z m422 18 c3 -4 -1 -5 -10 -4 -8 1 -18 5 -22 8 -3 4 1 5 10 4 8 -1
18 -5 22 -8z m-449 -13 c0 -8 -4 -12 -9 -9 -5 3 -6 10 -3 15 9 13 12 11 12 -6z
m-76 -8 c-6 -8 -9 -16 -6 -19 3 -3 -3 -11 -12 -19 -16 -13 -17 -12 -4 4 7 9
10 17 6 17 -4 0 -2 7 5 15 7 8 15 15 17 15 3 0 0 -6 -6 -13z m49 8 c0 -1 -10
-10 -22 -21 -14 -12 -18 -13 -10 -3 6 9 10 18 7 21 -3 2 2 5 10 5 8 0 15 -1
15 -2z m190 1 c0 -2 -7 -7 -16 -10 -8 -3 -12 -2 -9 4 6 10 25 14 25 6z m38
-13 c-12 -15 -22 -18 -14 -4 4 5 0 11 -6 14 -7 3 -3 4 9 4 17 -1 19 -4 11 -14z
m47 7 c3 -6 -1 -7 -9 -4 -18 7 -21 14 -7 14 6 0 13 -4 16 -10z m80 1 c-9 -8
-36 -10 -30 -2 2 4 11 8 20 8 8 0 13 -3 10 -6z m80 -1 c3 -6 -1 -7 -9 -4 -18
7 -21 14 -7 14 6 0 13 -4 16 -10z m-24 -17 c13 -16 12 -17 -3 -4 -10 7 -18 15
-18 17 0 8 8 3 21 -13z m-410 -16 c-10 -9 -11 -8 -5 6 3 10 9 15 12 12 3 -3 0
-11 -7 -18z m86 6 c0 -9 -4 -10 -14 -2 -7 6 -13 12 -13 14 0 1 6 2 13 2 8 0
14 -6 14 -14z m114 0 c13 -16 12 -17 -3 -4 -17 13 -22 21 -14 21 2 0 10 -8 17
-17z m59 13 c0 -2 -8 -10 -17 -17 -16 -13 -17 -12 -4 4 13 16 21 21 21 13z
m120 0 c0 -2 -8 -10 -17 -17 -16 -13 -17 -12 -4 4 13 16 21 21 21 13z m-506
-24 c2 -4 -4 -8 -14 -8 -10 0 -16 4 -14 8 3 4 9 8 14 8 5 0 11 -4 14 -8z m156
-7 c-6 -8 -8 -20 -4 -27 5 -10 4 -10 -6 -1 -11 10 -11 15 0 28 7 8 15 15 17
15 3 0 0 -7 -7 -15z m121 2 c-6 -8 -7 -18 -3 -22 4 -5 1 -5 -6 -1 -10 6 -10
11 -1 22 6 8 14 14 16 14 3 0 0 -6 -6 -13z m-87 -16 c3 -5 -2 -15 -12 -22 -15
-12 -16 -12 -5 2 7 9 10 19 6 22 -3 4 -4 7 0 7 3 0 8 -4 11 -9z m52 -3 c3 -4
-1 -5 -10 -4 -8 1 -18 5 -22 8 -3 4 1 5 10 4 8 -1 18 -5 22 -8z m158 4 c3 -5
-1 -9 -9 -9 -8 0 -12 4 -9 9 3 4 7 8 9 8 2 0 6 -4 9 -8z m100 -1 c-8 -8 -34
-10 -38 -2 -3 4 6 7 19 7 14 0 22 -2 19 -5z m-548 -46 c-1 -8 -5 -17 -8 -21
-4 -3 -5 2 -4 13 2 10 -2 25 -8 33 -9 13 -9 13 6 2 9 -7 15 -19 14 -27z m87
23 c-6 -7 -9 -21 -8 -31 2 -9 0 -15 -5 -12 -13 8 1 55 17 55 3 0 1 -6 -4 -12z
m37 2 c0 -5 -5 -10 -11 -10 -5 0 -7 5 -4 10 3 6 8 10 11 10 2 0 4 -4 4 -10z
m356 -15 c1 -8 -1 -17 -5 -19 -4 -3 -7 6 -7 19 0 25 8 25 12 0z m-58 -10 c-3
-3 -9 2 -12 12 -6 14 -5 15 5 6 7 -7 10 -15 7 -18z m-458 0 c0 -2 -9 -3 -19
-2 -11 0 -18 5 -15 9 4 6 34 0 34 -7z m435 6 c3 -5 2 -12 -3 -15 -5 -3 -9 1
-9 9 0 17 3 19 12 6z m142 -6 c0 -8 -4 -12 -9 -9 -4 3 -8 9 -8 15 0 5 4 9 8 9
5 0 9 -7 9 -15z m-222 -15 c3 -5 1 -10 -4 -10 -6 0 -11 5 -11 10 0 6 2 10 4
10 3 0 8 -4 11 -10z m76 -33 c-10 -9 -11 -8 -5 6 3 10 9 15 12 12 3 -3 0 -11
-7 -18z m49 19 c0 -3 -4 -8 -10 -11 -5 -3 -10 -1 -10 4 0 6 5 11 10 11 6 0 10
-2 10 -4z m51 -13 c13 -16 12 -17 -3 -4 -10 7 -18 15 -18 17 0 8 8 3 21 -13z
m-371 -7 c0 -2 -7 -7 -16 -10 -8 -3 -12 -2 -9 4 6 10 25 14 25 6z m-80 -30
c-7 -7 -13 -7 -20 0 -6 6 -3 10 10 10 13 0 16 -4 10 -10z m340 -10 c0 -3 -4
-8 -10 -11 -5 -3 -10 -1 -10 4 0 6 5 11 10 11 6 0 10 -2 10 -4z m-460 -26 c0
-5 -2 -10 -4 -10 -3 0 -8 5 -11 10 -3 6 -1 10 4 10 6 0 11 -4 11 -10z m75 1
c3 -5 2 -12 -3 -15 -5 -3 -9 1 -9 9 0 17 3 19 12 6z m45 -1 c0 -5 -2 -10 -4
-10 -3 0 -8 5 -11 10 -3 6 -1 10 4 10 6 0 11 -4 11 -10z m100 -20 c0 -5 -2
-10 -4 -10 -3 0 -8 5 -11 10 -3 6 -1 10 4 10 6 0 11 -4 11 -10z m120 0 c0 -5
-2 -10 -4 -10 -3 0 -8 5 -11 10 -3 6 -1 10 4 10 6 0 11 -4 11 -10z m120 6 c0
-3 -4 -8 -10 -11 -5 -3 -10 -1 -10 4 0 6 5 11 10 11 6 0 10 -2 10 -4z m34 -4
c3 -5 -1 -9 -9 -9 -8 0 -12 4 -9 9 3 4 7 8 9 8 2 0 6 -4 9 -8z m46 -2 c0 -5
-5 -10 -11 -10 -5 0 -7 5 -4 10 3 6 8 10 11 10 2 0 4 -4 4 -10z m-484 -25 c-1
-8 -5 -17 -8 -21 -5 -4 -4 16 1 34 3 9 9 -1 7 -13z m68 7 c3 -5 -1 -9 -9 -9
-8 0 -12 4 -9 9 3 4 7 8 9 8 2 0 6 -4 9 -8z m-188 -24 c3 -4 -1 -5 -10 -4 -8
1 -18 5 -22 8 -3 4 1 5 10 4 8 -1 18 -5 22 -8z m80 -3 c-1 -8 -5 -17 -8 -21
-5 -4 -4 16 1 34 3 9 9 -1 7 -13z m159 6 c-9 -8 -36 -10 -30 -2 2 4 11 8 20 8
8 0 13 -3 10 -6z m155 -17 c0 -8 -19 -13 -24 -6 -3 5 1 9 9 9 8 0 15 -2 15 -3z
m74 -2 c2 -4 -4 -8 -14 -8 -10 0 -16 4 -14 8 3 4 9 8 14 8 5 0 11 -4 14 -8z
m-107 -34 c2 -17 0 -19 -7 -8 -5 8 -6 18 -4 22 8 12 10 10 11 -14z m-146 -135
c13 -16 12 -17 -3 -4 -10 7 -18 15 -18 17 0 8 8 3 21 -13z m-118 -228 c-3 -9
-8 -14 -10 -11 -3 3 -2 9 2 15 9 16 15 13 8 -4z m102 -13 c-3 -3 -11 0 -18 7
-9 10 -8 11 6 5 10 -3 15 -9 12 -12z m-380 -12 c3 -5 1 -10 -4 -10 -6 0 -11 5
-11 10 0 6 2 10 4 10 3 0 8 -4 11 -10z m65 4 c0 -8 -19 -13 -24 -6 -3 5 1 9 9
9 8 0 15 -2 15 -3z m160 -18 c0 -3 -4 -8 -10 -11 -5 -3 -10 -1 -10 4 0 6 5 11
10 11 6 0 10 -2 10 -4z m340 0 c0 -3 -4 -8 -10 -11 -5 -3 -10 -1 -10 4 0 6 5
11 10 11 6 0 10 -2 10 -4z m-66 -44 c3 -5 -1 -9 -9 -9 -8 0 -12 4 -9 9 3 4 7
8 9 8 2 0 6 -4 9 -8z m66 -2 c0 -5 -2 -10 -4 -10 -3 0 -8 5 -11 10 -3 6 -1 10
4 10 6 0 11 -4 11 -10z m-555 -20 c3 -6 -1 -7 -9 -4 -18 7 -21 14 -7 14 6 0
13 -4 16 -10z m550 -9 c3 -5 2 -12 -3 -15 -5 -3 -9 1 -9 9 0 17 3 19 12 6z
m-618 -18 c0 -9 -4 -10 -14 -2 -7 6 -13 12 -13 14 0 1 6 2 13 2 8 0 14 -6 14
-14z m53 13 c0 -2 -8 -10 -17 -17 -16 -13 -17 -12 -4 4 13 16 21 21 21 13z
m67 -13 c0 -9 -4 -10 -14 -2 -7 6 -13 12 -13 14 0 1 6 2 13 2 8 0 14 -6 14
-14z m169 -11 c-17 -16 -18 -16 -5 5 7 12 15 20 18 17 3 -2 -3 -12 -13 -22z
m154 22 c0 -8 -19 -13 -24 -6 -3 5 1 9 9 9 8 0 15 -2 15 -3z m36 -6 c4 -7 4
-10 -1 -6 -4 4 -15 2 -24 -5 -14 -11 -14 -10 -2 6 16 20 18 21 27 5z m101 -12
c18 -21 18 -21 -3 -3 -11 9 -23 14 -26 11 -3 -3 -8 -1 -12 4 -11 18 25 8 41
-12z m54 1 c-10 -9 -11 -8 -5 6 3 10 9 15 12 12 3 -3 0 -11 -7 -18z m-376 -4
c-1 -10 1 -25 6 -34 5 -10 4 -16 -6 -16 -8 0 -11 7 -7 16 5 14 4 14 -14 1 -19
-14 -19 -14 0 8 11 12 16 22 12 22 -4 0 -4 5 -1 10 9 15 14 12 10 -7z m-185 3
c0 -2 -8 -10 -17 -17 -16 -13 -17 -12 -4 4 13 16 21 21 21 13z m-92 -31 c-3
-3 -9 2 -12 12 -6 14 -5 15 5 6 7 -7 10 -15 7 -18z m138 13 c5 4 5 3 1 -2 -12
-15 -34 -15 -34 0 0 9 4 11 12 4 7 -5 16 -6 21 -2z m364 8 c0 -2 -6 -9 -14
-15 -11 -9 -16 -9 -22 0 -4 7 -3 9 4 5 6 -3 13 -2 17 4 6 10 15 14 15 6z
m-466 -37 c-3 -5 -11 -9 -17 -8 -8 0 -8 2 1 6 10 4 10 8 0 21 -12 15 -11 16 4
3 10 -7 15 -17 12 -22z m371 21 c3 -6 -1 -7 -9 -4 -18 7 -21 14 -7 14 6 0 13
-4 16 -10z m175 2 c0 -5 -7 -9 -15 -9 -8 0 -12 4 -9 9 3 4 9 8 15 8 5 0 9 -4
9 -8z m95 -12 c-3 -4 0 -11 5 -13 6 -3 5 -4 -1 -3 -7 1 -13 10 -15 19 -1 9 2
15 7 11 5 -3 7 -9 4 -14z m-318 -7 c-4 -3 -1 -13 6 -22 11 -14 10 -14 -5 -2
-21 15 -23 31 -6 31 6 0 8 -3 5 -7z m-207 -18 c0 -12 -19 -12 -23 0 -4 9 -1
12 9 8 7 -3 14 -7 14 -8z m58 1 c-10 -7 -14 -17 -10 -22 4 -4 -2 -2 -13 6 -30
21 -32 24 -14 18 9 -4 22 -2 30 3 21 13 26 10 7 -5z m229 8 c-3 -3 -12 -4 -19
-1 -8 3 -5 6 6 6 11 1 17 -2 13 -5z m36 -9 c-3 -9 -8 -14 -10 -11 -3 3 -2 9 2
15 9 16 15 13 8 -4z m-379 -11 c3 -8 0 -16 -6 -20 -7 -5 -8 -2 -3 6 5 9 1 11
-16 6 -13 -3 -18 -3 -11 0 6 3 10 9 8 13 -3 4 1 8 9 8 8 0 16 -6 19 -13z m426
5 c0 -15 -18 -19 -23 -6 -3 8 1 14 9 14 8 0 14 -4 14 -8z m114 0 c-2 -4 2 -10
8 -13 7 -3 2 -3 -11 0 -17 5 -21 3 -16 -6 5 -8 4 -11 -3 -6 -15 9 -5 33 13 33
8 0 12 -4 9 -8z m-639 -8 c3 -5 2 -12 -3 -15 -5 -3 -9 1 -9 9 0 17 3 19 12 6z
m398 -6 c-3 -9 -8 -14 -10 -11 -3 3 -2 9 2 15 9 16 15 13 8 -4z m-356 -1 c-3
-3 -12 -4 -19 -1 -8 3 -5 6 6 6 11 1 17 -2 13 -5z m74 -17 c-10 -9 -11 -8 -5
6 3 10 9 15 12 12 3 -3 0 -11 -7 -18z m65 11 c4 -7 3 -8 -4 -4 -7 4 -12 4 -12
-1 0 -16 15 -28 34 -28 13 0 20 -8 23 -25 2 -18 1 -21 -6 -10 -5 8 -7 18 -4
24 4 5 -3 7 -16 3 -15 -3 -24 1 -32 14 -14 27 1 53 17 27z m79 2 c-3 -5 -12
-10 -18 -10 -7 0 -6 4 3 10 19 12 23 12 15 0z m65 0 c0 -5 -2 -10 -4 -10 -3 0
-8 5 -11 10 -3 6 -1 10 4 10 6 0 11 -4 11 -10z m135 -28 c-6 -6 -34 11 -39 24
-4 11 0 10 18 -3 13 -10 23 -19 21 -21z m139 22 c3 -8 2 -12 -4 -9 -6 3 -10
10 -10 16 0 14 7 11 14 -7z m-202 -32 c13 -2 16 2 12 15 -5 15 -4 15 4 3 14
-19 6 -30 -21 -26 -15 2 -23 11 -24 27 -2 21 -1 21 5 4 4 -11 15 -21 24 -23z
m83 27 c11 -16 1 -19 -13 -3 -7 8 -8 14 -3 14 5 0 13 -5 16 -11z m88 -2 c7 4
5 -2 -3 -13 -8 -10 -15 -20 -16 -22 -1 -2 -1 10 -1 25 0 15 2 22 4 15 3 -6 10
-9 16 -5z m-543 -1 c0 -2 -7 -7 -16 -10 -8 -3 -12 -2 -9 4 6 10 25 14 25 6z
m39 -17 c-5 -11 -17 -16 -30 -14 -16 3 -19 0 -14 -13 3 -9 3 -13 -1 -9 -4 4
-13 -1 -20 -11 -11 -14 -15 -15 -26 -3 -11 12 -10 13 6 7 14 -5 17 -2 12 9 -3
9 -2 14 3 11 5 -3 11 1 14 9 4 8 15 12 27 10 15 -3 20 0 17 9 -3 7 1 13 8 13
10 0 11 -5 4 -18z m166 11 c3 -6 -1 -7 -9 -4 -18 7 -21 14 -7 14 6 0 13 -4 16
-10z m40 0 c-3 -5 -12 -10 -18 -10 -7 0 -6 4 3 10 19 12 23 12 15 0z m31 -5
c-8 -21 26 -16 36 5 6 11 7 10 5 -5 -3 -26 -49 -28 -53 -2 -1 9 2 17 8 17 6 0
7 -7 4 -15z m364 11 c0 -3 -4 -8 -10 -11 -5 -3 -10 -1 -10 4 0 6 5 11 10 11 6
0 10 -2 10 -4z m-550 -21 c8 0 19 5 23 10 5 6 7 4 5 -5 -3 -8 -15 -14 -28 -14
-13 0 -25 6 -28 14 -2 9 0 11 5 5 4 -5 15 -10 23 -10z m506 -4 c-4 -5 -16 -8
-27 -6 -15 3 -19 0 -15 -11 3 -9 1 -12 -4 -9 -6 3 -10 1 -10 -6 0 -7 -3 -10
-6 -7 -12 13 16 47 36 43 11 -2 20 1 20 7 0 6 3 9 6 5 3 -3 3 -10 0 -16z m-98
-20 c-7 -2 -14 1 -16 8 -2 6 -9 8 -14 5 -7 -4 -8 -2 -4 4 5 9 12 8 27 -1 12
-7 15 -13 7 -16z m-281 -3 c-3 -8 -6 -5 -6 6 -1 11 2 17 5 13 3 -3 4 -12 1
-19z m59 -5 c-6 -6 -36 9 -36 18 0 5 9 4 20 -3 10 -7 18 -14 16 -15z m136 5
c-7 -7 -12 -8 -12 -2 0 14 12 26 19 19 2 -3 -1 -11 -7 -17z m24 -16 c-10 -11
-16 -12 -16 -4 0 7 5 12 10 12 6 0 10 8 11 18 0 11 2 13 6 4 3 -8 -2 -21 -11
-30z m180 0 c-14 -14 -18 -14 -29 -2 -7 8 -11 14 -8 13 2 -2 11 3 20 10 14 11
14 10 2 -5 -10 -13 -10 -18 -1 -18 6 0 14 10 18 22 3 14 7 17 10 9 2 -7 -3
-20 -12 -29z m-669 22 c-3 -3 -12 -4 -19 -1 -8 3 -5 6 6 6 11 1 17 -2 13 -5z
m117 -2 c2 -4 -4 -8 -14 -8 -10 0 -16 4 -14 8 3 4 9 8 14 8 5 0 11 -4 14 -8z
m80 0 c2 -4 -4 -8 -14 -8 -10 0 -16 4 -14 8 3 4 9 8 14 8 5 0 11 -4 14 -8z
m-142 -41 c-10 -17 -22 -28 -25 -24 -4 3 -7 0 -7 -8 0 -8 -6 -21 -12 -27 -7
-7 -13 -20 -13 -30 0 -20 -27 -23 -31 -4 -1 7 0 8 3 2 9 -19 21 -10 21 16 0
18 -4 22 -11 15 -6 -6 -16 -11 -21 -11 -6 0 -3 5 6 11 11 6 15 16 11 27 -4 13
-2 13 10 -3 17 -22 27 -18 30 13 1 13 6 18 17 14 8 -3 12 -2 8 2 -3 4 1 16 10
25 24 25 26 18 4 -18z m98 29 c0 -5 -4 -10 -10 -10 -5 0 -10 5 -10 10 0 6 5
10 10 10 6 0 10 -4 10 -10z m75 0 c3 -5 1 -10 -4 -10 -6 0 -11 5 -11 10 0 6 2
10 4 10 3 0 8 -4 11 -10z m215 -8 l22 -18 -25 -17 c-23 -15 -26 -15 -31 0 -4
8 -2 21 4 28 8 9 7 15 -2 18 -8 3 -9 6 -2 6 7 1 22 -7 34 -17z m90 -3 c0 -6
-4 -7 -10 -4 -5 3 -10 11 -10 16 0 6 5 7 10 4 6 -3 10 -11 10 -16z m-258 -33
l-21 -36 21 -14 c22 -15 38 -13 38 5 0 6 -4 8 -8 5 -4 -2 -13 -1 -20 3 -9 5
-7 12 6 27 10 11 17 26 15 34 -4 12 -3 12 5 1 7 -9 12 -10 16 -2 4 6 12 11 19
11 6 0 -4 -12 -21 -26 -18 -15 -32 -31 -32 -37 0 -6 8 -3 18 6 10 10 23 17 28
17 5 0 1 -5 -9 -11 -18 -10 -17 -13 15 -46 30 -32 32 -35 16 -47 -10 -7 -14
-17 -10 -21 4 -4 -8 0 -25 11 -18 10 -33 23 -33 28 0 5 8 2 18 -7 26 -24 39
-21 17 3 -10 11 -15 20 -10 20 4 0 14 -8 21 -17 7 -10 15 -15 18 -12 4 3 -2
17 -13 30 -15 19 -22 21 -33 11 -12 -9 -23 -6 -55 18 -35 26 -42 28 -53 15
-10 -12 -10 -18 0 -30 14 -17 40 -20 40 -5 0 6 -7 10 -15 10 -8 0 -15 5 -15
10 0 7 7 7 21 0 26 -15 19 -35 -13 -35 -26 0 -58 -21 -58 -38 0 -5 8 -3 18 6
10 10 23 17 28 17 4 0 -1 -7 -13 -15 -22 -15 -22 -56 1 -52 6 1 11 -8 11 -20
0 -13 -4 -23 -10 -22 -5 0 -13 -10 -17 -23 -7 -22 -7 -22 -5 2 1 14 8 24 15
23 6 -2 12 6 12 18 0 11 -4 18 -9 14 -5 -3 -17 9 -25 26 -16 32 -12 49 17 70
4 3 3 18 -4 32 -10 23 -9 30 6 47 16 17 16 20 2 20 -9 0 -19 -9 -22 -21 -5
-16 -10 -18 -21 -8 -9 8 -14 8 -14 1 0 -6 8 -16 18 -21 9 -6 12 -11 6 -11 -5
0 -15 5 -22 12 -6 6 -15 9 -18 5 -4 -3 1 -13 10 -22 12 -12 13 -21 6 -35 -12
-22 -49 -45 -58 -36 -3 3 0 6 6 6 6 0 20 10 32 22 18 20 19 23 3 40 -15 17
-15 19 2 38 10 11 13 20 8 20 -6 0 -16 -7 -23 -15 -7 -9 -15 -13 -18 -10 -3 3
3 12 14 20 15 11 16 14 4 15 -9 0 -21 -4 -28 -10 -7 -5 -5 -2 3 7 13 15 18 15
42 3 45 -23 46 -23 39 -12 -9 15 34 26 48 12 8 -8 7 -14 -6 -21 -10 -6 -18
-17 -18 -25 0 -14 2 -14 16 0 12 12 20 13 35 5 17 -9 22 -5 35 27 8 20 18 34
21 31 3 -4 -4 -22 -15 -41z m118 33 c0 -5 -4 -8 -9 -5 -5 3 -11 -1 -15 -9 -3
-8 -10 -15 -16 -15 -5 0 -2 9 7 20 19 22 33 26 33 9z m183 -3 c7 -17 -18 -40
-33 -31 -5 3 -10 2 -10 -4 0 -23 22 -20 51 8 30 30 50 33 48 8 0 -9 -2 -9 -5
0 -4 8 -13 5 -29 -9 -22 -19 -23 -23 -10 -42 18 -25 19 -36 3 -36 -6 0 -8 3
-5 6 11 11 -13 44 -27 38 -8 -3 -17 -1 -21 5 -10 17 -22 13 -28 -10 -3 -13 0
-22 10 -26 13 -5 13 -7 -1 -15 -10 -5 -23 -5 -36 2 -14 8 -20 8 -20 0 0 -6 7
-13 15 -16 8 -4 15 -11 15 -17 0 -14 -31 -47 -44 -47 -6 0 -3 5 7 11 12 7 15
14 9 22 -12 15 -9 63 3 60 6 -1 19 -4 30 -8 19 -6 19 -6 3 8 -19 15 -25 32 -8
22 6 -3 10 0 10 8 0 7 12 24 27 38 14 13 23 18 19 12 -4 -7 -3 -13 2 -13 16 0
22 13 11 27 -7 8 -8 13 -1 13 5 0 12 -6 15 -14z m-320 -23 c-3 -7 -9 -13 -15
-13 -5 0 -7 4 -4 9 4 5 0 11 -6 14 -7 3 -3 4 8 4 14 -1 20 -6 17 -14z m257 10
c-1 -13 -30 -48 -30 -36 0 7 5 15 10 18 6 4 8 11 5 16 -4 5 -1 9 4 9 6 0 11
-3 11 -7z m-30 -8 c0 -2 -10 -14 -22 -26 -18 -17 -19 -21 -5 -16 20 8 23 -8 3
-16 -25 -10 -27 24 -4 44 25 20 28 22 28 14z m-80 -25 c24 -24 14 -27 -12 -3
-24 21 -23 4 1 -24 19 -23 38 -32 26 -13 -3 6 -2 10 3 10 6 0 12 -6 15 -14 10
-26 -30 -11 -57 21 -24 29 -24 34 2 42 1 1 11 -8 22 -19z m290 11 c0 -5 -7
-12 -16 -15 -14 -5 -15 -4 -4 9 14 17 20 19 20 6z m-620 -11 c0 -5 -4 -10 -10
-10 -5 0 -10 5 -10 10 0 6 5 10 10 10 6 0 10 -4 10 -10z m560 -1 c0 -5 -4 -7
-10 -4 -5 3 -10 1 -10 -4 0 -6 5 -11 12 -11 6 0 8 -3 4 -7 -3 -4 4 -13 16 -20
13 -7 17 -12 10 -13 -7 0 -24 12 -38 27 -19 20 -21 28 -12 35 18 11 28 10 28
-3z m-597 -30 c-6 -6 -9 -18 -6 -25 3 -8 1 -14 -5 -14 -11 0 -10 14 3 43 4 10
10 15 13 12 3 -3 1 -10 -5 -16z m70 -26 c-3 -7 -7 -13 -10 -13 -3 0 -2 7 1 15
3 9 -1 18 -9 21 -8 4 -12 10 -9 16 8 13 33 -23 27 -39z m278 5 c17 -24 40 -46
51 -51 12 -4 18 -10 15 -14 -8 -7 -57 24 -57 36 0 4 -14 22 -30 40 -17 17 -26
31 -20 31 5 0 24 -19 41 -42z m279 27 c0 6 5 3 10 -5 16 -25 11 -31 -10 -13
-11 10 -20 22 -20 28 0 5 5 3 10 -5 5 -8 10 -10 10 -5z m-580 -31 c0 -3 -7 -1
-15 6 -12 10 -15 10 -15 0 0 -8 -2 -11 -5 -8 -3 3 -3 12 1 21 5 14 8 14 20 2
8 -7 14 -17 14 -21z m455 26 c3 -5 1 -10 -4 -10 -6 0 -11 5 -11 10 0 6 2 10 4
10 3 0 8 -4 11 -10z m-365 -5 c0 -2 -9 -19 -20 -37 -11 -18 -20 -28 -20 -23 0
6 7 20 15 31 8 12 11 24 8 28 -3 3 -1 6 5 6 7 0 12 -2 12 -5z m400 -10 c0 -8
-2 -15 -4 -15 -2 0 -6 7 -10 15 -3 8 -1 15 4 15 6 0 10 -7 10 -15z m-39 -41
c-11 -15 -21 -22 -21 -15 0 12 32 50 39 45 2 -2 -6 -15 -18 -30z m-251 15 c0
-5 -4 -7 -10 -4 -5 3 -10 1 -10 -5 0 -6 7 -13 15 -16 8 -4 15 -11 15 -16 0 -6
-7 -5 -16 3 -14 11 -15 10 -12 -7 2 -15 -2 -18 -21 -16 -20 2 -22 0 -11 -12 6
-8 10 -23 7 -33 -4 -14 -5 -14 -6 4 0 12 -6 25 -11 28 -16 10 0 26 19 20 15
-4 18 0 15 22 -1 15 0 31 2 35 7 12 24 10 24 -3z m354 -4 c6 -17 -2 -45 -14
-45 -5 0 -11 9 -15 20 -11 33 16 57 29 25z m-569 -2 c-11 -3 -25 -9 -30 -14
-6 -4 -17 -3 -25 3 -12 8 -12 9 2 4 10 -3 20 -1 23 4 4 6 16 9 28 9 20 -1 21
-2 2 -6z m372 1 c-3 -3 -12 -4 -19 -1 -8 3 -5 6 6 6 11 1 17 -2 13 -5z m143
-1 c-8 -3 -24 -13 -35 -22 -20 -16 -20 -16 -1 7 11 12 26 22 35 21 14 0 14 -1
1 -6z m97 1 c-3 -3 -12 -4 -19 -1 -8 3 -5 6 6 6 11 1 17 -2 13 -5z m-451 -30
c-23 -16 -40 -19 -31 -4 3 6 13 10 21 10 8 0 14 5 14 12 0 6 3 8 7 4 5 -4 -1
-14 -11 -22z m-232 10 c9 -3 16 -11 16 -16 0 -6 -6 -5 -15 2 -12 10 -18 10
-30 0 -9 -8 -15 -8 -15 -2 0 6 6 13 13 15 6 3 13 6 14 6 1 1 8 -2 17 -5z m592
-6 c4 -7 3 -8 -4 -4 -7 4 -12 2 -12 -3 0 -6 -5 -11 -11 -11 -8 0 -8 5 1 15 15
18 17 18 26 3z m-516 -13 c9 -11 15 -13 20 -5 5 8 9 6 13 -5 4 -9 3 -14 -2
-11 -5 3 -11 -1 -15 -9 -3 -9 -12 -12 -23 -8 -15 5 -16 3 -5 -8 6 -7 12 -17
12 -23 0 -5 -11 4 -23 22 -13 17 -27 29 -31 25 -4 -4 -4 1 0 12 5 11 9 14 12
7 2 -7 8 -10 13 -7 5 4 6 0 4 -7 -4 -9 2 -14 15 -14 26 0 25 11 -2 30 -12 9
-17 16 -11 16 6 0 16 -7 23 -15z m60 -6 c0 -6 -4 -7 -10 -4 -5 3 -10 11 -10
16 0 6 5 7 10 4 6 -3 10 -11 10 -16z m260 10 c0 -5 -4 -7 -10 -4 -5 3 -10 1
-10 -6 0 -7 -3 -10 -6 -6 -8 7 4 27 17 27 5 0 9 -5 9 -11z m-407 -24 c-3 -10
0 -15 8 -13 9 2 14 -6 14 -22 -1 -20 -5 -25 -22 -23 -16 2 -21 -2 -17 -12 4
-8 2 -15 -4 -15 -6 0 -9 8 -7 18 1 10 10 16 22 15 12 -1 19 5 20 18 1 15 -1
18 -10 10 -10 -7 -13 -4 -15 15 -1 13 3 24 8 24 5 0 7 -7 3 -15z m163 -10 c-3
-9 -10 -14 -15 -10 -6 3 -9 -4 -8 -15 1 -11 7 -20 14 -20 7 0 13 -5 13 -10 0
-7 -6 -7 -19 -1 -20 11 -23 58 -3 54 7 -2 12 5 12 14 0 9 3 14 6 10 4 -3 4
-13 0 -22z m182 8 c-2 -9 -13 -18 -25 -19 -25 -4 -39 11 -22 22 7 4 9 3 5 -4
-4 -7 1 -10 14 -9 11 1 20 7 20 14 0 7 3 13 6 13 3 0 4 -7 2 -17z m82 7 c-8
-5 -19 -10 -25 -10 -5 0 -3 5 5 10 8 5 20 10 25 10 6 0 3 -5 -5 -10z m116 -2
c-12 -7 -21 -7 -28 0 -6 6 0 10 18 10 23 0 24 -2 10 -10z m64 2 c-8 -5 -19
-10 -25 -10 -5 0 -3 5 5 10 8 5 20 10 25 10 6 0 3 -5 -5 -10z m60 0 c-8 -5
-19 -10 -25 -10 -5 0 -3 5 5 10 8 5 20 10 25 10 6 0 3 -5 -5 -10z m-245 -40
c3 -6 1 -10 -4 -10 -6 0 -11 4 -11 9 0 5 -7 12 -15 15 -20 7 -16 -24 5 -42 13
-11 12 -12 -6 -3 -18 9 -25 37 -15 59 2 5 40 -18 46 -28z m25 20 c0 -5 -4 -10
-10 -10 -5 0 -10 5 -10 10 0 6 5 10 10 10 6 0 10 -4 10 -10z m48 -4 c-10 -7
-15 -16 -11 -20 4 -4 -1 -4 -10 0 -12 4 -17 2 -15 -7 2 -8 -7 -14 -22 -16
l-25 -2 25 8 c14 5 21 10 15 10 -12 2 36 41 50 40 6 0 2 -6 -7 -13z m72 4 c0
-5 -4 -10 -10 -10 -5 0 -10 5 -10 10 0 6 5 10 10 10 6 0 10 -4 10 -10z m46 -5
c-11 -8 -24 -15 -30 -15 -5 0 -1 7 10 15 10 8 24 14 29 14 6 0 1 -6 -9 -14z
m74 5 c0 -5 -4 -10 -10 -10 -5 0 -10 5 -10 10 0 6 5 10 10 10 6 0 10 -4 10
-10z m-718 -7 c-6 -2 -9 -10 -6 -15 4 -7 2 -8 -5 -4 -13 9 -5 26 12 25 9 0 8
-2 -1 -6z m75 -25 c-3 -8 -6 -5 -6 6 -1 11 2 17 5 13 3 -3 4 -12 1 -19z m70 0
c-3 -8 -6 -5 -6 6 -1 11 2 17 5 13 3 -3 4 -12 1 -19z m73 12 c0 -5 -4 -10 -10
-10 -5 0 -10 5 -10 10 0 6 5 10 10 10 6 0 10 -4 10 -10z m167 -12 c-3 -8 -6
-5 -6 6 -1 11 2 17 5 13 3 -3 4 -12 1 -19z m180 16 c-3 -3 -12 -4 -19 -1 -8 3
-5 6 6 6 11 1 17 -2 13 -5z m-207 -14 c0 -5 -2 -10 -4 -10 -3 0 -8 5 -11 10
-3 6 -1 10 4 10 6 0 11 -4 11 -10z m-25 -9 c3 -5 0 -13 -6 -17 -8 -5 -9 -3 -4
6 6 10 4 12 -8 7 -10 -3 -17 -2 -17 3 0 13 27 13 35 1z m243 -16 c2 -9 0 -21
-6 -27 -6 -6 -8 -1 -5 14 3 18 0 24 -15 25 -14 1 -19 -4 -18 -19 0 -12 -6 -23
-14 -25 -9 -3 -11 -1 -5 4 6 4 10 15 10 23 -2 24 5 30 28 26 12 -1 24 -11 25
-21z m77 15 c3 -5 0 -12 -6 -16 -7 -4 -9 -3 -5 4 4 7 -2 10 -15 9 -16 -1 -19
-7 -16 -24 2 -12 0 -20 -4 -17 -9 5 -12 37 -4 45 8 9 45 8 50 -1z m-529 -22
c-9 -5 -23 -5 -32 0 -12 6 -7 9 16 9 23 0 28 -3 16 -9z m34 2 c0 -5 -10 -15
-22 -21 l-23 -12 20 21 c23 24 25 25 25 12z m117 -12 c2 -18 0 -20 -7 -8 -12
18 -13 30 -2 30 4 0 9 -10 9 -22z m403 12 c0 -5 -5 -10 -11 -10 -5 0 -7 5 -4
10 3 6 8 10 11 10 2 0 4 -4 4 -10z m-325 -10 c3 -5 1 -10 -4 -10 -6 0 -11 5
-11 10 0 6 2 10 4 10 3 0 8 -4 11 -10z m-305 -4 c0 -2 -7 -7 -16 -10 -8 -3
-12 -2 -9 4 6 10 25 14 25 6z m37 -2 c-3 -3 -12 -4 -19 -1 -8 3 -5 6 6 6 11 1
17 -2 13 -5z m95 -1 c-6 -2 -9 -10 -6 -15 4 -7 2 -8 -5 -4 -13 9 -5 26 12 25
9 0 8 -2 -1 -6z m73 -14 c-4 -5 -12 -9 -18 -8 -9 0 -8 2 1 6 6 2 9 10 6 15 -4
7 -2 8 5 4 6 -4 9 -12 6 -17z m142 15 c-3 -3 -12 -4 -19 -1 -8 3 -5 6 6 6 11
1 17 -2 13 -5z m57 -3 c3 -4 -6 -6 -19 -3 -14 2 -25 6 -25 8 0 8 39 4 44 -5z
m42 -3 c4 -7 4 -10 -1 -6 -4 4 -14 0 -22 -10 -13 -15 -13 -15 -3 6 12 25 16
27 26 10z m169 -6 c-3 -3 -11 0 -18 7 -9 10 -8 11 6 5 10 -3 15 -9 12 -12z
m-605 -12 c0 -5 -2 -10 -4 -10 -3 0 -8 5 -11 10 -3 6 -1 10 4 10 6 0 11 -4 11
-10z m34 -5 c-4 -8 -8 -15 -10 -15 -2 0 -4 7 -4 15 0 8 4 15 10 15 5 0 7 -7 4
-15z m62 3 c4 -7 3 -8 -4 -4 -7 4 -12 2 -12 -5 0 -7 -3 -10 -6 -6 -6 5 3 27
11 27 2 0 7 -5 11 -12z m64 0 c0 -4 -4 -8 -9 -8 -6 0 -12 4 -15 8 -3 5 1 9 9
9 8 0 15 -4 15 -9z m120 -24 c0 -2 -11 2 -25 8 -14 6 -25 15 -25 20 0 5 11 1
25 -8 14 -9 25 -18 25 -20z m10 21 c19 -22 8 -25 -12 -3 -10 10 -14 18 -9 18
5 0 14 -7 21 -15z m30 5 c0 -5 -2 -10 -4 -10 -3 0 -8 5 -11 10 -3 6 -1 10 4
10 6 0 11 -4 11 -10z m40 6 c0 -3 -4 -8 -10 -11 -5 -3 -10 -1 -10 4 0 6 5 11
10 11 6 0 10 -2 10 -4z m136 -22 c1 -9 0 -13 -4 -10 -3 4 -7 14 -8 22 -1 9 0
13 4 10 3 -4 7 -14 8 -22z m52 5 c3 -11 2 -11 -7 1 -10 13 -12 13 -21 0 -5 -8
-10 -10 -10 -4 0 27 31 30 38 3z m28 6 c-1 -8 -5 -17 -8 -21 -5 -4 -4 16 1 34
3 9 9 -1 7 -13z m67 0 c-3 -9 -8 -14 -10 -11 -3 3 -2 9 2 15 9 16 15 13 8 -4z
m-586 -10 c0 -8 -4 -15 -9 -15 -10 0 -11 14 -1 23 9 10 10 9 10 -8z m163 -6
c0 -5 -4 -9 -8 -9 -5 0 -9 7 -9 15 0 8 4 12 9 9 4 -3 8 -9 8 -15z m240 10 c12
-8 10 -9 -9 -4 -17 5 -22 4 -16 -5 5 -9 4 -11 -4 -6 -6 4 -9 12 -6 17 8 12 16
11 35 -2z m157 -3 c0 -8 -6 -12 -15 -9 -11 5 -11 7 0 14 7 5 13 9 14 9 0 0 1
-6 1 -14z m-661 -8 c4 -7 4 -10 -1 -6 -4 4 -14 0 -22 -10 -13 -15 -13 -15 -3
6 12 25 16 27 26 10z m161 5 c-4 -3 0 -11 8 -17 11 -8 12 -15 4 -26 -9 -13
-10 -13 -6 2 3 9 -1 19 -9 22 -14 5 -11 26 3 26 4 0 3 -3 0 -7z m268 -22 c-6
-5 -25 10 -25 20 0 5 6 4 14 -3 8 -7 12 -15 11 -17z m-388 -3 c-3 -8 -6 -5 -6
6 -1 11 2 17 5 13 3 -3 4 -12 1 -19z m193 0 c0 -6 -6 -5 -15 2 -8 7 -15 14
-15 16 0 2 7 1 15 -2 8 -4 15 -11 15 -16z m139 -1 c12 -15 12 -17 -3 -11 -9 3
-16 13 -16 22 0 8 1 13 3 11 1 -2 9 -12 16 -22z m-293 1 c5 -7 3 -8 -6 -3 -10
6 -12 4 -6 -11 5 -14 4 -16 -5 -7 -6 6 -8 16 -5 22 9 14 13 14 22 -1z m46 -20
c-8 -8 -9 -4 -5 13 4 13 8 18 11 10 2 -7 -1 -18 -6 -23z m409 15 c13 -15 12
-15 -8 -4 -24 12 -29 21 -14 21 5 0 15 -7 22 -17z m54 7 c3 -6 -1 -7 -9 -4
-18 7 -21 14 -7 14 6 0 13 -4 16 -10z m-331 -9 c3 -5 -1 -11 -9 -14 -9 -4 -12
-1 -8 9 6 16 10 17 17 5z m403 -6 c0 -8 -4 -15 -9 -15 -10 0 -11 14 -1 23 9
10 10 9 10 -8z m-640 -2 c-4 -3 -1 -13 6 -22 11 -14 10 -14 -5 -2 -21 15 -23
31 -6 31 6 0 8 -3 5 -7z m434 -16 c-10 -9 -11 -8 -5 6 3 10 9 15 12 12 3 -3 0
-11 -7 -18z m-231 -6 c0 -13 -29 -8 -34 5 -3 7 2 10 15 7 10 -3 19 -9 19 -12z
m357 4 c0 -8 -4 -15 -9 -15 -10 0 -11 14 -1 23 9 10 10 9 10 -8z m-477 -5 c0
-5 -4 -10 -10 -10 -5 0 -10 5 -10 10 0 6 5 10 10 10 6 0 10 -4 10 -10z m231
-17 c-12 -20 -14 -14 -5 12 4 9 9 14 11 11 3 -2 0 -13 -6 -23z m353 18 c3 -5
-1 -11 -9 -14 -9 -4 -12 -1 -8 9 6 16 10 17 17 5z m-623 -25 c-5 -6 -7 -19 -6
-28 2 -9 -7 -25 -18 -35 -22 -18 -22 -18 -5 2 20 24 20 36 -1 53 -14 11 -14
11 3 5 12 -4 17 -3 13 4 -3 5 0 10 8 10 9 0 11 -4 6 -11z m199 4 c-13 -8 -8
-14 11 -12 3 1 6 -6 6 -13 0 -10 -4 -12 -12 -5 -7 5 -16 6 -21 2 -5 -4 -6 -3
-2 2 4 5 4 14 -2 20 -6 8 -2 12 13 13 17 2 19 0 7 -7z m123 -7 c-3 -7 -6 -13
-8 -13 -2 0 -5 6 -8 13 -3 8 1 14 8 14 7 0 11 -6 8 -14z m40 0 c-4 -10 -2 -14
4 -10 5 3 10 -1 10 -9 0 -13 -2 -13 -15 0 -8 8 -11 19 -8 25 11 17 16 13 9 -6z
m118 3 c-5 -6 -7 -19 -6 -28 2 -9 -7 -25 -18 -35 -22 -18 -22 -18 -5 2 20 24
20 36 -1 53 -14 11 -14 11 3 5 12 -4 17 -3 13 4 -3 5 0 10 8 10 9 0 11 -4 6
-11z m-406 -24 c-1 -9 5 -26 13 -37 16 -19 16 -19 -3 -3 -18 17 -31 73 -14 63
4 -3 6 -13 4 -23z m22 6 c-3 -8 -6 -5 -6 6 -1 11 2 17 5 13 3 -3 4 -12 1 -19z
m-157 6 c0 -8 -19 -13 -24 -6 -3 5 1 9 9 9 8 0 15 -2 15 -3z m227 -16 c-3 -8
-6 -5 -6 6 -1 11 2 17 5 13 3 -3 4 -12 1 -19z m404 -1 c-10 -9 -11 -8 -5 6 3
10 9 15 12 12 3 -3 0 -11 -7 -18z m43 15 c3 -5 -1 -9 -9 -9 -8 0 -12 4 -9 9 3
4 7 8 9 8 2 0 6 -4 9 -8z m-644 -18 c0 -8 -19 -13 -24 -6 -3 5 1 9 9 9 8 0 15
-2 15 -3z m320 0 c0 -8 -19 -13 -24 -6 -3 5 1 9 9 9 8 0 15 -2 15 -3z m30 -2
c0 -12 -22 -32 -34 -32 -6 0 -3 5 7 11 9 6 15 14 12 20 -4 5 -1 9 4 9 6 0 11
-4 11 -8z m130 2 c0 -8 -19 -13 -24 -6 -3 5 1 9 9 9 8 0 15 -2 15 -3z m-509
-21 c13 -16 12 -17 -3 -4 -10 7 -18 15 -18 17 0 8 8 3 21 -13z m199 13 c0 -2
-8 -10 -17 -17 -16 -13 -17 -12 -4 4 13 16 21 21 21 13z m121 -13 c13 -16 12
-17 -3 -4 -10 7 -18 15 -18 17 0 8 8 3 21 -13z m160 0 c13 -16 12 -17 -3 -4
-10 7 -18 15 -18 17 0 8 8 3 21 -13z m144 -3 c10 -11 16 -20 13 -20 -3 0 -13
9 -23 20 -10 11 -16 20 -13 20 3 0 13 -9 23 -20z m45 6 c-7 -7 -13 -7 -20 0
-6 6 -3 10 10 10 13 0 16 -4 10 -10z m-692 -17 c9 -12 9 -16 -1 -16 -7 0 -14
9 -14 20 -1 11 -1 18 0 16 2 -2 8 -11 15 -20z m243 8 c-6 -8 -9 -16 -6 -19 3
-2 -2 -5 -10 -5 -13 0 -13 3 2 19 19 21 31 25 14 5z m72 -5 c15 -16 15 -19 2
-19 -8 0 -13 3 -10 5 3 3 0 11 -6 19 -17 20 -5 16 14 -5z m160 0 c15 -16 15
-19 2 -19 -8 0 -13 3 -10 5 3 3 0 11 -6 19 -17 20 -5 16 14 -5z m-189 -10 c2
-4 -4 -8 -14 -8 -10 0 -16 4 -14 8 3 4 9 8 14 8 5 0 11 -4 14 -8z m-167 -18
c-8 -9 -47 -13 -51 -6 -2 4 9 8 25 8 17 1 28 0 26 -2z m268 -3 c-9 -8 -36 -10
-30 -2 2 4 11 8 20 8 8 0 13 -3 10 -6z m212 3 c-8 -9 -47 -13 -51 -6 -2 4 9 8
25 8 17 1 28 0 26 -2z m-599 -34 c-7 -10 -14 -17 -17 -15 -4 4 18 35 25 35 2
0 -1 -9 -8 -20z m38 5 c-1 -8 -5 -17 -8 -21 -5 -4 -4 16 1 34 3 9 9 -1 7 -13z
m159 7 c-3 -3 0 -10 5 -17 7 -8 5 -12 -5 -12 -8 0 -13 3 -10 5 3 3 0 10 -5 17
-7 8 -5 12 5 12 8 0 13 -3 10 -5z m295 4 c0 -2 -8 -10 -17 -17 -16 -13 -17
-12 -4 4 13 16 21 21 21 13z m61 -13 c13 -16 12 -17 -3 -4 -10 7 -18 15 -18
17 0 8 8 3 21 -13z m85 -17 c-2 -38 -12 -39 -12 -1 0 18 3 32 7 30 3 -3 5 -15
5 -29z m40 18 c-1 -8 -6 -17 -12 -21 -5 -4 -6 -4 -2 1 4 5 3 14 -2 21 -7 8 -5
12 4 12 8 0 13 -6 12 -13z m-262 -24 c-6 -6 -10 -3 -10 10 0 13 4 16 10 10 7
-7 7 -13 0 -20z m-259 10 c3 -5 1 -10 -4 -10 -6 0 -11 5 -11 10 0 6 2 10 4 10
3 0 8 -4 11 -10z m165 0 c0 -5 -5 -10 -11 -10 -5 0 -7 5 -4 10 3 6 8 10 11 10
2 0 4 -4 4 -10z m51 -7 c13 -16 12 -17 -3 -4 -10 7 -18 15 -18 17 0 8 8 3 21
-13z m-260 -26 c-10 -9 -11 -8 -5 6 3 10 9 15 12 12 3 -3 0 -11 -7 -18z m106
-2 c0 -8 -4 -12 -9 -9 -5 3 -6 10 -3 15 9 13 12 11 12 -6z m223 -1 c0 -8 -19
-13 -24 -6 -3 5 1 9 9 9 8 0 15 -2 15 -3z m-120 -18 c0 -2 -7 -7 -16 -10 -8
-3 -12 -2 -9 4 6 10 25 14 25 6z m250 -20 c0 -2 -8 -10 -17 -17 -16 -13 -17
-12 -4 4 13 16 21 21 21 13z m75 -6 c-3 -5 -12 -10 -18 -10 -7 0 -6 4 3 10 19
12 23 12 15 0z m-565 -40 c0 -5 -5 -10 -11 -10 -5 0 -7 5 -4 10 3 6 8 10 11
10 2 0 4 -4 4 -10z m395 0 c3 -5 1 -10 -4 -10 -6 0 -11 5 -11 10 0 6 2 10 4
10 3 0 8 -4 11 -10z m125 0 c0 -5 -5 -10 -11 -10 -5 0 -7 5 -4 10 3 6 8 10 11
10 2 0 4 -4 4 -10z m-544 -45 c-1 -8 -5 -17 -8 -21 -5 -4 -4 16 1 34 3 9 9 -1
7 -13z m124 5 c0 -5 -5 -10 -11 -10 -5 0 -7 5 -4 10 3 6 8 10 11 10 2 0 4 -4
4 -10z m236 -5 c-1 -8 -5 -17 -8 -21 -5 -4 -4 16 1 34 3 9 9 -1 7 -13z m40 0
c-1 -8 -5 -17 -8 -21 -5 -4 -4 16 1 34 3 9 9 -1 7 -13z m240 0 c-1 -8 -5 -17
-8 -21 -5 -4 -4 16 1 34 3 9 9 -1 7 -13z m-476 -15 c0 -5 -5 -10 -11 -10 -5 0
-7 5 -4 10 3 6 8 10 11 10 2 0 4 -4 4 -10z m94 -2 c-3 -4 -11 -5 -19 -1 -21 7
-19 12 4 10 11 0 18 -5 15 -9z m250 4 c3 -5 -1 -9 -9 -9 -8 0 -12 4 -9 9 3 4
7 8 9 8 2 0 6 -4 9 -8z m93 -7 c0 -8 -4 -12 -9 -9 -5 3 -6 10 -3 15 9 13 12
11 12 -6z m-426 -48 c-10 -9 -11 -8 -5 6 3 10 9 15 12 12 3 -3 0 -11 -7 -18z
m404 13 c3 -5 1 -10 -4 -10 -6 0 -11 5 -11 10 0 6 2 10 4 10 3 0 8 -4 11 -10z
m40 -9 c3 -5 2 -12 -3 -15 -5 -3 -9 1 -9 9 0 17 3 19 12 6z m-575 -5 c0 -2 -7
-7 -16 -10 -8 -3 -12 -2 -9 4 6 10 25 14 25 6z m285 -6 c3 -6 -1 -7 -9 -4 -18
7 -21 14 -7 14 6 0 13 -4 16 -10z m-74 -127 c13 -16 12 -17 -3 -4 -10 7 -18
15 -18 17 0 8 8 3 21 -13z m-154 -28 c0 -8 -4 -12 -9 -9 -5 3 -6 10 -3 15 9
13 12 11 12 -6z m78 6 c3 -5 2 -12 -3 -15 -5 -3 -9 1 -9 9 0 17 3 19 12 6z"/>
<path d="M1545 4350 c-3 -5 3 -10 15 -10 12 0 18 5 15 10 -3 6 -10 10 -15 10
-5 0 -12 -4 -15 -10z"/>
<path d="M995 3049 c-4 -6 -4 -13 0 -17 4 -4 10 -1 12 6 3 6 10 9 15 6 7 -4 8
-2 4 4 -9 15 -23 15 -31 1z"/>
<path d="M1040 2921 c0 -5 5 -13 10 -16 6 -3 10 -2 10 4 0 5 -4 13 -10 16 -5
3 -10 2 -10 -4z"/>
<path d="M1190 2926 c0 -9 5 -16 10 -16 6 0 10 4 10 9 0 6 -4 13 -10 16 -5 3
-10 -1 -10 -9z"/>
<path d="M3679 4617 c7 -9 10 -17 5 -17 -4 0 -3 -5 4 -12 8 -8 15 -9 23 -1 7
7 2 16 -18 28 -24 16 -26 16 -14 2z"/>
<path d="M4165 4622 c-6 -4 -9 -18 -8 -32 2 -14 4 -31 5 -38 1 -8 5 -9 11 -3
7 7 6 15 -1 24 -9 11 -7 17 13 27 13 7 22 17 19 22 -3 5 -12 1 -20 -9 -13 -16
-14 -16 -8 0 7 19 4 21 -11 9z"/>
<path d="M1860 4580 c-7 -16 -16 -30 -21 -30 -5 0 -9 -5 -9 -11 0 -5 5 -7 10
-4 6 3 10 2 10 -3 0 -6 -7 -12 -15 -16 -8 -3 -15 -11 -15 -17 0 -9 3 -9 14 0
10 9 15 8 19 -3 4 -9 1 -13 -6 -10 -7 2 -13 -4 -14 -16 -2 -24 1 -25 26 -3 11
9 17 21 14 26 -3 5 -6 24 -8 42 -2 30 1 33 21 29 22 -4 23 -3 12 21 -15 33
-23 32 -38 -5z"/>
<path d="M3717 4584 c-14 -18 -16 -28 -8 -38 6 -7 7 -17 3 -21 -4 -5 -1 -5 6
-1 8 5 10 16 6 29 -3 12 -3 19 1 15 15 -14 13 -73 -3 -91 -18 -20 -9 -36 10
-15 36 38 40 58 18 88 -11 15 -17 35 -14 44 9 23 2 19 -19 -10z"/>
<path d="M1910 4582 c0 -7 5 -12 12 -12 20 0 -1 -13 -24 -15 -14 -1 -22 -9
-23 -23 -1 -17 1 -19 12 -11 9 9 17 8 28 -1 18 -15 20 1 3 19 -9 10 -9 12 -1
7 19 -11 27 15 9 32 -10 11 -16 12 -16 4z"/>
<path d="M3516 4577 c-15 -11 -16 -18 -9 -32 11 -20 56 -29 50 -11 -2 6 -11
11 -20 11 -8 0 -19 4 -24 9 -4 5 -3 6 5 2 7 -4 12 -2 12 5 0 8 3 9 13 0 8 -6
18 -7 22 -3 5 4 5 1 1 -5 -4 -8 4 -24 19 -39 22 -21 27 -23 39 -11 15 14 38
15 69 2 14 -6 15 -10 6 -21 -14 -17 2 -19 19 -2 17 17 15 28 -4 28 -10 0 -14
5 -10 15 4 11 0 15 -12 13 -9 -2 -20 -7 -23 -11 -3 -5 -20 5 -37 22 -17 18
-33 27 -37 21 -8 -13 -44 -7 -54 8 -5 9 -12 9 -25 -1z m104 -36 c5 -11 6 -22
2 -25 -14 -8 -46 20 -38 32 11 17 24 15 36 -7z"/>
<path d="M3590 4541 c0 -5 7 -11 14 -14 10 -4 13 -1 9 9 -6 15 -23 19 -23 5z"/>
<path d="M1765 4561 c-7 -12 12 -24 25 -16 11 7 4 25 -10 25 -5 0 -11 -4 -15
-9z"/>
<path d="M3780 4561 c0 -6 9 -9 20 -8 11 1 20 5 20 9 0 4 -9 8 -20 8 -11 0
-20 -4 -20 -9z"/>
<path d="M3870 4561 c0 -6 5 -13 10 -16 6 -3 10 1 10 9 0 9 -4 16 -10 16 -5 0
-10 -4 -10 -9z"/>
<path d="M4110 4560 c0 -5 5 -10 10 -10 6 0 10 5 10 10 0 6 -4 10 -10 10 -5 0
-10 -4 -10 -10z"/>
<path d="M1641 4532 c-8 -15 -5 -18 25 -19 28 0 32 2 23 13 -9 11 -15 12 -26
3 -11 -10 -12 -9 -7 5 8 22 -3 21 -15 -2z"/>
<path d="M1942 4518 c8 -12 25 -28 39 -37 l24 -15 -21 24 c-12 14 -20 30 -18
35 3 6 -5 11 -17 12 -19 2 -20 0 -7 -19z"/>
<path d="M3528 4512 c-10 -2 -18 -7 -18 -12 0 -12 53 -5 57 7 4 10 -9 12 -39
5z"/>
<path d="M3923 4500 c0 -9 8 -16 17 -16 9 0 17 7 17 16 1 9 -6 16 -17 16 -11
0 -18 -7 -17 -16z"/>
<path d="M4043 4505 c2 -5 10 -10 17 -10 7 0 15 5 17 10 2 6 -6 11 -17 11 -11
0 -19 -5 -17 -11z"/>
<path d="M1790 4503 c0 -13 29 -38 35 -31 3 3 -4 13 -15 23 -11 10 -20 13 -20
8z"/>
<path d="M2050 3448 c0 -4 12 -10 28 -14 71 -15 143 -65 134 -92 -2 -6 6 -20
17 -31 14 -14 16 -21 8 -21 -11 0 -12 -10 -7 -42 3 -24 6 -57 5 -75 0 -17 3
-29 7 -27 4 3 8 0 8 -5 0 -6 -4 -11 -8 -11 -5 0 -9 -7 -9 -15 0 -8 4 -12 9 -9
4 3 8 0 8 -5 0 -6 -4 -11 -8 -11 -4 0 -8 -11 -8 -24 0 -14 2 -23 6 -21 3 1 11
-4 19 -12 12 -13 11 -14 -6 -9 -15 5 -19 1 -19 -19 0 -14 4 -25 9 -25 5 0 7 6
4 13 -3 8 5 13 22 14 23 2 24 1 6 -7 -11 -5 -15 -9 -10 -10 6 0 1 -6 -10 -13
-21 -13 -31 -37 -16 -37 5 0 12 7 15 16 3 9 12 14 19 11 6 -2 24 2 40 10 16 8
27 9 27 3 0 -5 -7 -10 -15 -10 -8 0 -15 -5 -15 -11 0 -5 -4 -7 -10 -4 -5 3
-10 1 -10 -4 0 -6 -5 -11 -11 -11 -5 0 -7 5 -4 10 10 17 -4 11 -24 -9 -20 -20
-20 -20 0 -26 10 -4 19 -11 19 -18 0 -8 -3 -8 -12 1 -18 18 -32 14 -17 -5 10
-11 10 -14 2 -9 -7 4 -13 3 -13 -2 0 -14 28 -23 34 -11 2 5 3 4 2 -3 -2 -7
-10 -12 -18 -10 -8 1 -15 -4 -15 -13 0 -8 4 -12 9 -9 4 3 8 0 8 -5 0 -6 -5
-11 -11 -11 -5 0 -8 -4 -4 -10 3 -5 13 -7 23 -4 12 4 11 1 -4 -8 -15 -10 -20
-23 -20 -53 1 -22 5 -43 11 -47 6 -5 4 -8 -5 -8 -13 0 -13 -1 0 -10 8 -5 10
-10 3 -10 -15 0 -11 -23 7 -46 14 -18 14 -18 -3 -5 -17 13 -18 12 -15 -10 5
-36 16 -48 38 -44 12 2 18 0 15 -5 -6 -9 -24 -8 -42 3 -14 9 -13 -50 1 -72 6
-10 5 -12 -2 -7 -8 5 -12 -5 -13 -31 0 -21 -4 -47 -8 -58 -5 -12 -4 -26 3 -34
8 -11 8 -13 0 -8 -14 8 -47 -26 -37 -37 5 -4 4 -7 -2 -6 -13 3 -75 -22 -75
-30 0 -4 -13 -5 -30 -2 -18 3 -30 0 -30 -7 0 -6 9 -12 20 -12 11 -1 26 -2 33
-3 6 -1 17 2 24 6 6 5 14 5 16 0 7 -9 173 -9 183 1 4 4 13 2 20 -4 9 -7 19 -7
33 0 12 7 22 7 25 2 7 -10 25 -9 43 2 6 4 14 3 18 -3 3 -5 11 -10 16 -10 6 0
8 4 4 9 -3 6 6 7 22 2 33 -9 74 -8 91 3 7 4 12 3 12 -1 0 -17 277 0 313 19 10
5 14 14 11 20 -4 7 -3 8 5 4 6 -4 8 -12 5 -18 -5 -8 -1 -9 10 -5 10 4 22 7 27
7 6 0 7 5 3 12 -4 7 -3 8 5 4 14 -9 113 37 132 61 12 15 12 16 -3 10 -10 -3
-20 -2 -23 3 -3 4 7 7 22 5 20 -2 34 5 50 23 12 14 20 30 17 34 -3 5 0 7 6 6
15 -4 73 100 66 118 -3 8 -2 13 3 10 5 -3 12 1 15 10 10 25 7 36 -6 29 -7 -4
-6 -1 3 7 20 17 35 77 38 156 2 69 -4 89 -23 73 -9 -7 -12 -2 -13 22 -1 23 1
26 5 12 8 -24 32 -31 32 -10 0 8 -4 15 -10 15 -5 0 -10 5 -10 11 0 5 5 7 12 3
7 -4 8 -3 4 5 -4 6 -9 26 -11 43 -6 41 -10 44 -36 19 -13 -12 -27 -21 -31 -21
-5 0 3 10 18 23 l26 23 -41 0 c-23 -1 -39 -5 -37 -11 1 -5 11 -9 21 -7 14 3
15 1 4 -10 -11 -12 -15 -12 -29 1 -9 9 -15 19 -13 23 2 3 -5 9 -14 12 -10 2
-3 3 15 1 22 -2 32 0 29 8 -2 7 -13 11 -23 9 -16 -2 -17 -1 -4 8 13 9 13 11 0
19 -8 6 -12 12 -9 15 3 3 17 -8 31 -24 14 -16 23 -32 20 -35 -3 -3 2 -5 12 -5
10 0 14 5 10 11 -5 8 -1 8 14 0 27 -14 35 -14 25 2 -4 6 -9 21 -10 32 -2 10
-8 22 -14 25 -5 4 -9 11 -8 16 3 20 -2 26 -14 16 -10 -9 -17 -6 -30 8 -9 11
-13 20 -7 20 5 0 13 -7 18 -16 14 -25 24 0 12 30 -5 14 -14 26 -20 26 -6 0 -8
5 -5 10 3 6 1 10 -4 10 -6 0 -11 6 -11 14 0 19 -128 146 -146 146 -8 0 -14 4
-14 8 0 13 -70 43 -82 36 -7 -4 -8 -2 -4 4 8 13 -69 36 -86 26 -6 -4 -8 -3 -5
3 4 7 -12 14 -41 19 -63 10 -762 13 -762 2z m640 -33 c35 -8 69 -11 74 -8 5 3
6 1 2 -5 -6 -11 5 -15 30 -11 4 0 10 -3 13 -8 3 -4 30 -26 59 -48 28 -21 52
-43 52 -49 0 -5 3 -6 7 -3 3 4 14 -7 24 -23 11 -17 24 -30 29 -30 6 0 8 -4 5
-10 -3 -5 0 -10 7 -10 8 0 15 -10 15 -22 1 -13 8 -27 16 -33 8 -5 12 -16 9
-24 -3 -9 0 -11 8 -6 8 5 11 3 8 -6 -3 -8 0 -23 5 -34 6 -11 12 -26 13 -33 1
-8 6 -21 10 -30 7 -16 9 -25 12 -47 1 -6 16 -19 32 -28 35 -21 38 -32 10 -47
-14 -7 -20 -7 -20 0 0 5 7 10 15 10 20 0 19 10 -2 26 -24 18 -33 17 -33 -2 0
-9 5 -12 13 -8 9 6 9 5 0 -8 -7 -8 -10 -17 -7 -20 8 -9 8 -144 -1 -158 -6 -9
-4 -11 6 -5 12 7 12 6 1 -7 -7 -9 -14 -31 -16 -49 -6 -58 -47 -156 -93 -222
-35 -51 -40 -63 -20 -51 8 5 8 3 -2 -9 -7 -9 -17 -14 -23 -11 -5 3 -22 -8 -39
-25 -16 -17 -34 -31 -40 -31 -5 0 -8 -3 -6 -7 3 -5 -6 -9 -20 -10 -14 0 -29
-6 -33 -13 -4 -6 -11 -11 -16 -10 -5 1 -29 -1 -54 -4 -102 -13 -180 -4 -222
25 -14 11 -31 19 -38 19 -6 0 -8 5 -5 10 3 6 0 13 -8 16 -14 5 -22 23 -34 74
-2 8 -4 43 -6 77 -1 37 -6 59 -12 55 -5 -3 -4 2 4 11 11 14 11 17 0 17 -9 0
-10 3 -4 8 12 8 13 82 2 100 -5 6 -4 12 1 12 10 0 9 97 -2 107 -9 9 -8 25 2
19 11 -7 9 67 -3 79 -6 6 -16 11 -24 13 -26 6 -40 30 -36 65 2 29 0 35 -14 30
-14 -4 -14 -3 -1 6 11 8 18 7 28 -6 6 -9 12 -22 12 -27 0 -6 -5 -4 -10 4 -7
11 -10 12 -10 2 0 -8 8 -21 18 -30 9 -10 13 -14 8 -9 -21 15 -28 6 -11 -13 10
-11 20 -18 23 -15 3 3 10 1 16 -4 8 -7 11 3 11 31 1 32 -1 36 -11 24 -11 -16
-24 -12 -24 7 0 6 3 8 6 4 4 -3 13 1 21 9 18 18 9 32 -10 16 -11 -9 -17 -6
-27 13 -7 13 -17 22 -22 19 -4 -3 -8 0 -8 5 0 18 17 12 33 -11 12 -19 17 -21
29 -10 16 16 19 204 3 195 -5 -3 -4 0 3 8 15 16 16 33 1 23 -8 -5 -8 -1 0 14
14 27 14 35 -1 26 -7 -5 -8 -3 -2 7 4 8 9 37 10 64 2 28 3 51 3 53 2 8 205 -2
261 -13z m-339 -58 c-6 -8 -7 -18 -3 -22 4 -5 1 -5 -6 -1 -10 6 -10 11 -1 22
6 8 14 14 16 14 3 0 0 -6 -6 -13z m54 -5 c-3 -3 -11 0 -18 7 -9 10 -8 11 6 5
10 -3 15 -9 12 -12z m505 -12 c0 -5 -5 -10 -11 -10 -5 0 -7 5 -4 10 3 6 8 10
11 10 2 0 4 -4 4 -10z m-625 -9 c3 -5 2 -12 -3 -15 -5 -3 -9 1 -9 9 0 17 3 19
12 6z m745 -31 c0 -5 -2 -10 -4 -10 -3 0 -8 5 -11 10 -3 6 -1 10 4 10 6 0 11
-4 11 -10z m-643 -25 c0 -8 -4 -12 -9 -9 -5 3 -6 10 -3 15 9 13 12 11 12 -6z
m-2 -37 c3 -3 -8 -5 -24 -4 -16 1 -32 4 -35 7 -3 3 8 5 24 4 16 -1 32 -4 35
-7z m709 0 c-3 -4 -14 -6 -24 -5 -31 5 -32 13 -1 12 16 0 27 -3 25 -7z m32
-13 c-1 -13 -4 -27 -7 -30 -5 -4 -4 41 0 53 4 10 8 -2 7 -23z m-839 -30 c0 -8
-4 -12 -9 -9 -4 3 -8 9 -8 15 0 5 4 9 8 9 5 0 9 -7 9 -15z m77 -10 c1 -9 9
-21 17 -26 9 -5 10 -9 2 -9 -6 0 -15 6 -20 13 -9 15 -16 53 -7 45 3 -3 7 -14
8 -23z m709 10 c-3 -9 -8 -14 -10 -11 -3 3 -2 9 2 15 9 16 15 13 8 -4z m-668
-23 c-3 -3 -11 0 -18 7 -9 10 -8 11 6 5 10 -3 15 -9 12 -12z m779 -7 c-7 -18
-20 -19 -30 -3 -4 6 -3 8 4 4 6 -3 13 -2 17 4 9 15 15 12 9 -5z m-852 -14 c-4
-10 -1 -12 8 -6 9 6 11 4 5 -5 -6 -10 -10 -10 -19 2 -6 8 -17 13 -23 11 -7 -3
-13 -1 -13 4 0 5 11 9 24 9 17 0 22 -4 18 -15z m747 5 c9 -10 8 -15 -3 -19 -9
-4 -18 -1 -22 5 -5 7 -2 8 6 3 10 -6 12 -4 7 8 -8 21 -3 22 12 3z m61 9 c0 -2
-6 -8 -13 -14 -10 -8 -14 -7 -14 2 0 8 6 14 14 14 7 0 13 -1 13 -2z m23 -35
c9 -11 13 -20 7 -20 -5 0 -14 9 -20 20 -6 11 -9 20 -8 20 2 0 11 -9 21 -20z
m-876 -10 c1 -16 -1 -17 -12 -7 -11 10 -8 19 10 27 1 0 1 -9 2 -20z m93 16 c0
-2 -7 -7 -16 -10 -8 -3 -12 -2 -9 4 6 10 25 14 25 6z m40 -22 c0 -2 -7 -4 -15
-4 -8 0 -15 4 -15 10 0 5 7 7 15 4 8 -4 15 -8 15 -10z m695 6 c3 -6 -1 -7 -9
-4 -18 7 -21 14 -7 14 6 0 13 -4 16 -10z m29 -22 c-3 -4 -11 -8 -17 -7 -9 0
-9 2 0 5 7 3 9 13 6 22 -4 14 -3 14 5 2 6 -8 8 -18 6 -22z m-804 6 c0 -2 -7
-4 -15 -4 -8 0 -15 4 -15 10 0 5 7 7 15 4 8 -4 15 -8 15 -10z m42 -14 c-2 -8
3 -10 15 -6 15 6 16 5 5 -6 -10 -10 -16 -8 -34 9 -20 20 -20 21 -2 19 10 -2
18 -9 16 -16z m721 5 c-3 -16 28 -28 40 -16 6 6 18 11 27 10 13 0 13 -1 0 -6
-8 -3 -28 -15 -45 -27 -19 -13 -26 -15 -17 -4 10 13 10 17 -3 22 -9 3 -14 10
-10 15 3 5 -5 12 -17 14 -21 5 -20 5 2 4 14 -1 24 -6 23 -12z m102 -16 c-3 -3
5 -16 16 -27 11 -12 15 -22 10 -22 -12 0 -34 37 -38 65 -2 16 -1 17 6 5 5 -8
8 -17 6 -21z m-906 1 c-6 -5 -18 -6 -26 -3 -9 4 -11 0 -7 -13 6 -15 4 -16 -6
-7 -17 16 -5 31 26 31 17 0 22 -3 13 -8z m41 -5 c-7 -8 -19 -15 -27 -15 -8 0
-12 -4 -8 -10 3 -5 13 -7 23 -4 16 5 16 5 0 -6 -10 -6 -18 -15 -18 -20 0 -6 8
-10 18 -10 11 0 8 -5 -12 -15 -32 -17 -51 -20 -23 -4 17 10 18 12 1 30 -14 15
-14 21 -4 34 7 8 19 15 26 15 8 0 14 5 14 10 0 6 5 10 11 10 8 0 8 -5 -1 -15z
m80 -15 c0 -5 -8 -10 -17 -10 -15 0 -16 2 -3 10 19 12 20 12 20 0z m670 0 c0
-5 -5 -10 -11 -10 -5 0 -7 5 -4 10 3 6 8 10 11 10 2 0 4 -4 4 -10z m55 -40
c-15 -17 -15 -19 2 -29 10 -6 13 -11 8 -11 -6 0 -26 13 -45 30 -19 16 -27 27
-17 24 9 -3 17 -10 17 -15 0 -5 5 -9 11 -9 6 0 9 7 6 15 -4 8 -1 17 5 21 7 4
8 3 4 -4 -4 -7 -2 -12 3 -12 6 0 11 8 12 18 0 11 2 12 6 4 3 -7 -2 -21 -12
-32z m115 25 c7 -8 9 -15 6 -15 -4 0 -14 7 -22 15 -9 8 -11 15 -6 15 5 0 15
-7 22 -15z m-98 -79 c12 0 23 -7 24 -14 1 -7 0 -8 -3 -2 -2 5 -9 10 -14 10 -6
0 -7 -4 -4 -10 3 -5 1 -10 -4 -10 -6 0 -11 5 -11 11 0 5 -4 7 -10 4 -5 -3 -10
-1 -10 4 0 6 -6 11 -14 11 -8 0 -16 7 -20 15 -5 13 -2 13 20 -1 13 -9 34 -17
46 -18z m104 -27 c-15 -12 -25 -24 -22 -27 3 -2 12 1 20 7 10 8 16 9 21 1 4
-6 3 -9 -2 -8 -4 1 -19 -4 -32 -11 -13 -7 -21 -9 -17 -3 3 5 -1 12 -9 16 -17
6 -20 26 -4 26 5 0 7 -4 4 -10 -11 -18 10 -10 28 10 9 11 22 20 28 20 7 0 0
-10 -15 -21z m-926 -1 c0 -6 -3 -8 -7 -5 -3 4 -16 1 -28 -7 -15 -10 -26 -11
-36 -4 -12 8 -11 9 1 5 9 -3 24 1 35 9 23 17 35 18 35 2z m21 -37 c-5 -9 -6
-23 -4 -31 4 -13 3 -13 -6 -1 -5 8 -6 22 -2 30 5 9 6 23 4 31 -4 13 -3 13 6 1
5 -8 6 -22 2 -30z m873 -41 c4 1 12 -1 19 -3 6 -3 1 -4 -12 -4 -14 1 -26 9
-29 19 -2 10 -8 15 -13 12 -5 -3 -6 3 -2 13 6 16 5 16 -10 4 -20 -16 -23 -7
-4 14 10 11 15 8 28 -21 9 -20 19 -35 23 -34z m-902 53 c-6 -2 -10 -9 -7 -14
4 -5 -1 -6 -10 -2 -13 5 -14 7 -3 14 7 5 18 8 23 8 6 0 4 -3 -3 -6z m76 -39
c0 -13 -4 -27 -9 -30 -5 -3 -6 3 -2 13 6 16 5 16 -10 4 -9 -7 -17 -9 -17 -3 0
5 7 13 16 16 8 3 12 11 8 17 -4 8 -9 7 -15 -2 -5 -8 -9 -9 -9 -3 0 16 10 23
25 18 7 -3 13 -16 13 -30z m-121 4 c-3 -8 -6 -5 -6 6 -1 11 2 17 5 13 3 -3 4
-12 1 -19z m888 -7 c-6 -5 -25 10 -25 20 0 5 6 4 14 -3 8 -7 12 -15 11 -17z
m-850 -10 c-3 -6 -10 -9 -15 -6 -5 3 -8 -4 -7 -15 1 -11 7 -20 14 -20 7 0 13
-5 13 -10 0 -7 -6 -7 -19 -1 -20 11 -23 58 -3 54 7 -2 12 2 12 9 0 6 3 9 6 5
3 -3 3 -11 -1 -16z m825 0 c0 -5 8 -12 18 -14 14 -4 14 -5 1 -6 -9 0 -22 6
-29 14 -9 10 -9 15 -1 15 6 0 11 -4 11 -9z m56 -27 c3 -16 2 -26 -1 -23 -3 4
-8 19 -11 35 -3 16 -2 26 1 23 3 -4 8 -19 11 -35z m-78 1 c-3 -3 -9 2 -12 12
-6 14 -5 15 5 6 7 -7 10 -15 7 -18z m-851 -7 c-3 -8 -6 -5 -6 6 -1 11 2 17 5
13 3 -3 4 -12 1 -19z m73 12 c0 -5 -4 -10 -10 -10 -5 0 -10 5 -10 10 0 6 5 10
10 10 6 0 10 -4 10 -10z m897 -6 c-3 -3 -12 -4 -19 -1 -8 3 -5 6 6 6 11 1 17
-2 13 -5z m-842 -34 c2 -12 1 -20 -2 -16 -4 4 -8 16 -10 28 -4 28 6 18 12 -12z
m783 5 c5 -23 -13 -41 -23 -24 -5 8 -4 10 3 5 8 -4 12 0 12 11 0 11 -8 19 -19
20 -13 1 -18 -5 -17 -19 0 -12 -6 -23 -14 -25 -9 -3 -11 -1 -5 4 6 4 10 15 10
23 -2 24 5 30 28 26 12 -1 24 -11 25 -21z m102 14 c12 -8 10 -9 -7 -4 -18 5
-22 3 -17 -9 3 -9 2 -16 -4 -16 -8 0 -9 16 -3 38 2 5 17 1 31 -9z m-938 -41
c-6 -6 -12 -5 -17 3 -5 8 -4 10 3 5 8 -5 12 1 13 16 1 18 2 19 6 4 3 -10 0
-23 -5 -28z m-72 -10 c10 -21 10 -21 -3 -6 -8 10 -18 14 -22 10 -5 -4 -5 -1
-1 6 10 17 14 15 26 -10z m40 18 c0 -2 -7 -7 -16 -10 -8 -3 -12 -2 -9 4 6 10
25 14 25 6z m81 -21 c3 2 5 -5 6 -15 1 -11 -2 -20 -8 -20 -5 0 -8 3 -7 8 1 4
-3 18 -10 32 -12 22 -11 23 1 8 8 -10 16 -16 18 -13z m859 9 c0 -2 -7 -4 -15
-4 -8 0 -15 4 -15 10 0 5 7 7 15 4 8 -4 15 -8 15 -10z m-42 -5 c-2 -6 -7 -10
-12 -9 -5 1 -13 -4 -18 -12 -8 -10 -9 -10 -5 2 2 8 10 14 16 13 6 -2 11 2 11
7 0 6 3 10 6 10 3 0 4 -5 2 -11z m-878 -9 c8 -5 11 -10 5 -10 -5 0 -17 5 -25
10 -8 5 -10 10 -5 10 6 0 17 -5 25 -10z m826 -16 c1 -9 0 -13 -4 -10 -3 4 -7
14 -8 22 -1 9 0 13 4 10 3 -4 7 -14 8 -22z m-901 7 c3 -5 0 -13 -6 -17 -7 -4
-9 -3 -5 4 3 5 0 13 -6 15 -9 4 -10 6 -1 6 6 1 14 -3 18 -8z m870 -9 c-3 -3
-11 0 -18 7 -9 10 -8 11 6 5 10 -3 15 -9 12 -12z m-831 -4 c-5 -7 -2 -9 9 -5
12 4 15 1 12 -15 -3 -11 -7 -23 -11 -27 -4 -3 -5 2 -1 11 3 10 0 19 -9 22 -13
5 -11 26 2 26 3 0 2 -5 -2 -12z m979 -5 c-4 -11 -3 -14 5 -9 7 4 12 3 12 -2 0
-6 -6 -12 -14 -15 -9 -4 -12 2 -11 16 3 25 3 27 10 27 2 0 1 -7 -2 -17z m-903
-15 c0 -6 -6 -5 -15 2 -8 7 -15 14 -15 16 0 2 7 1 15 -2 8 -4 15 -11 15 -16z
m837 -10 c-3 -7 -5 -2 -5 12 0 14 2 19 5 13 2 -7 2 -19 0 -25z m-67 14 c0 -5
-7 -9 -15 -9 -8 0 -12 4 -9 9 3 4 9 8 15 8 5 0 9 -4 9 -8z m-759 -25 c-10 -9
-11 -8 -5 6 3 10 9 15 12 12 3 -3 0 -11 -7 -18z m773 1 c-5 -7 -2 -9 7 -6 10
4 15 -1 15 -13 0 -12 -4 -15 -12 -9 -6 6 -13 7 -17 4 -3 -3 -4 2 -2 13 5 24 4
23 11 23 3 0 2 -5 -2 -12z m80 -4 c3 -8 2 -12 -4 -9 -6 3 -10 10 -10 16 0 14
7 11 14 -7z m-874 -13 c0 -13 -29 -8 -34 5 -3 7 2 10 15 7 10 -3 19 -9 19 -12z
m760 9 c-8 -5 -19 -10 -25 -10 -5 0 -3 5 5 10 8 5 20 10 25 10 6 0 3 -5 -5
-10z m155 -20 c-3 -5 -12 -10 -18 -10 -7 0 -6 4 3 10 19 12 23 12 15 0z m-84
-23 c-10 -9 -11 -8 -5 6 3 10 9 15 12 12 3 -3 0 -11 -7 -18z m-916 -14 c-1
-10 5 -27 14 -38 16 -20 16 -20 -6 -2 -17 15 -21 30 -14 55 4 11 9 -2 6 -15z
m901 -5 c4 -7 3 -8 -5 -4 -6 4 -20 2 -29 -6 -15 -12 -16 -11 -3 5 16 20 27 22
37 5z m-766 -2 c0 -2 -8 -10 -17 -17 -16 -13 -17 -12 -4 4 13 16 21 21 21 13z
m705 -14 c-3 -3 -11 0 -18 7 -9 10 -8 11 6 5 10 -3 15 -9 12 -12z m120 0 c-3
-3 -11 0 -18 7 -9 10 -8 11 6 5 10 -3 15 -9 12 -12z m-895 4 c0 -2 -8 -10 -17
-17 -16 -13 -17 -12 -4 4 13 16 21 21 21 13z m22 -19 c-7 -8 -10 -16 -7 -19 3
-2 -1 -5 -9 -5 -12 0 -11 5 2 23 9 12 19 20 21 18 2 -2 -1 -10 -7 -17z m815
-4 c0 -9 -4 -10 -14 -2 -7 6 -13 12 -13 14 0 1 6 2 13 2 8 0 14 -6 14 -14z
m-26 -20 c13 -16 12 -17 -3 -4 -10 7 -18 15 -18 17 0 8 8 3 21 -13z m-16 -21
c-3 -3 -11 0 -18 7 -9 10 -8 11 6 5 10 -3 15 -9 12 -12z m-784 -19 c13 -16 12
-17 -3 -4 -10 7 -18 15 -18 17 0 8 8 3 21 -13z m706 -8 c0 -8 -4 -15 -9 -15
-10 0 -11 14 -1 23 9 10 10 9 10 -8z m63 -4 c0 -6 -4 -12 -8 -15 -5 -3 -9 1
-9 9 0 8 4 15 9 15 4 0 8 -4 8 -9z m40 5 c0 -2 -7 -7 -16 -10 -8 -3 -12 -2 -9
4 6 10 25 14 25 6z m-803 -31 c0 -8 -4 -12 -9 -9 -5 3 -6 10 -3 15 9 13 12 11
12 -6z m38 6 c3 -5 2 -12 -3 -15 -5 -3 -9 1 -9 9 0 17 3 19 12 6z m9 -39 c3
-5 -1 -9 -9 -9 -8 0 -12 4 -9 9 3 4 7 8 9 8 2 0 6 -4 9 -8z m-34 -16 c0 -2 -8
-10 -17 -17 -16 -13 -17 -12 -4 4 13 16 21 21 21 13z m635 -46 c-3 -5 -12 -10
-18 -10 -7 0 -6 4 3 10 19 12 23 12 15 0z m-749 -45 c-1 -8 -5 -17 -8 -21 -5
-4 -4 16 1 34 3 9 9 -1 7 -13z m68 7 c3 -5 -1 -9 -9 -9 -8 0 -12 4 -9 9 3 4 7
8 9 8 2 0 6 -4 9 -8z m636 -6 c0 -2 -6 -9 -14 -15 -11 -9 -16 -9 -22 0 -4 7
-3 9 4 5 6 -3 13 -2 17 4 6 10 15 14 15 6z m-585 -15 c-9 -8 -36 -10 -30 -2 2
4 11 8 20 8 8 0 13 -3 10 -6z"/>
<path d="M2290 3040 c0 -5 5 -10 11 -10 5 0 7 5 4 10 -3 6 -8 10 -11 10 -2 0
-4 -4 -4 -10z"/>
<path d="M3858 3013 c-9 -2 -15 -10 -12 -17 3 -7 -2 -13 -10 -13 -8 0 -12 6
-9 13 8 21 -90 -33 -123 -67 -16 -18 -23 -29 -16 -25 6 4 12 2 12 -4 0 -6 -10
-10 -22 -8 -14 2 -22 9 -19 18 7 32 7 71 -1 76 -5 3 -6 10 -2 15 3 6 -9 9 -30
7 -22 -1 -36 -7 -36 -15 0 -7 -4 -13 -10 -13 -5 0 -7 7 -4 15 5 12 2 14 -17 7
-13 -5 -34 -8 -47 -7 -18 1 -22 -2 -19 -16 3 -12 0 -16 -9 -12 -8 3 -11 9 -8
14 3 5 0 9 -5 9 -6 0 -11 -6 -11 -12 0 -9 -3 -8 -10 2 -5 8 -12 11 -16 7 -10
-10 -1 -17 26 -22 13 -2 30 -11 40 -20 9 -8 21 -15 27 -15 6 0 11 -6 10 -12
-1 -31 4 -48 14 -48 5 0 7 5 4 10 -3 6 -1 10 4 10 17 0 13 -18 -6 -29 -10 -6
-13 -11 -8 -11 6 0 9 -24 8 -56 -2 -34 2 -63 9 -72 11 -13 11 -14 0 -8 -10 6
-12 -23 -11 -139 0 -81 -2 -149 -5 -152 -3 -3 -1 -15 5 -26 9 -15 8 -18 -1
-12 -9 6 -11 0 -8 -23 3 -19 0 -30 -6 -29 -6 1 -10 -6 -10 -15 1 -10 -1 -17
-5 -16 -12 3 -51 -13 -51 -21 0 -5 -11 -6 -25 -3 -15 2 -25 0 -25 -7 0 -6 7
-12 15 -12 8 -1 21 -2 28 -3 6 -1 17 2 24 6 6 5 14 5 17 0 6 -10 36 -9 54 2 6
4 12 3 12 -2 0 -10 50 -9 67 1 6 4 15 3 18 -3 5 -8 11 -7 21 1 8 6 14 7 14 2
0 -7 52 -9 115 -4 17 2 -9 18 -47 30 -38 13 -68 47 -68 80 0 11 -6 22 -12 24
-9 4 -9 8 -3 14 11 9 16 53 6 53 -7 0 -5 240 3 248 3 3 1 11 -5 19 -6 7 -7 13
-2 13 5 0 9 10 10 23 3 100 34 170 86 196 22 11 47 17 56 13 30 -11 80 -49 74
-56 -4 -3 5 -6 18 -6 17 0 20 -3 11 -9 -11 -7 -11 -9 2 -14 9 -4 16 -1 16 6 0
8 4 7 10 -3 7 -12 12 -12 34 0 27 14 32 33 17 72 -10 27 -42 45 -88 52 -36 5
-42 -6 -18 -31 21 -20 32 -9 14 14 -7 10 6 0 29 -22 46 -43 50 -53 27 -62 -15
-5 -49 26 -39 36 2 3 11 -4 18 -15 20 -27 29 -13 10 15 -10 14 -22 20 -32 16
-17 -6 -65 33 -56 46 3 5 4 8 2 8 -2 -1 -11 -3 -20 -6z m-210 -49 c-4 -3 -12
5 -18 18 -12 22 -12 22 6 6 10 -10 15 -20 12 -24z m356 -11 c4 -9 4 -18 1 -21
-3 -3 -5 0 -5 6 0 6 -12 23 -27 38 l-28 26 27 -17 c14 -9 29 -23 32 -32z
m-444 33 c0 -3 -4 -8 -10 -11 -5 -3 -10 -1 -10 4 0 6 5 11 10 11 6 0 10 -2 10
-4z m90 -52 c0 -14 -18 1 -34 29 l-19 32 26 -28 c15 -15 27 -30 27 -33z m264
7 c-2 -2 -10 1 -17 7 -8 7 -18 8 -22 4 -5 -4 -5 -1 -1 6 4 6 2 12 -3 12 -6 0
-11 5 -11 11 0 6 13 0 29 -13 15 -13 27 -25 25 -27z m-384 29 c0 -5 -2 -10 -4
-10 -3 0 -8 5 -11 10 -3 6 -1 10 4 10 6 0 11 -4 11 -10z m64 -12 c-3 -4 -1 -8
5 -8 5 0 13 -9 16 -20 4 -12 11 -17 18 -13 7 4 6 -1 -2 -10 -7 -9 -23 -17 -35
-16 -21 1 -21 1 1 7 17 5 20 11 13 22 -9 13 -11 13 -21 0 -8 -12 -9 -11 -4 7
4 15 0 25 -12 32 -16 9 -16 10 4 8 12 0 19 -5 17 -9z m-69 -16 c-3 -3 -11 0
-18 7 -9 10 -8 11 6 5 10 -3 15 -9 12 -12z m36 4 c5 3 9 0 9 -6 0 -15 -23 -7
-26 8 -1 7 0 8 3 2 2 -5 9 -8 14 -4z m439 -41 c-7 -8 -17 -15 -23 -15 -6 0 -2
7 9 15 25 19 30 19 14 0z m-400 -38 c-8 -7 -16 -20 -18 -30 -3 -15 0 -16 17
-5 11 6 19 17 18 22 -1 6 7 11 18 12 15 1 16 0 2 -3 -9 -3 -15 -8 -12 -13 3
-4 -6 -15 -20 -24 -13 -9 -26 -12 -29 -8 -8 14 0 43 15 53 20 13 27 10 9 -4z
m84 -23 c3 -8 2 -12 -4 -9 -6 3 -10 10 -10 16 0 14 7 11 14 -7z m-36 -14 c-7
-10 -14 -17 -17 -15 -4 4 18 35 25 35 2 0 -1 -9 -8 -20z m17 -10 c-3 -5 0 -10
7 -10 10 0 10 -2 0 -9 -8 -4 -13 -12 -13 -17 1 -5 -7 -9 -16 -9 -10 0 -26 -11
-35 -25 -22 -31 -24 -18 -3 14 11 16 22 22 35 19 14 -4 18 0 16 14 -3 18 1 33
10 33 3 0 2 -4 -1 -10z m-57 -30 c-7 -10 -14 -18 -15 -16 -6 6 9 36 18 36 5 0
4 -9 -3 -20z m-28 -30 c0 -5 -2 -10 -4 -10 -3 0 -8 5 -11 10 -3 6 -1 10 4 10
6 0 11 -4 11 -10z m95 0 c-3 -5 -12 -10 -18 -10 -7 0 -6 4 3 10 19 12 23 12
15 0z m-52 -27 c-5 -12 -3 -14 8 -8 8 5 11 4 6 0 -4 -5 -14 -10 -22 -11 -12
-2 -12 2 -5 17 13 23 22 25 13 2z m-32 -75 c-10 -11 -11 -9 -5 6 6 15 4 17 -6
11 -9 -6 -11 -4 -5 4 5 9 10 10 18 2 8 -8 7 -14 -2 -23z m72 18 c4 -10 1 -13
-8 -9 -8 3 -12 9 -9 14 7 12 11 11 17 -5z m-13 -40 c0 -2 -8 -10 -17 -17 -16
-13 -17 -12 -4 4 13 16 21 21 21 13z m-46 -15 c3 -4 -4 -17 -17 -27 l-22 -19
18 21 c14 17 15 23 5 27 -9 4 -9 6 -1 6 6 1 14 -3 17 -8z m62 -20 c0 -16 -3
-17 -14 -9 -12 10 -7 19 13 28 1 0 1 -9 1 -19z m-55 -24 c-6 -8 -9 -17 -6 -20
3 -4 2 -5 -2 -2 -3 3 -11 0 -18 -5 -8 -7 -12 -5 -12 5 0 8 4 12 8 10 3 -3 12
2 19 10 7 8 15 15 17 15 3 0 0 -6 -6 -13z m23 -58 c3 -3 -5 -5 -19 -5 -13 0
-22 3 -19 7 4 8 30 6 38 -2z m-18 -61 c3 -4 -1 -5 -10 -4 -8 1 -18 5 -22 8 -3
4 1 5 10 4 8 -1 18 -5 22 -8z m30 -120 c3 -4 -1 -5 -10 -4 -8 1 -18 5 -22 8
-3 4 1 5 10 4 8 -1 18 -5 22 -8z"/>
<path d="M4227 2452 c-15 -2 -25 -8 -22 -13 3 -5 0 -6 -8 -3 -18 7 -71 -57
-55 -67 7 -4 7 -9 -1 -14 -14 -8 -6 -40 22 -78 14 -21 26 -28 43 -24 13 2 21
0 18 -4 -3 -5 6 -9 20 -9 14 0 26 5 26 11 0 5 4 8 9 5 5 -3 20 3 32 14 13 11
20 19 16 20 -5 0 -1 7 7 16 19 19 12 35 -12 28 -14 -5 -14 -4 -2 4 8 6 18 8
23 5 21 -13 -6 52 -31 77 -31 31 -47 37 -85 32z m-8 -56 c9 -11 9 -16 -1 -22
-7 -4 -10 -4 -6 1 4 4 3 14 -3 22 -6 7 -9 13 -6 13 2 0 10 -6 16 -14z m46 -16
c3 -5 1 -10 -4 -10 -6 0 -11 5 -11 10 0 6 2 10 4 10 3 0 8 -4 11 -10z m-97
-65 c-3 -3 -9 2 -12 12 -6 14 -5 15 5 6 7 -7 10 -15 7 -18z m122 9 c0 -8 -19
-13 -24 -6 -3 5 1 9 9 9 8 0 15 -2 15 -3z"/>
</g>
</svg>
